<?xml version="1.0" encoding="UTF-8"?>
<!DOCTYPE svg PUBLIC "-//W3C//DTD SVG 1.1//EN" "http://www.w3.org/Graphics/SVG/1.1/DTD/svg11.dtd">
<svg xmlns="http://www.w3.org/2000/svg" version="1.1" width="258px" height="195px" style="shape-rendering:geometricPrecision; text-rendering:geometricPrecision; image-rendering:optimizeQuality; fill-rule:evenodd; clip-rule:evenodd" xmlns:xlink="http://www.w3.org/1999/xlink">
<g><path style="opacity:1" fill="#fefefe" d="M -0.5,-0.5 C 85.5,-0.5 171.5,-0.5 257.5,-0.5C 257.5,64.5 257.5,129.5 257.5,194.5C 171.5,194.5 85.5,194.5 -0.5,194.5C -0.5,129.5 -0.5,64.5 -0.5,-0.5 Z"/></g>
<g><path style="opacity:1" fill="#fbf2bb" d="M 216.5,63.5 C 201.167,63.5 185.833,63.5 170.5,63.5C 170.5,78.8333 170.5,94.1667 170.5,109.5C 169.504,94.0089 169.17,78.3422 169.5,62.5C 185.342,62.1704 201.009,62.5037 216.5,63.5 Z"/></g>
<g><path style="opacity:1" fill="#f4dc1d" d="M 216.5,63.5 C 216.5,78.8333 216.5,94.1667 216.5,109.5C 201.167,109.5 185.833,109.5 170.5,109.5C 170.5,94.1667 170.5,78.8333 170.5,63.5C 185.833,63.5 201.167,63.5 216.5,63.5 Z"/></g>
<g><path style="opacity:1" fill="#4c4c4c" d="M 34.5,105.5 C 34.5,106.167 34.1667,106.5 33.5,106.5C 33.5,96.5 33.5,86.5 33.5,76.5C 40.175,76.3337 46.8417,76.5004 53.5,77C 47.1754,77.4995 40.8421,77.6662 34.5,77.5C 34.5,81.8333 34.5,86.1667 34.5,90.5C 58.5,90.8333 58.5,91.1667 34.5,91.5C 34.5,96.1667 34.5,100.833 34.5,105.5 Z"/></g>
<g><path style="opacity:1" fill="#838383" d="M 123.5,89.5 C 120.716,86.9535 117.383,85.4535 113.5,85C 118.308,83.5744 121.641,85.0744 123.5,89.5 Z"/></g>
<g><path style="opacity:1" fill="#747474" d="M 149.5,87.5 C 153.292,83.9397 157.459,83.6063 162,86.5C 163.876,92.8627 163.376,93.0293 160.5,87C 156.732,85.0259 153.066,85.1926 149.5,87.5 Z"/></g>
<g><path style="opacity:1" fill="#0e0b02" d="M 191.5,84.5 C 192.833,84.5 194.167,84.5 195.5,84.5C 195.666,89.8437 195.499,95.1771 195,100.5C 193.427,105.035 190.261,106.535 185.5,105C 184.5,104 183.5,103 182.5,102C 183.108,101.13 183.941,100.63 185,100.5C 187.055,101.692 189.055,101.692 191,100.5C 191.499,95.1771 191.666,89.8437 191.5,84.5 Z"/></g>
<g><path style="opacity:1" fill="#0f0d03" d="M 201.5,84.5 C 205.302,83.8803 208.635,84.7137 211.5,87C 209.698,90.0767 207.698,90.2433 205.5,87.5C 204.28,87.8869 203.613,88.7202 203.5,90C 206.294,92.0071 209.127,94.1738 212,96.5C 212.729,104.09 209.229,106.923 201.5,105C 198.096,103.137 197.929,101.303 201,99.5C 203.135,101.278 205.635,101.945 208.5,101.5C 208.649,100.448 208.483,99.448 208,98.5C 206.068,96.9617 203.901,95.795 201.5,95C 198.868,91.4316 198.868,87.9316 201.5,84.5 Z"/></g>
<g><path style="opacity:1" fill="#747474" d="M 81.5,85.5 C 84.3557,84.1017 87.0223,84.6017 89.5,87C 86.9792,86.2704 84.3126,85.7704 81.5,85.5 Z"/></g>
<g><path style="opacity:1" fill="#6f6f6f" d="M 129.5,92.5 C 127.707,89.0529 128.707,86.5529 132.5,85C 136.505,83.9019 140.005,84.7352 143,87.5C 143.667,88.8333 143.667,90.1667 143,91.5C 140.03,84.9047 135.697,83.9047 130,88.5C 129.51,89.7932 129.343,91.1266 129.5,92.5 Z"/></g>
<g><path style="opacity:1" fill="#7d7d7d" d="M 99.5,87.5 C 100.918,85.2918 102.918,84.4585 105.5,85C 103.593,86.122 101.593,86.9553 99.5,87.5 Z"/></g>
<g><path style="opacity:1" fill="#777777" d="M 64.5,93.5 C 65.0312,91.4559 66.1978,89.7893 68,88.5C 67.9232,90.7715 66.7565,92.4382 64.5,93.5 Z"/></g>
<g><path style="opacity:1" fill="#666666" d="M 149.5,87.5 C 149.166,90.188 149.832,92.5214 151.5,94.5C 150.504,94.5858 149.671,94.2524 149,93.5C 148.211,91.2884 148.378,89.2884 149.5,87.5 Z"/></g>
<g><path style="opacity:1" fill="#6b6b6b" d="M 64.5,93.5 C 64.3146,95.1958 63.4813,96.5291 62,97.5C 61.6397,95.5789 60.8064,93.9122 59.5,92.5C 59.6667,92.1667 59.8333,91.8333 60,91.5C 61.1923,93.6502 62.6923,94.3168 64.5,93.5 Z"/></g>
<g><path style="opacity:1" fill="#363636" d="M 99.5,87.5 C 97.7982,93.5995 96.9648,99.9328 97,106.5C 96.3333,99.5 96.3333,92.5 97,85.5C 97.0748,87.935 97.9081,88.6016 99.5,87.5 Z"/></g>
<g><path style="opacity:1" fill="#767676" d="M 129.5,92.5 C 133.366,94.2897 137.366,95.7897 141.5,97C 138.103,96.9874 134.77,96.3207 131.5,95C 130.244,94.5831 129.577,93.7498 129.5,92.5 Z"/></g>
<g><path style="opacity:1" fill="#6e6e6e" d="M 151.5,94.5 C 153.927,94.523 156.26,95.023 158.5,96C 155.861,96.5881 153.527,96.0881 151.5,94.5 Z"/></g>
<g><path style="opacity:1" fill="#4f4f4f" d="M 123.5,89.5 C 125.163,91.4385 125.829,93.7718 125.5,96.5C 119.5,96.5 113.5,96.5 107.5,96.5C 106.167,96.1667 106.167,95.8333 107.5,95.5C 113.167,95.5 118.833,95.5 124.5,95.5C 124.167,93.5 123.833,91.5 123.5,89.5 Z"/></g>
<g><path style="opacity:1" fill="#757575" d="M 65.5,99.5 C 67.7565,100.562 68.9232,102.228 69,104.5C 67.1978,103.211 66.0312,101.544 65.5,99.5 Z"/></g>
<g><path style="opacity:1" fill="#4e4e4e" d="M 75.5,102.5 C 74.6762,106.312 74.1762,110.312 74,114.5C 73.3333,104.833 73.3333,95.1667 74,85.5C 74.6028,91.103 75.1028,96.7697 75.5,102.5 Z"/></g>
<g><path style="opacity:1" fill="#6f6f6f" d="M 91.5,91.5 C 92.6408,94.6399 92.8075,97.9733 92,101.5C 88.0777,106.702 87.7443,106.369 91,100.5C 91.498,97.5184 91.6646,94.5184 91.5,91.5 Z"/></g>
<g><path style="opacity:1" fill="#7e7e7e" d="M 123.5,99.5 C 124.376,99.3691 125.043,99.7025 125.5,100.5C 124.752,102.332 123.752,103.999 122.5,105.5C 122.167,105.333 121.833,105.167 121.5,105C 122.861,103.416 123.528,101.582 123.5,99.5 Z"/></g>
<g><path style="opacity:1" fill="#707070" d="M 75.5,102.5 C 78.4365,105.631 82.1031,107.131 86.5,107C 84.1667,107.667 81.8333,107.667 79.5,107C 77.249,106.252 75.9156,104.752 75.5,102.5 Z"/></g>
<g><path style="opacity:1" fill="#9e9e9e" d="M 33.5,106.5 C 34.1667,106.5 34.5,106.167 34.5,105.5C 41.175,105.666 47.8417,105.5 54.5,105C 55.6667,103.833 56.8333,102.667 58,101.5C 57.8047,103.745 56.6381,105.578 54.5,107C 47.3209,107.821 40.3209,107.655 33.5,106.5 Z"/></g>
<g><path style="opacity:1" fill="#525252" d="M 110.5,106.5 C 110.56,105.957 110.893,105.624 111.5,105.5C 114.109,106.23 116.776,106.73 119.5,107C 116.408,107.736 113.408,107.569 110.5,106.5 Z"/></g>
<g><path style="opacity:1" fill="#555555" d="M 142.5,103.5 C 143.65,105.267 142.983,106.433 140.5,107C 137.833,107.667 135.167,107.667 132.5,107C 134.833,106.667 137.167,106.333 139.5,106C 140.942,105.623 141.942,104.79 142.5,103.5 Z"/></g>
<g><path style="opacity:1" fill="#5a5a5a" d="M 148.5,103.5 C 152.435,106.419 156.768,107.252 161.5,106C 158.367,107.57 155.033,107.903 151.5,107C 149.574,106.578 148.574,105.411 148.5,103.5 Z"/></g>
</svg>
