<?xml version="1.0" encoding="UTF-8"?>
<!DOCTYPE svg PUBLIC "-//W3C//DTD SVG 1.1//EN" "http://www.w3.org/Graphics/SVG/1.1/DTD/svg11.dtd">
<svg xmlns="http://www.w3.org/2000/svg" version="1.1" width="557px" height="561px" style="shape-rendering:geometricPrecision; text-rendering:geometricPrecision; image-rendering:optimizeQuality; fill-rule:evenodd; clip-rule:evenodd" xmlns:xlink="http://www.w3.org/1999/xlink">
<g><path style="opacity:1" fill="#fefefe" d="M -0.5,-0.5 C 185.167,-0.5 370.833,-0.5 556.5,-0.5C 556.5,186.5 556.5,373.5 556.5,560.5C 370.833,560.5 185.167,560.5 -0.5,560.5C -0.5,373.5 -0.5,186.5 -0.5,-0.5 Z"/></g>
<g><path style="opacity:1" fill="#232323" d="M 228.5,69.5 C 245.5,69.5 262.5,69.5 279.5,69.5C 279.5,69.8333 279.5,70.1667 279.5,70.5C 262.833,70.5 246.167,70.5 229.5,70.5C 229.5,76.1667 229.5,81.8333 229.5,87.5C 228.51,81.69 228.177,75.69 228.5,69.5 Z"/></g>
<g><path style="opacity:1" fill="#040404" d="M 166.5,69.5 C 172.5,69.5 178.5,69.5 184.5,69.5C 184.5,75.5 184.5,81.5 184.5,87.5C 190.167,87.5 195.833,87.5 201.5,87.5C 201.5,81.5 201.5,75.5 201.5,69.5C 207.5,69.5 213.5,69.5 219.5,69.5C 219.5,87.8333 219.5,106.167 219.5,124.5C 213.833,124.5 208.167,124.5 202.5,124.5C 202.823,118.31 202.49,112.31 201.5,106.5C 195.833,106.5 190.167,106.5 184.5,106.5C 183.51,112.31 183.177,118.31 183.5,124.5C 177.833,124.5 172.167,124.5 166.5,124.5C 166.5,106.167 166.5,87.8333 166.5,69.5 Z"/></g>
<g><path style="opacity:1" fill="#010101" d="M 279.5,70.5 C 279.5,76.1667 279.5,81.8333 279.5,87.5C 274.167,87.5 268.833,87.5 263.5,87.5C 262.505,99.6554 262.171,111.989 262.5,124.5C 256.833,124.5 251.167,124.5 245.5,124.5C 245.5,112.167 245.5,99.8333 245.5,87.5C 240.167,87.5 234.833,87.5 229.5,87.5C 229.5,81.8333 229.5,76.1667 229.5,70.5C 246.167,70.5 262.833,70.5 279.5,70.5 Z"/></g>
<g><path style="opacity:1" fill="#232323" d="M 308.5,71.5 C 302.256,70.5422 295.923,70.2088 289.5,70.5C 289.5,88.5 289.5,106.5 289.5,124.5C 289.167,124.5 288.833,124.5 288.5,124.5C 288.5,106.167 288.5,87.8333 288.5,69.5C 295.584,68.8745 302.25,69.5411 308.5,71.5 Z"/></g>
<g><path style="opacity:1" fill="#040404" d="M 350.5,69.5 C 350.5,87.8333 350.5,106.167 350.5,124.5C 344.833,124.5 339.167,124.5 333.5,124.5C 333.826,115.651 333.493,106.984 332.5,98.5C 330.674,100.147 329.34,102.147 328.5,104.5C 325.759,106.975 323.759,109.975 322.5,113.5C 321.094,113.973 320.427,114.973 320.5,116.5C 316.371,112.266 312.704,107.599 309.5,102.5C 309.262,100.596 308.262,99.2623 306.5,98.5C 305.507,106.984 305.174,115.651 305.5,124.5C 300.167,124.5 294.833,124.5 289.5,124.5C 289.5,106.5 289.5,88.5 289.5,70.5C 295.923,70.2088 302.256,70.5422 308.5,71.5C 312.509,76.863 316.176,82.5297 319.5,88.5C 323.641,82.9024 327.308,76.9024 330.5,70.5C 337.134,69.5033 343.8,69.17 350.5,69.5 Z"/></g>
<g><path style="opacity:1" fill="#040404" d="M 361.5,69.5 C 367.5,69.5 373.5,69.5 379.5,69.5C 379.5,81.8333 379.5,94.1667 379.5,106.5C 387.65,107.493 395.983,107.826 404.5,107.5C 404.5,113.167 404.5,118.833 404.5,124.5C 390.167,124.5 375.833,124.5 361.5,124.5C 361.5,106.167 361.5,87.8333 361.5,69.5 Z"/></g>
<g><path style="opacity:1" fill="#e5e5e5" d="M 379.5,69.5 C 380.167,81.3401 380.833,93.3401 381.5,105.5C 389.653,105.426 397.986,105.426 406.5,105.5C 406.824,112.354 406.491,119.021 405.5,125.5C 405.5,119.167 405.5,112.833 405.5,106.5C 396.833,106.5 388.167,106.5 379.5,106.5C 379.5,94.1667 379.5,81.8333 379.5,69.5 Z"/></g>
<g><path style="opacity:1" fill="#4c4c4c" d="M 219.5,69.5 C 220.497,87.9925 220.83,106.659 220.5,125.5C 214.167,125.5 207.833,125.5 201.5,125.5C 201.5,119.167 201.5,112.833 201.5,106.5C 202.49,112.31 202.823,118.31 202.5,124.5C 208.167,124.5 213.833,124.5 219.5,124.5C 219.5,106.167 219.5,87.8333 219.5,69.5 Z"/></g>
<g><path style="opacity:1" fill="#999999" d="M 228.5,69.5 C 228.177,75.69 228.51,81.69 229.5,87.5C 234.833,87.5 240.167,87.5 245.5,87.5C 245.5,99.8333 245.5,112.167 245.5,124.5C 245.5,124.833 245.5,125.167 245.5,125.5C 244.505,113.345 244.171,101.011 244.5,88.5C 238.833,88.5 233.167,88.5 227.5,88.5C 227.177,81.9779 227.51,75.6446 228.5,69.5 Z"/></g>
<g><path style="opacity:1" fill="#393939" d="M 263.5,87.5 C 263.5,100.167 263.5,112.833 263.5,125.5C 257.5,125.5 251.5,125.5 245.5,125.5C 245.5,125.167 245.5,124.833 245.5,124.5C 251.167,124.5 256.833,124.5 262.5,124.5C 262.171,111.989 262.505,99.6554 263.5,87.5 Z"/></g>
<g><path style="opacity:1" fill="#a5a5a5" d="M 279.5,69.5 C 280.49,75.6446 280.823,81.9779 280.5,88.5C 275.167,88.5 269.833,88.5 264.5,88.5C 264.829,101.011 264.495,113.345 263.5,125.5C 263.5,112.833 263.5,100.167 263.5,87.5C 268.833,87.5 274.167,87.5 279.5,87.5C 279.5,81.8333 279.5,76.1667 279.5,70.5C 279.5,70.1667 279.5,69.8333 279.5,69.5 Z"/></g>
<g><path style="opacity:1" fill="#d5d5d5" d="M 332.5,98.5 C 332.5,107.5 332.5,116.5 332.5,125.5C 331.672,119.347 331.172,113.013 331,106.5C 330.583,105.244 329.75,104.577 328.5,104.5C 329.34,102.147 330.674,100.147 332.5,98.5 Z"/></g>
<g><path style="opacity:1" fill="#c4c4c4" d="M 306.5,98.5 C 308.262,99.2623 309.262,100.596 309.5,102.5C 308.883,102.389 308.383,102.056 308,101.5C 307.829,109.677 307.329,117.677 306.5,125.5C 306.5,116.5 306.5,107.5 306.5,98.5 Z"/></g>
<g><path style="opacity:1" fill="#cacaca" d="M 184.5,106.5 C 190.167,106.5 195.833,106.5 201.5,106.5C 201.5,112.833 201.5,119.167 201.5,125.5C 200.51,119.69 200.177,113.69 200.5,107.5C 195.5,107.5 190.5,107.5 185.5,107.5C 185.823,113.69 185.49,119.69 184.5,125.5C 184.5,119.167 184.5,112.833 184.5,106.5 Z"/></g>
<g><path style="opacity:1" fill="#979797" d="M 322.5,113.5 C 322.573,115.027 321.906,116.027 320.5,116.5C 320.427,114.973 321.094,113.973 322.5,113.5 Z"/></g>
<g><path style="opacity:1" fill="#535353" d="M 166.5,69.5 C 166.5,87.8333 166.5,106.167 166.5,124.5C 172.167,124.5 177.833,124.5 183.5,124.5C 183.177,118.31 183.51,112.31 184.5,106.5C 184.5,112.833 184.5,119.167 184.5,125.5C 178.167,125.5 171.833,125.5 165.5,125.5C 165.17,106.659 165.503,87.9925 166.5,69.5 Z"/></g>
<g><path style="opacity:1" fill="#404040" d="M 306.5,98.5 C 306.5,107.5 306.5,116.5 306.5,125.5C 300.31,125.823 294.31,125.49 288.5,124.5C 288.833,124.5 289.167,124.5 289.5,124.5C 294.833,124.5 300.167,124.5 305.5,124.5C 305.174,115.651 305.507,106.984 306.5,98.5 Z"/></g>
<g><path style="opacity:1" fill="#505050" d="M 350.5,69.5 C 351.497,87.9925 351.83,106.659 351.5,125.5C 345.167,125.5 338.833,125.5 332.5,125.5C 332.5,116.5 332.5,107.5 332.5,98.5C 333.493,106.984 333.826,115.651 333.5,124.5C 339.167,124.5 344.833,124.5 350.5,124.5C 350.5,106.167 350.5,87.8333 350.5,69.5 Z"/></g>
<g><path style="opacity:1" fill="#424242" d="M 361.5,69.5 C 361.5,87.8333 361.5,106.167 361.5,124.5C 375.833,124.5 390.167,124.5 404.5,124.5C 404.5,118.833 404.5,113.167 404.5,107.5C 395.983,107.826 387.65,107.493 379.5,106.5C 388.167,106.5 396.833,106.5 405.5,106.5C 405.5,112.833 405.5,119.167 405.5,125.5C 390.5,125.5 375.5,125.5 360.5,125.5C 360.17,106.659 360.503,87.9925 361.5,69.5 Z"/></g>
<g><path style="opacity:1" fill="#f9fcf8" d="M 425.5,266.5 C 425.5,265.167 425.5,263.833 425.5,262.5C 425.26,250.979 426.427,239.645 429,228.5C 429.961,212.847 430.461,197.18 430.5,181.5C 431.222,181.918 431.722,182.584 432,183.5C 432.333,183.167 432.667,182.833 433,182.5C 433.333,174.833 433.667,167.167 434,159.5C 434.333,159.833 434.667,160.167 435,160.5C 435.667,157.5 435.667,154.5 435,151.5C 434.25,150.874 433.416,150.374 432.5,150C 336.167,149.5 239.834,149.333 143.5,149.5C 228.494,147.669 313.827,146.835 399.5,147C 406.395,145.191 413.229,145.358 420,147.5C 423.31,145.337 426.81,145.004 430.5,146.5C 431.251,145.624 431.751,144.624 432,143.5C 434.224,146.743 436.058,150.243 437.5,154C 436.88,157.843 436.213,161.676 435.5,165.5C 436.487,171.836 436.82,178.003 436.5,184C 435.874,184.75 435.374,185.584 435,186.5C 434.909,196.259 434.076,205.925 432.5,215.5C 433.911,217.017 433.744,218.351 432,219.5C 431.667,218.5 431.333,217.5 431,216.5C 430.044,228.483 429.378,240.483 429,252.5C 428.085,251.672 427.419,250.672 427,249.5C 426.827,255.348 426.327,261.015 425.5,266.5 Z"/></g>
<g><path style="opacity:1" fill="#feefe7" d="M 138.5,150.5 C 139.919,149.549 141.585,149.216 143.5,149.5C 239.834,149.333 336.167,149.5 432.5,150C 433.416,150.374 434.25,150.874 435,151.5C 435.667,154.5 435.667,157.5 435,160.5C 434.667,160.167 434.333,159.833 434,159.5C 433.667,167.167 433.333,174.833 433,182.5C 432.667,182.833 432.333,183.167 432,183.5C 431.722,182.584 431.222,181.918 430.5,181.5C 431.622,174.721 432.288,167.887 432.5,161C 432.498,157.648 432.165,154.482 431.5,151.5C 334.001,150.501 236.335,150.167 138.5,150.5 Z"/></g>
<g><path style="opacity:1" fill="#d65841" d="M 427.5,151.5 C 427.5,151.833 427.5,152.167 427.5,152.5C 423.5,152.5 419.5,152.5 415.5,152.5C 324.833,152.333 234.166,152.5 143.5,153C 142.35,161.755 142.184,170.588 143,179.5C 143.333,179.167 143.667,178.833 144,178.5C 144.608,180.154 145.108,181.821 145.5,183.5C 148.104,204.608 149.438,225.941 149.5,247.5C 148.999,240.998 147.666,234.665 145.5,228.5C 145.5,226.833 145.5,225.167 145.5,223.5C 145.658,214.648 145.325,205.815 144.5,197C 144.453,194.705 143.787,192.871 142.5,191.5C 141.169,178.199 140.169,164.866 139.5,151.5C 235.5,151.5 331.5,151.5 427.5,151.5 Z"/></g>
<g><path style="opacity:1" fill="#e84a2b" d="M 415.5,152.5 C 328.668,153.333 241.668,153.833 154.5,154C 152.475,155.194 152.141,156.694 153.5,158.5C 151.955,159.452 150.288,159.785 148.5,159.5C 148.5,170.167 148.5,180.833 148.5,191.5C 148.162,193.854 147.662,196.187 147,198.5C 146.826,193.316 146.326,188.316 145.5,183.5C 145.108,181.821 144.608,180.154 144,178.5C 143.667,178.833 143.333,179.167 143,179.5C 142.184,170.588 142.35,161.755 143.5,153C 234.166,152.5 324.833,152.333 415.5,152.5 Z"/></g>
<g><path style="opacity:1" fill="#e9ac9b" d="M 138.5,150.5 C 236.335,150.167 334.001,150.501 431.5,151.5C 430.167,151.5 428.833,151.5 427.5,151.5C 331.5,151.5 235.5,151.5 139.5,151.5C 140.169,164.866 141.169,178.199 142.5,191.5C 142.927,195.824 143.261,200.158 143.5,204.5C 142.71,203.391 142.21,202.058 142,200.5C 141.328,188.138 140.328,175.804 139,163.5C 138.768,162.263 138.268,161.263 137.5,160.5C 137.5,157.5 137.5,154.5 137.5,151.5C 137.5,150.833 137.833,150.5 138.5,150.5 Z"/></g>
<g><path style="opacity:1" fill="#e44d25" d="M 415.5,152.5 C 419.5,152.5 423.5,152.5 427.5,152.5C 428.207,160.146 428.54,167.813 428.5,175.5C 427.5,175.5 426.5,175.5 425.5,175.5C 425.828,186.346 425.494,197.013 424.5,207.5C 423.5,207.5 422.5,207.5 421.5,207.5C 421.806,210.385 421.473,213.052 420.5,215.5C 420.382,209.409 419.549,203.409 418,197.5C 418.05,202.975 417.55,206.308 416.5,207.5C 415.5,207.5 414.5,207.5 413.5,207.5C 412.561,191.528 412.228,175.528 412.5,159.5C 411.167,159.5 409.833,159.5 408.5,159.5C 409.613,175.493 409.613,191.493 408.5,207.5C 407.753,201.653 407.086,195.653 406.5,189.5C 406.875,187.541 407.541,185.707 408.5,184C 408.162,180.746 407.162,177.912 405.5,175.5C 365.5,175.5 325.5,175.5 285.5,175.5C 285.5,186.167 285.5,196.833 285.5,207.5C 284.596,208.209 284.263,209.209 284.5,210.5C 253.995,210.169 223.662,210.502 193.5,211.5C 193.5,211.833 193.5,212.167 193.5,212.5C 193.167,212.5 192.833,212.5 192.5,212.5C 191.504,212.414 190.671,212.748 190,213.5C 189.5,222.16 189.334,230.827 189.5,239.5C 189.5,244.833 189.5,250.167 189.5,255.5C 190.5,255.5 191.5,255.5 192.5,255.5C 192.333,271.503 192.5,287.503 193,303.5C 193.241,300.711 193.908,298.044 195,295.5C 195.837,303.651 196.67,311.651 197.5,319.5C 197.167,322.5 198.5,323.833 201.5,323.5C 201.833,323.5 202.167,323.5 202.5,323.5C 202.5,323.833 202.5,324.167 202.5,324.5C 229.662,325.498 256.995,325.831 284.5,325.5C 284.918,326.222 285.584,326.722 286.5,327C 285.508,344.757 285.174,362.59 285.5,380.5C 280.752,379.479 276.085,378.146 271.5,376.5C 267.893,375.511 264.226,375.177 260.5,375.5C 260.53,374.503 260.03,373.836 259,373.5C 256.205,372.815 253.372,372.315 250.5,372C 248.43,371.052 246.93,369.552 246,367.5C 245.819,358.589 245.319,349.755 244.5,341C 231.327,340.173 218.327,340.34 205.5,341.5C 205.167,341.5 204.833,341.5 204.5,341.5C 203.167,341.5 201.833,341.5 200.5,341.5C 200.955,358.216 202.121,374.882 204,391.5C 204.383,392.056 204.883,392.389 205.5,392.5C 206.167,394.833 206.833,397.167 207.5,399.5C 207.5,400.833 207.5,402.167 207.5,403.5C 219.939,403.926 231.605,407.092 242.5,413C 249.121,414.256 255.788,415.089 262.5,415.5C 262.577,416.75 263.244,417.583 264.5,418C 266.81,418.497 269.143,418.663 271.5,418.5C 274.167,418.833 276.833,419.167 279.5,419.5C 281.993,421.584 284.66,421.917 287.5,420.5C 288.833,420.5 290.167,420.5 291.5,420.5C 290.159,422.12 288.326,423.12 286,423.5C 285.167,435.181 285.334,446.848 286.5,458.5C 297.656,456.665 308.322,453.331 318.5,448.5C 324.932,447.726 331.266,446.559 337.5,445C 352.536,439.573 367.869,435.073 383.5,431.5C 385.026,401.988 387.526,372.655 391,343.5C 391.156,322.865 392.656,302.198 395.5,281.5C 396.383,274.998 397.049,268.332 397.5,261.5C 398.087,251.934 399.42,242.6 401.5,233.5C 401.203,236.724 401.87,239.724 403.5,242.5C 402.858,247.451 402.525,252.451 402.5,257.5C 403.915,272.804 404.582,288.137 404.5,303.5C 403.5,303.5 402.5,303.5 401.5,303.5C 400.934,313.361 400.934,323.195 401.5,333C 401.833,333.833 402.167,334.667 402.5,335.5C 403.134,327.463 403.968,319.463 405,311.5C 405.333,310.833 405.667,310.167 406,309.5C 406.832,318.186 406.665,326.853 405.5,335.5C 403.809,339.466 402.809,343.632 402.5,348C 403.688,354.506 403.688,361.006 402.5,367.5C 401.505,362.208 401.172,356.875 401.5,351.5C 398.102,351.18 394.768,351.513 391.5,352.5C 391.069,353.293 390.735,354.127 390.5,355C 390.242,358.215 390.575,361.548 391.5,365C 390.794,373.934 390.127,382.601 389.5,391C 390.167,391.667 390.833,392.333 391.5,393C 390.809,398.57 390.809,404.07 391.5,409.5C 393.014,416.408 392.681,423.242 390.5,430C 390.872,432.709 392.372,434.543 395,435.5C 396.785,439.305 397.618,443.305 397.5,447.5C 393.847,448.806 390.181,450.139 386.5,451.5C 390.239,453.118 393.572,452.618 396.5,450C 397.793,449.51 399.127,449.343 400.5,449.5C 400.167,450.167 399.833,450.833 399.5,451.5C 397.698,452.458 395.698,453.125 393.5,453.5C 389.361,453.329 385.361,453.996 381.5,455.5C 379.825,455.868 378.825,456.868 378.5,458.5C 378.167,458.5 377.833,458.5 377.5,458.5C 372.851,459.065 368.184,459.565 363.5,460C 361.676,460.66 360.343,461.827 359.5,463.5C 358.833,463.5 358.167,463.5 357.5,463.5C 356.183,463.179 354.849,462.846 353.5,462.5C 350.583,463.654 347.916,464.987 345.5,466.5C 344.167,466.833 342.833,467.167 341.5,467.5C 335.214,467.302 329.214,468.468 323.5,471C 321.681,471.74 320.348,472.907 319.5,474.5C 313.619,475.145 308.286,476.811 303.5,479.5C 302.833,479.5 302.167,479.5 301.5,479.5C 299.102,479.259 297.102,479.926 295.5,481.5C 293.833,481.5 292.167,481.5 290.5,481.5C 284.013,481.848 277.68,481.182 271.5,479.5C 268.961,477.768 265.961,476.768 262.5,476.5C 261.614,475.675 261.281,474.675 261.5,473.5C 264.833,473.5 268.167,473.5 271.5,473.5C 271.5,472.5 271.5,471.5 271.5,470.5C 266.953,471.132 262.453,471.132 258,470.5C 253.989,473.243 250.156,473.077 246.5,470C 240.06,469.77 233.727,468.937 227.5,467.5C 226.167,467.5 224.833,467.5 223.5,467.5C 221.5,467.167 219.5,466.833 217.5,466.5C 217.5,466.167 217.5,465.833 217.5,465.5C 217.389,464.883 217.056,464.383 216.5,464C 212.184,463.004 207.851,462.17 203.5,461.5C 202.192,460.768 200.858,459.934 199.5,459C 189.491,456.715 179.491,454.549 169.5,452.5C 169.5,452.167 169.5,451.833 169.5,451.5C 172.607,451.649 175.607,451.149 178.5,450C 177.748,449.329 177.414,448.496 177.5,447.5C 179.564,447.762 180.897,448.929 181.5,451C 183.134,451.494 184.801,451.66 186.5,451.5C 186.5,450.167 186.5,448.833 186.5,447.5C 185.325,447.719 184.325,447.386 183.5,446.5C 181.25,436.246 180.917,425.912 182.5,415.5C 183.833,415.5 185.167,415.5 186.5,415.5C 186.232,412.881 186.565,410.381 187.5,408C 187.833,407.833 188.167,407.667 188.5,407.5C 189.167,410.167 189.833,412.833 190.5,415.5C 191.58,413.004 192.914,410.67 194.5,408.5C 193.726,407.289 192.893,407.289 192,408.5C 191.51,407.207 191.343,405.873 191.5,404.5C 194.833,404.5 196.5,402.833 196.5,399.5C 195.5,399.5 194.5,399.5 193.5,399.5C 192.194,387.594 191.527,387.594 191.5,399.5C 189.5,399.5 187.5,399.5 185.5,399.5C 186.084,402.983 185.251,405.983 183,408.5C 181.886,406.03 181.386,403.364 181.5,400.5C 181.617,394.591 182.617,388.924 184.5,383.5C 185.5,383.5 186.5,383.5 187.5,383.5C 186.833,372.833 186.167,362.167 185.5,351.5C 184.5,351.5 183.5,351.5 182.5,351.5C 183.572,346.132 184.572,340.799 185.5,335.5C 182.795,335.62 182.128,334.62 183.5,332.5C 180.066,328.867 178.399,324.534 178.5,319.5C 179.5,319.5 180.5,319.5 181.5,319.5C 181.912,315.346 182.912,311.346 184.5,307.5C 181.675,307.081 179.509,308.081 178,310.5C 177.502,313.482 177.335,316.482 177.5,319.5C 176.167,319.5 174.833,319.5 173.5,319.5C 172.815,327.712 170.315,335.379 166,342.5C 165.831,356.339 165.331,370.006 164.5,383.5C 164.833,367.486 164.499,351.486 163.5,335.5C 162.832,338.306 162.166,340.972 161.5,343.5C 161.098,340.523 160.098,337.857 158.5,335.5C 158.82,332.102 158.487,328.768 157.5,325.5C 156.914,325.709 156.414,326.043 156,326.5C 155.722,325.584 155.222,324.918 154.5,324.5C 154.5,322.833 154.5,321.167 154.5,319.5C 154.667,298.164 154.5,276.831 154,255.5C 153.541,247.376 152.374,239.376 150.5,231.5C 149.998,218 149.331,204.666 148.5,191.5C 148.5,180.833 148.5,170.167 148.5,159.5C 150.288,159.785 151.955,159.452 153.5,158.5C 152.141,156.694 152.475,155.194 154.5,154C 241.668,153.833 328.668,153.333 415.5,152.5 Z"/></g>
<g><path style="opacity:1" fill="#f1622d" d="M 405.5,175.5 C 403.752,194.805 402.418,214.138 401.5,233.5C 399.42,242.6 398.087,251.934 397.5,261.5C 396.178,258.232 395.511,254.565 395.5,250.5C 395.93,238.727 397.263,227.06 399.5,215.5C 399.32,212.044 398.653,208.711 397.5,205.5C 401.002,199.912 401.502,193.912 399,187.5C 398.5,187 398,186.5 397.5,186C 399.291,183.894 399.958,181.394 399.5,178.5C 397.354,178.122 395.187,177.788 393,177.5C 387.204,179.155 381.371,180.489 375.5,181.5C 356.833,182.722 338.166,182.722 319.5,181.5C 316.539,179.436 313.372,177.769 310,176.5C 305.609,177.7 301.109,178.534 296.5,179C 296.121,181.188 294.954,183.355 293,185.5C 292.5,192.826 292.334,200.159 292.5,207.5C 290.167,207.5 287.833,207.5 285.5,207.5C 285.5,196.833 285.5,186.167 285.5,175.5C 325.5,175.5 365.5,175.5 405.5,175.5 Z"/></g>
<g><path style="opacity:1" fill="#fbe9d7" d="M 137.5,160.5 C 138.268,161.263 138.768,162.263 139,163.5C 140.328,175.804 141.328,188.138 142,200.5C 142.21,202.058 142.71,203.391 143.5,204.5C 144.372,210.789 144.705,217.122 144.5,223.5C 143.139,220.062 142.139,216.395 141.5,212.5C 139.512,195.222 138.178,177.889 137.5,160.5 Z"/></g>
<g><path style="opacity:1" fill="#ed642c" d="M 377.5,249.5 C 377.5,240.833 377.5,232.167 377.5,223.5C 377.5,219.5 377.5,215.5 377.5,211.5C 316.167,211.5 254.833,211.5 193.5,211.5C 223.662,210.502 253.995,210.169 284.5,210.5C 312.841,210.833 341.175,210.5 369.5,209.5C 369.291,208.914 368.957,208.414 368.5,208C 348.836,207.5 329.169,207.333 309.5,207.5C 309.212,201.771 309.546,196.104 310.5,190.5C 309.687,189.186 308.687,188.019 307.5,187C 311.029,184.52 315.029,183.354 319.5,183.5C 319.5,184.5 319.5,185.5 319.5,186.5C 340.843,186.389 362.176,186.722 383.5,187.5C 383.335,191.182 383.501,194.848 384,198.5C 387.638,202.746 388.305,207.413 386,212.5C 384.667,211.833 383.667,210.833 383,209.5C 382.056,210.263 381.556,211.263 381.5,212.5C 382.225,227.114 382.891,241.448 383.5,255.5C 382.5,255.5 381.5,255.5 380.5,255.5C 380.832,242.816 380.499,230.149 379.5,217.5C 378.833,228.326 378.167,238.992 377.5,249.5 Z"/></g>
<g><path style="opacity:1" fill="#f54524" d="M 422.5,159.5 C 423.828,164.456 424.495,169.789 424.5,175.5C 424.167,180.833 423.833,186.167 423.5,191.5C 422.501,180.854 422.168,170.187 422.5,159.5 Z"/></g>
<g><path style="opacity:1" fill="#cf7e75" d="M 428.5,191.5 C 428.313,196.845 427.98,202.178 427.5,207.5C 427.167,207.5 426.833,207.5 426.5,207.5C 426.255,201.916 426.922,196.583 428.5,191.5 Z"/></g>
<g><path style="opacity:1" fill="#e24d27" d="M 405.5,175.5 C 407.162,177.912 408.162,180.746 408.5,184C 407.541,185.707 406.875,187.541 406.5,189.5C 407.086,195.653 407.753,201.653 408.5,207.5C 409.833,207.5 411.167,207.5 412.5,207.5C 412.681,211.693 414.181,215.359 417,218.5C 417.62,225.868 418.786,232.868 420.5,239.5C 418.425,244.163 418.091,248.997 419.5,254C 417.851,258.957 417.185,264.79 417.5,271.5C 417.5,272.833 417.5,274.167 417.5,275.5C 416.672,281.653 416.172,287.987 416,294.5C 415.23,293.402 414.397,293.402 413.5,294.5C 413.169,286.804 413.503,279.138 414.5,271.5C 415.251,272.376 415.751,273.376 416,274.5C 417.063,262.816 417.23,251.149 416.5,239.5C 415.5,239.5 414.5,239.5 413.5,239.5C 413.896,232.339 413.063,225.339 411,218.5C 408.71,217.59 407.544,218.59 407.5,221.5C 409.194,229.032 410.027,236.699 410,244.5C 410.308,245.308 410.808,245.975 411.5,246.5C 412.499,262.152 412.833,277.819 412.5,293.5C 411.5,293.5 410.5,293.5 409.5,293.5C 409.409,302.226 410.076,310.893 411.5,319.5C 412.167,314.015 412.833,308.681 413.5,303.5C 413.61,314.185 413.277,324.852 412.5,335.5C 410.296,345.892 409.296,356.559 409.5,367.5C 409.064,383.497 408.731,399.497 408.5,415.5C 408.167,415.5 407.833,415.5 407.5,415.5C 406.001,416.678 405.001,418.345 404.5,420.5C 403.833,418.833 403.167,417.167 402.5,415.5C 401.167,422.833 401.167,430.167 402.5,437.5C 403.176,438.602 403.842,439.602 404.5,440.5C 404.5,442.833 404.5,445.167 404.5,447.5C 402.801,447.527 401.467,448.194 400.5,449.5C 400.5,438.167 400.5,426.833 400.5,415.5C 398.167,415.5 395.833,415.5 393.5,415.5C 393.405,413.214 392.738,411.214 391.5,409.5C 390.809,404.07 390.809,398.57 391.5,393C 390.833,392.333 390.167,391.667 389.5,391C 390.127,382.601 390.794,373.934 391.5,365C 390.575,361.548 390.242,358.215 390.5,355C 390.735,354.127 391.069,353.293 391.5,352.5C 394.768,351.513 398.102,351.18 401.5,351.5C 401.172,356.875 401.505,362.208 402.5,367.5C 403.688,361.006 403.688,354.506 402.5,348C 402.809,343.632 403.809,339.466 405.5,335.5C 406.665,326.853 406.832,318.186 406,309.5C 405.667,310.167 405.333,310.833 405,311.5C 403.968,319.463 403.134,327.463 402.5,335.5C 402.167,334.667 401.833,333.833 401.5,333C 400.934,323.195 400.934,313.361 401.5,303.5C 402.5,303.5 403.5,303.5 404.5,303.5C 404.582,288.137 403.915,272.804 402.5,257.5C 402.525,252.451 402.858,247.451 403.5,242.5C 401.87,239.724 401.203,236.724 401.5,233.5C 402.418,214.138 403.752,194.805 405.5,175.5 Z"/></g>
<g><path style="opacity:1" fill="#d84f34" d="M 424.5,207.5 C 422.158,228.67 420.825,250.003 420.5,271.5C 419.5,271.5 418.5,271.5 417.5,271.5C 417.185,264.79 417.851,258.957 419.5,254C 418.091,248.997 418.425,244.163 420.5,239.5C 420.5,231.5 420.5,223.5 420.5,215.5C 421.473,213.052 421.806,210.385 421.5,207.5C 422.5,207.5 423.5,207.5 424.5,207.5 Z"/></g>
<g><path style="opacity:1" fill="#bc6c59" d="M 142.5,191.5 C 143.787,192.871 144.453,194.705 144.5,197C 145.325,205.815 145.658,214.648 145.5,223.5C 145.167,223.5 144.833,223.5 144.5,223.5C 144.705,217.122 144.372,210.789 143.5,204.5C 143.261,200.158 142.927,195.824 142.5,191.5 Z"/></g>
<g><path style="opacity:1" fill="#ec4826" d="M 420.5,215.5 C 420.5,223.5 420.5,231.5 420.5,239.5C 418.786,232.868 417.62,225.868 417,218.5C 414.181,215.359 412.681,211.693 412.5,207.5C 411.167,207.5 409.833,207.5 408.5,207.5C 409.613,191.493 409.613,175.493 408.5,159.5C 409.833,159.5 411.167,159.5 412.5,159.5C 412.228,175.528 412.561,191.528 413.5,207.5C 414.5,207.5 415.5,207.5 416.5,207.5C 417.55,206.308 418.05,202.975 418,197.5C 419.549,203.409 420.382,209.409 420.5,215.5 Z"/></g>
<g><path style="opacity:1" fill="#e29673" d="M 193.5,212.5 C 193.5,212.167 193.5,211.833 193.5,211.5C 254.833,211.5 316.167,211.5 377.5,211.5C 377.5,215.5 377.5,219.5 377.5,223.5C 377.167,223.5 376.833,223.5 376.5,223.5C 376.5,220.167 376.5,216.833 376.5,213.5C 315.669,212.501 254.669,212.168 193.5,212.5 Z"/></g>
<g><path style="opacity:1" fill="#fed9c7" d="M 193.5,212.5 C 254.669,212.168 315.669,212.501 376.5,213.5C 345.833,213.5 315.167,213.5 284.5,213.5C 254.5,213.5 224.5,213.5 194.5,213.5C 194.5,216.833 194.5,220.167 194.5,223.5C 193.518,220.038 193.185,216.371 193.5,212.5 Z"/></g>
<g><path style="opacity:1" fill="#fdfdfc" d="M 284.5,214.5 C 284.5,214.167 284.5,213.833 284.5,213.5C 315.167,213.5 345.833,213.5 376.5,213.5C 376.5,216.833 376.5,220.167 376.5,223.5C 375.974,227.605 374.808,231.605 373,235.5C 372.501,239.486 372.334,243.486 372.5,247.5C 343.456,247.817 314.456,247.484 285.5,246.5C 285.539,245.417 285.873,244.417 286.5,243.5C 285.857,233.705 285.19,224.038 284.5,214.5 Z"/></g>
<g><path style="opacity:1" fill="#fbe8d5" d="M 431.5,151.5 C 432.165,154.482 432.498,157.648 432.5,161C 432.288,167.887 431.622,174.721 430.5,181.5C 430.461,197.18 429.961,212.847 429,228.5C 426.427,239.645 425.26,250.979 425.5,262.5C 424.883,262.389 424.383,262.056 424,261.5C 423.768,262.737 423.268,263.737 422.5,264.5C 422.5,261.5 422.5,258.5 422.5,255.5C 423.806,250.384 424.473,245.051 424.5,239.5C 424.833,234.167 425.167,228.833 425.5,223.5C 426.957,218.402 427.624,213.069 427.5,207.5C 427.98,202.178 428.313,196.845 428.5,191.5C 429.689,178.184 430.689,164.851 431.5,151.5 Z"/></g>
<g><path style="opacity:1" fill="#d5aa93" d="M 426.5,207.5 C 426.833,207.5 427.167,207.5 427.5,207.5C 427.624,213.069 426.957,218.402 425.5,223.5C 425.569,218.146 425.902,212.813 426.5,207.5 Z"/></g>
<g><path style="opacity:1" fill="#e3eeec" d="M 203.5,214.5 C 204.055,220.154 204.555,225.82 205,231.5C 205.333,231.833 205.667,232.167 206,232.5C 206.333,228.5 206.667,224.5 207,220.5C 208.744,226.682 209.91,233.015 210.5,239.5C 209.167,239.5 207.833,239.5 206.5,239.5C 206.063,252.837 205.896,266.171 206,279.5C 206.333,279.167 206.667,278.833 207,278.5C 213.583,284.081 214.25,290.414 209,297.5C 208.667,302.833 208.333,308.167 208,313.5C 207.722,314.416 207.222,315.082 206.5,315.5C 205.815,304.517 205.315,293.517 205,282.5C 203.595,281.269 202.429,279.936 201.5,278.5C 201.5,273.833 201.5,269.167 201.5,264.5C 200.848,247.466 201.515,230.8 203.5,214.5 Z"/></g>
<g><path style="opacity:1" fill="#d15234" d="M 192.5,212.5 C 192.5,221.5 192.5,230.5 192.5,239.5C 191.5,239.5 190.5,239.5 189.5,239.5C 189.334,230.827 189.5,222.16 190,213.5C 190.671,212.748 191.504,212.414 192.5,212.5 Z"/></g>
<g><path style="opacity:1" fill="#f5e5df" d="M 284.5,213.5 C 284.5,213.833 284.5,214.167 284.5,214.5C 257.5,214.5 230.5,214.5 203.5,214.5C 201.515,230.8 200.848,247.466 201.5,264.5C 199.529,263.351 198.196,261.351 197.5,258.5C 197.5,257.5 197.5,256.5 197.5,255.5C 197.666,247.826 197.5,240.159 197,232.5C 197.07,229.008 196.237,226.008 194.5,223.5C 194.5,220.167 194.5,216.833 194.5,213.5C 224.5,213.5 254.5,213.5 284.5,213.5 Z"/></g>
<g><path style="opacity:1" fill="#ec4a23" d="M 413.5,294.5 C 413.5,297.5 413.5,300.5 413.5,303.5C 412.833,308.681 412.167,314.015 411.5,319.5C 410.076,310.893 409.409,302.226 409.5,293.5C 410.5,293.5 411.5,293.5 412.5,293.5C 412.833,277.819 412.499,262.152 411.5,246.5C 410.808,245.975 410.308,245.308 410,244.5C 410.027,236.699 409.194,229.032 407.5,221.5C 407.544,218.59 408.71,217.59 411,218.5C 413.063,225.339 413.896,232.339 413.5,239.5C 414.5,239.5 415.5,239.5 416.5,239.5C 417.23,251.149 417.063,262.816 416,274.5C 415.751,273.376 415.251,272.376 414.5,271.5C 413.503,279.138 413.169,286.804 413.5,294.5 Z"/></g>
<g><path style="opacity:1" fill="#fccbc3" d="M 194.5,223.5 C 196.237,226.008 197.07,229.008 197,232.5C 197.5,240.159 197.666,247.826 197.5,255.5C 197.167,255.5 196.833,255.5 196.5,255.5C 196.5,253.5 196.5,251.5 196.5,249.5C 195.613,240.854 194.946,232.187 194.5,223.5 Z"/></g>
<g><path style="opacity:1" fill="#fbfaf0" d="M 137.5,151.5 C 137.5,154.5 137.5,157.5 137.5,160.5C 138.178,177.889 139.512,195.222 141.5,212.5C 142.139,216.395 143.139,220.062 144.5,223.5C 144.639,237.172 144.972,250.839 145.5,264.5C 146.5,264.5 147.5,264.5 148.5,264.5C 148.334,270.842 148.5,277.175 149,283.5C 149.21,285.058 149.71,286.391 150.5,287.5C 150.156,293.098 150.822,298.432 152.5,303.5C 152.194,306.385 152.527,309.052 153.5,311.5C 153.5,314.167 153.5,316.833 153.5,319.5C 153.334,328.839 153.5,338.173 154,347.5C 154.24,349.852 155.073,351.852 156.5,353.5C 156.5,354.167 156.5,354.833 156.5,355.5C 156.414,366.858 156.914,378.191 158,389.5C 158.535,393.038 159.368,396.372 160.5,399.5C 160.905,417.165 161.238,434.832 161.5,452.5C 159.611,429.664 157.945,406.664 156.5,383.5C 155.5,383.5 154.5,383.5 153.5,383.5C 152.375,378.395 152.375,373.395 153.5,368.5C 152.894,366.291 152.227,364.124 151.5,362C 152.523,344.591 152.523,327.091 151.5,309.5C 149.5,309.167 147.5,308.833 145.5,308.5C 145.02,294.798 144.187,281.131 143,267.5C 142.667,268.833 142.333,270.167 142,271.5C 141.19,264.918 141.357,258.418 142.5,252C 141.038,244.269 140.038,236.436 139.5,228.5C 139.608,227.558 139.941,226.725 140.5,226C 139.056,224.874 138.39,223.374 138.5,221.5C 139.33,213.123 138.83,204.79 137,196.5C 137.138,183.755 136.304,171.255 134.5,159C 135.022,158.439 135.355,157.772 135.5,157C 133.424,155.756 132.424,153.923 132.5,151.5C 134.167,151.5 135.833,151.5 137.5,151.5 Z"/></g>
<g><path style="opacity:1" fill="#f16428" d="M 397.5,261.5 C 397.049,268.332 396.383,274.998 395.5,281.5C 395.66,279.801 395.494,278.134 395,276.5C 392.03,280.142 389.03,283.809 386,287.5C 385.812,298.546 385.312,309.546 384.5,320.5C 385.212,328.76 385.546,336.926 385.5,345C 385.167,347.167 384.833,349.333 384.5,351.5C 383.679,348.553 383.179,345.553 383,342.5C 382.769,353.936 382.936,365.27 383.5,376.5C 383.54,380.95 382.873,385.284 381.5,389.5C 382.899,395.783 383.399,402.116 383,408.5C 381.333,409.833 379.667,409.833 378,408.5C 377.026,410.878 376.359,410.544 376,407.5C 373.695,405.07 370.862,404.07 367.5,404.5C 368.29,397.529 368.623,390.529 368.5,383.5C 369.833,383.5 371.167,383.5 372.5,383.5C 372.5,378.167 372.5,372.833 372.5,367.5C 371.5,367.5 370.5,367.5 369.5,367.5C 368.857,356.655 369.857,345.989 372.5,335.5C 373.333,322.175 374,308.841 374.5,295.5C 374.68,292.044 375.347,288.711 376.5,285.5C 375.74,283.563 374.74,281.73 373.5,280C 379.89,280.12 381.223,277.62 377.5,272.5C 378.629,264.862 378.629,257.196 377.5,249.5C 378.167,238.992 378.833,228.326 379.5,217.5C 380.499,230.149 380.832,242.816 380.5,255.5C 381.5,255.5 382.5,255.5 383.5,255.5C 382.891,241.448 382.225,227.114 381.5,212.5C 381.556,211.263 382.056,210.263 383,209.5C 383.667,210.833 384.667,211.833 386,212.5C 388.305,207.413 387.638,202.746 384,198.5C 383.501,194.848 383.335,191.182 383.5,187.5C 362.176,186.722 340.843,186.389 319.5,186.5C 319.5,185.5 319.5,184.5 319.5,183.5C 315.029,183.354 311.029,184.52 307.5,187C 308.687,188.019 309.687,189.186 310.5,190.5C 309.546,196.104 309.212,201.771 309.5,207.5C 329.169,207.333 348.836,207.5 368.5,208C 368.957,208.414 369.291,208.914 369.5,209.5C 341.175,210.5 312.841,210.833 284.5,210.5C 284.263,209.209 284.596,208.209 285.5,207.5C 287.833,207.5 290.167,207.5 292.5,207.5C 292.334,200.159 292.5,192.826 293,185.5C 294.954,183.355 296.121,181.188 296.5,179C 301.109,178.534 305.609,177.7 310,176.5C 313.372,177.769 316.539,179.436 319.5,181.5C 338.166,182.722 356.833,182.722 375.5,181.5C 381.371,180.489 387.204,179.155 393,177.5C 395.187,177.788 397.354,178.122 399.5,178.5C 399.958,181.394 399.291,183.894 397.5,186C 398,186.5 398.5,187 399,187.5C 401.502,193.912 401.002,199.912 397.5,205.5C 398.653,208.711 399.32,212.044 399.5,215.5C 397.263,227.06 395.93,238.727 395.5,250.5C 395.511,254.565 396.178,258.232 397.5,261.5 Z"/></g>
<g><path style="opacity:1" fill="#c26d58" d="M 192.5,212.5 C 192.833,212.5 193.167,212.5 193.5,212.5C 193.185,216.371 193.518,220.038 194.5,223.5C 194.946,232.187 195.613,240.854 196.5,249.5C 195.288,246.22 194.288,242.887 193.5,239.5C 193.167,239.5 192.833,239.5 192.5,239.5C 192.5,230.5 192.5,221.5 192.5,212.5 Z"/></g>
<g><path style="opacity:1" fill="#d99479" d="M 376.5,223.5 C 376.833,223.5 377.167,223.5 377.5,223.5C 377.5,232.167 377.5,240.833 377.5,249.5C 376.167,249.5 374.833,249.5 373.5,249.5C 326.833,249.5 280.167,249.5 233.5,249.5C 233.5,249.167 233.5,248.833 233.5,248.5C 280.5,248.5 327.5,248.5 374.5,248.5C 375.167,240.167 375.833,231.833 376.5,223.5 Z"/></g>
<g><path style="opacity:1" fill="#e14d2e" d="M 145.5,183.5 C 146.326,188.316 146.826,193.316 147,198.5C 147.662,196.187 148.162,193.854 148.5,191.5C 149.331,204.666 149.998,218 150.5,231.5C 152.374,239.376 153.541,247.376 154,255.5C 154.5,276.831 154.667,298.164 154.5,319.5C 154.167,319.5 153.833,319.5 153.5,319.5C 153.5,316.833 153.5,314.167 153.5,311.5C 153.5,305.167 153.5,298.833 153.5,292.5C 153.5,285.5 153.5,278.5 153.5,271.5C 152.5,271.5 151.5,271.5 150.5,271.5C 150.821,265.974 150.488,260.64 149.5,255.5C 149.5,252.833 149.5,250.167 149.5,247.5C 149.438,225.941 148.104,204.608 145.5,183.5 Z"/></g>
<g><path style="opacity:1" fill="#fbeadc" d="M 376.5,223.5 C 375.833,231.833 375.167,240.167 374.5,248.5C 327.5,248.5 280.5,248.5 233.5,248.5C 234.616,246.492 236.449,245.492 239,245.5C 254.475,246.462 269.975,246.795 285.5,246.5C 314.456,247.484 343.456,247.817 372.5,247.5C 372.334,243.486 372.501,239.486 373,235.5C 374.808,231.605 375.974,227.605 376.5,223.5 Z"/></g>
<g><path style="opacity:1" fill="#ce674a" d="M 233.5,249.5 C 280.167,249.5 326.833,249.5 373.5,249.5C 345.005,250.498 316.338,250.831 287.5,250.5C 269.833,250.5 252.167,250.5 234.5,250.5C 234.5,252.167 234.5,253.833 234.5,255.5C 234.167,255.5 233.833,255.5 233.5,255.5C 233.5,253.5 233.5,251.5 233.5,249.5 Z"/></g>
<g><path style="opacity:1" fill="#cb5747" d="M 193.5,239.5 C 194.288,242.887 195.288,246.22 196.5,249.5C 196.5,251.5 196.5,253.5 196.5,255.5C 195.5,255.5 194.5,255.5 193.5,255.5C 193.5,250.167 193.5,244.833 193.5,239.5 Z"/></g>
<g><path style="opacity:1" fill="#d1937e" d="M 424.5,239.5 C 424.473,245.051 423.806,250.384 422.5,255.5C 422.156,249.902 422.822,244.568 424.5,239.5 Z"/></g>
<g><path style="opacity:1" fill="#c06a4e" d="M 145.5,228.5 C 147.666,234.665 148.999,240.998 149.5,247.5C 149.5,250.167 149.5,252.833 149.5,255.5C 149.5,258.5 149.5,261.5 149.5,264.5C 149.167,264.5 148.833,264.5 148.5,264.5C 148.5,262.833 148.5,261.167 148.5,259.5C 148.844,253.902 148.178,248.568 146.5,243.5C 145.746,238.537 145.413,233.537 145.5,228.5 Z"/></g>
<g><path style="opacity:1" fill="#e44d26" d="M 285.5,251.5 C 285.379,262.348 285.379,273.682 285.5,285.5C 270.83,285.667 256.163,285.5 241.5,285C 240.263,284.768 239.263,284.268 238.5,283.5C 238.5,272.833 238.5,262.167 238.5,251.5C 239.833,251.5 241.167,251.5 242.5,251.5C 242.5,252.833 242.5,254.167 242.5,255.5C 243.5,255.5 244.5,255.5 245.5,255.5C 245.5,254.167 245.5,252.833 245.5,251.5C 258.833,251.5 272.167,251.5 285.5,251.5 Z"/></g>
<g><path style="opacity:1" fill="#fce4cf" d="M 144.5,223.5 C 144.833,223.5 145.167,223.5 145.5,223.5C 145.5,225.167 145.5,226.833 145.5,228.5C 145.413,233.537 145.746,238.537 146.5,243.5C 146.376,249.069 147.043,254.402 148.5,259.5C 148.5,261.167 148.5,262.833 148.5,264.5C 147.5,264.5 146.5,264.5 145.5,264.5C 144.972,250.839 144.639,237.172 144.5,223.5 Z"/></g>
<g><path style="opacity:1" fill="#d9a68e" d="M 146.5,243.5 C 148.178,248.568 148.844,253.902 148.5,259.5C 147.043,254.402 146.376,249.069 146.5,243.5 Z"/></g>
<g><path style="opacity:1" fill="#d34f31" d="M 287.5,250.5 C 287.158,251.338 286.492,251.672 285.5,251.5C 272.167,251.5 258.833,251.5 245.5,251.5C 245.5,252.833 245.5,254.167 245.5,255.5C 244.5,255.5 243.5,255.5 242.5,255.5C 242.5,254.167 242.5,252.833 242.5,251.5C 241.167,251.5 239.833,251.5 238.5,251.5C 238.5,262.167 238.5,272.833 238.5,283.5C 237.506,274.348 237.173,265.015 237.5,255.5C 236.5,255.5 235.5,255.5 234.5,255.5C 234.5,253.833 234.5,252.167 234.5,250.5C 252.167,250.5 269.833,250.5 287.5,250.5 Z"/></g>
<g><path style="opacity:1" fill="#fae3d9" d="M 233.5,248.5 C 233.5,248.833 233.5,249.167 233.5,249.5C 233.5,251.5 233.5,253.5 233.5,255.5C 233.963,264.831 234.463,274.164 235,283.5C 235.232,284.737 235.732,285.737 236.5,286.5C 236.833,286.5 237.167,286.5 237.5,286.5C 237.5,286.833 237.5,287.167 237.5,287.5C 236.167,287.5 234.833,287.5 233.5,287.5C 233.5,282.167 233.5,276.833 233.5,271.5C 232.167,271.5 230.833,271.5 229.5,271.5C 229.5,264.167 229.5,256.833 229.5,249.5C 230.959,249.567 232.292,249.234 233.5,248.5 Z"/></g>
<g><path style="opacity:1" fill="#c16142" d="M 234.5,255.5 C 235.5,255.5 236.5,255.5 237.5,255.5C 237.173,265.015 237.506,274.348 238.5,283.5C 239.263,284.268 240.263,284.768 241.5,285C 256.163,285.5 270.83,285.667 285.5,285.5C 313.005,285.169 340.338,285.502 367.5,286.5C 324.167,286.5 280.833,286.5 237.5,286.5C 237.167,286.5 236.833,286.5 236.5,286.5C 235.745,276.174 235.078,265.84 234.5,255.5 Z"/></g>
<g><path style="opacity:1" fill="#d25246" d="M 149.5,255.5 C 150.488,260.64 150.821,265.974 150.5,271.5C 151.5,271.5 152.5,271.5 153.5,271.5C 153.5,278.5 153.5,285.5 153.5,292.5C 152.833,290.833 152.167,289.167 151.5,287.5C 151.167,287.5 150.833,287.5 150.5,287.5C 150.222,279.83 149.889,272.164 149.5,264.5C 149.5,261.5 149.5,258.5 149.5,255.5 Z"/></g>
<g><path style="opacity:1" fill="#f7c0aa" d="M 233.5,255.5 C 233.833,255.5 234.167,255.5 234.5,255.5C 235.078,265.84 235.745,276.174 236.5,286.5C 235.732,285.737 235.232,284.737 235,283.5C 234.463,274.164 233.963,264.831 233.5,255.5 Z"/></g>
<g><path style="opacity:1" fill="#fbf6e8" d="M 425.5,262.5 C 425.5,263.833 425.5,265.167 425.5,266.5C 425.579,276.18 425.245,285.847 424.5,295.5C 422.455,317.271 420.455,338.938 418.5,360.5C 418.981,364.531 419.647,368.531 420.5,372.5C 419.613,376.15 418.947,379.817 418.5,383.5C 416.833,383.5 415.167,383.5 413.5,383.5C 414.068,374.177 414.401,364.844 414.5,355.5C 415.034,346.157 415.701,336.823 416.5,327.5C 417.557,319.681 418.224,311.681 418.5,303.5C 419.957,298.402 420.624,293.069 420.5,287.5C 420.961,279.766 421.628,272.099 422.5,264.5C 423.268,263.737 423.768,262.737 424,261.5C 424.383,262.056 424.883,262.389 425.5,262.5 Z"/></g>
<g><path style="opacity:1" fill="#fbc5af" d="M 148.5,264.5 C 148.833,264.5 149.167,264.5 149.5,264.5C 149.889,272.164 150.222,279.83 150.5,287.5C 149.71,286.391 149.21,285.058 149,283.5C 148.5,277.175 148.334,270.842 148.5,264.5 Z"/></g>
<g><path style="opacity:1" fill="#c0745d" d="M 197.5,264.5 C 198.968,274.978 199.968,285.644 200.5,296.5C 198.909,292.796 198.076,288.796 198,284.5C 197.5,277.842 197.334,271.175 197.5,264.5 Z"/></g>
<g><path style="opacity:1" fill="#fdb999" d="M 237.5,287.5 C 237.5,287.167 237.5,286.833 237.5,286.5C 280.833,286.5 324.167,286.5 367.5,286.5C 368.791,286.263 369.791,286.596 370.5,287.5C 370.806,290.385 370.473,293.052 369.5,295.5C 369.5,292.833 369.5,290.167 369.5,287.5C 368.167,287.5 366.833,287.5 365.5,287.5C 338.833,287.5 312.167,287.5 285.5,287.5C 269.5,287.5 253.5,287.5 237.5,287.5 Z"/></g>
<g><path style="opacity:1" fill="#e04d2e" d="M 189.5,239.5 C 190.5,239.5 191.5,239.5 192.5,239.5C 192.833,239.5 193.167,239.5 193.5,239.5C 193.5,244.833 193.5,250.167 193.5,255.5C 194.5,255.5 195.5,255.5 196.5,255.5C 196.516,276.84 196.849,298.173 197.5,319.5C 196.67,311.651 195.837,303.651 195,295.5C 193.908,298.044 193.241,300.711 193,303.5C 192.5,287.503 192.333,271.503 192.5,255.5C 191.5,255.5 190.5,255.5 189.5,255.5C 189.5,250.167 189.5,244.833 189.5,239.5 Z"/></g>
<g><path style="opacity:1" fill="#ebeaea" d="M 203.5,214.5 C 230.5,214.5 257.5,214.5 284.5,214.5C 285.19,224.038 285.857,233.705 286.5,243.5C 285.873,244.417 285.539,245.417 285.5,246.5C 269.975,246.795 254.475,246.462 239,245.5C 236.449,245.492 234.616,246.492 233.5,248.5C 232.292,249.234 230.959,249.567 229.5,249.5C 229.5,256.833 229.5,264.167 229.5,271.5C 230.833,271.5 232.167,271.5 233.5,271.5C 233.5,276.833 233.5,282.167 233.5,287.5C 234.833,287.5 236.167,287.5 237.5,287.5C 253.5,287.5 269.5,287.5 285.5,287.5C 285.18,298.415 285.513,309.248 286.5,320C 285.584,320.278 284.918,320.778 284.5,321.5C 258.158,321.833 231.825,321.5 205.5,320.5C 206.309,318.929 206.643,317.262 206.5,315.5C 207.222,315.082 207.722,314.416 208,313.5C 208.333,308.167 208.667,302.833 209,297.5C 214.25,290.414 213.583,284.081 207,278.5C 206.667,278.833 206.333,279.167 206,279.5C 205.896,266.171 206.063,252.837 206.5,239.5C 207.833,239.5 209.167,239.5 210.5,239.5C 209.91,233.015 208.744,226.682 207,220.5C 206.667,224.5 206.333,228.5 206,232.5C 205.667,232.167 205.333,231.833 205,231.5C 204.555,225.82 204.055,220.154 203.5,214.5 Z"/></g>
<g><path style="opacity:1" fill="#c8604c" d="M 427.5,151.5 C 428.833,151.5 430.167,151.5 431.5,151.5C 430.689,164.851 429.689,178.184 428.5,191.5C 426.922,196.583 426.255,201.916 426.5,207.5C 425.902,212.813 425.569,218.146 425.5,223.5C 425.167,228.833 424.833,234.167 424.5,239.5C 422.822,244.568 422.156,249.902 422.5,255.5C 422.5,258.5 422.5,261.5 422.5,264.5C 421.628,272.099 420.961,279.766 420.5,287.5C 419.194,292.616 418.527,297.949 418.5,303.5C 417.833,306.167 417.167,308.833 416.5,311.5C 417.123,299.51 417.456,287.51 417.5,275.5C 417.5,274.167 417.5,272.833 417.5,271.5C 418.5,271.5 419.5,271.5 420.5,271.5C 420.825,250.003 422.158,228.67 424.5,207.5C 425.494,197.013 425.828,186.346 425.5,175.5C 426.5,175.5 427.5,175.5 428.5,175.5C 428.54,167.813 428.207,160.146 427.5,152.5C 427.5,152.167 427.5,151.833 427.5,151.5 Z"/></g>
<g><path style="opacity:1" fill="#fcfdfc" d="M 285.5,287.5 C 312.167,287.5 338.833,287.5 365.5,287.5C 365.002,304.895 363.669,322.229 361.5,339.5C 361.506,344.573 362.339,344.573 364,339.5C 364.494,341.134 364.66,342.801 364.5,344.5C 364.5,346.833 364.5,349.167 364.5,351.5C 361.667,356.399 359.667,361.732 358.5,367.5C 357.668,376.816 357.168,386.149 357,395.5C 356.781,396.938 356.281,398.271 355.5,399.5C 347.862,400.747 340.362,402.414 333,404.5C 328.431,406.836 323.931,408.836 319.5,410.5C 314.586,410.569 309.752,411.236 305,412.5C 302.566,411.678 300.066,411.344 297.5,411.5C 297.439,413.592 296.439,415.092 294.5,416C 291.582,417.15 288.582,417.983 285.5,418.5C 285.5,406.833 285.5,395.167 285.5,383.5C 288.431,382.993 291.098,381.993 293.5,380.5C 301.488,380.273 308.821,378.273 315.5,374.5C 317.869,374.851 320.203,375.018 322.5,375C 324.376,373.625 326.376,372.458 328.5,371.5C 329.246,370.264 329.579,368.93 329.5,367.5C 330.166,364.311 330.833,360.977 331.5,357.5C 331.307,358.688 331.807,360.022 333,361.5C 333.265,349.783 333.431,338.116 333.5,326.5C 332.5,326.5 331.5,326.5 330.5,326.5C 330.5,325.5 330.5,324.5 330.5,323.5C 325.025,322.511 319.358,322.178 313.5,322.5C 304.014,321.506 294.348,321.173 284.5,321.5C 284.918,320.778 285.584,320.278 286.5,320C 285.513,309.248 285.18,298.415 285.5,287.5 Z"/></g>
<g><path style="opacity:1" fill="#fbdac3" d="M 197.5,258.5 C 198.196,261.351 199.529,263.351 201.5,264.5C 201.5,269.167 201.5,273.833 201.5,278.5C 201.916,288.497 202.25,298.497 202.5,308.5C 201.833,304.833 201.167,301.167 200.5,297.5C 200.5,297.167 200.5,296.833 200.5,296.5C 199.968,285.644 198.968,274.978 197.5,264.5C 197.5,262.5 197.5,260.5 197.5,258.5 Z"/></g>
<g><path style="opacity:1" fill="#d9a499" d="M 150.5,287.5 C 150.833,287.5 151.167,287.5 151.5,287.5C 151.833,292.833 152.167,298.167 152.5,303.5C 150.822,298.432 150.156,293.098 150.5,287.5 Z"/></g>
<g><path style="opacity:1" fill="#b96858" d="M 151.5,287.5 C 152.167,289.167 152.833,290.833 153.5,292.5C 153.5,298.833 153.5,305.167 153.5,311.5C 152.527,309.052 152.194,306.385 152.5,303.5C 152.167,298.167 151.833,292.833 151.5,287.5 Z"/></g>
<g><path style="opacity:1" fill="#e4b0a0" d="M 420.5,287.5 C 420.624,293.069 419.957,298.402 418.5,303.5C 418.527,297.949 419.194,292.616 420.5,287.5 Z"/></g>
<g><path style="opacity:1" fill="#f7e9dc" d="M 201.5,278.5 C 202.429,279.936 203.595,281.269 205,282.5C 205.315,293.517 205.815,304.517 206.5,315.5C 206.643,317.262 206.309,318.929 205.5,320.5C 231.825,321.5 258.158,321.833 284.5,321.5C 294.348,321.173 304.014,321.506 313.5,322.5C 276.279,323.151 239.279,322.484 202.5,320.5C 202.5,316.5 202.5,312.5 202.5,308.5C 202.25,298.497 201.916,288.497 201.5,278.5 Z"/></g>
<g><path style="opacity:1" fill="#cf553b" d="M 196.5,255.5 C 196.833,255.5 197.167,255.5 197.5,255.5C 197.5,256.5 197.5,257.5 197.5,258.5C 197.5,260.5 197.5,262.5 197.5,264.5C 197.334,271.175 197.5,277.842 198,284.5C 198.076,288.796 198.909,292.796 200.5,296.5C 200.5,296.833 200.5,297.167 200.5,297.5C 200.197,306.251 200.53,314.918 201.5,323.5C 198.5,323.833 197.167,322.5 197.5,319.5C 196.849,298.173 196.516,276.84 196.5,255.5 Z"/></g>
<g><path style="opacity:1" fill="#f7d5c0" d="M 368.5,308.5 C 368.164,317.527 367.497,326.527 366.5,335.5C 366.806,338.385 366.473,341.052 365.5,343.5C 366.037,334.471 366.037,325.471 365.5,316.5C 366.508,313.777 367.508,311.11 368.5,308.5 Z"/></g>
<g><path style="opacity:1" fill="#de6c47" d="M 370.5,287.5 C 371.5,287.5 372.5,287.5 373.5,287.5C 373.04,300.173 372.373,312.84 371.5,325.5C 370.817,325.863 370.15,326.196 369.5,326.5C 369.5,318.833 369.5,311.167 369.5,303.5C 369.5,300.833 369.5,298.167 369.5,295.5C 370.473,293.052 370.806,290.385 370.5,287.5 Z"/></g>
<g><path style="opacity:1" fill="#cc7058" d="M 200.5,297.5 C 201.167,301.167 201.833,304.833 202.5,308.5C 202.5,312.5 202.5,316.5 202.5,320.5C 202.5,321.5 202.5,322.5 202.5,323.5C 202.167,323.5 201.833,323.5 201.5,323.5C 200.53,314.918 200.197,306.251 200.5,297.5 Z"/></g>
<g><path style="opacity:1" fill="#d48d77" d="M 418.5,303.5 C 418.224,311.681 417.557,319.681 416.5,327.5C 416.5,322.167 416.5,316.833 416.5,311.5C 417.167,308.833 417.833,306.167 418.5,303.5 Z"/></g>
<g><path style="opacity:1" fill="#f9d3be" d="M 202.5,320.5 C 239.279,322.484 276.279,323.151 313.5,322.5C 319.358,322.178 325.025,322.511 330.5,323.5C 287.833,323.5 245.167,323.5 202.5,323.5C 202.5,322.5 202.5,321.5 202.5,320.5 Z"/></g>
<g><path style="opacity:1" fill="#d8876b" d="M 202.5,324.5 C 202.5,324.167 202.5,323.833 202.5,323.5C 245.167,323.5 287.833,323.5 330.5,323.5C 330.5,324.5 330.5,325.5 330.5,326.5C 330.5,326.833 330.5,327.167 330.5,327.5C 330.167,327.5 329.833,327.5 329.5,327.5C 329.5,326.5 329.5,325.5 329.5,324.5C 287.167,324.5 244.833,324.5 202.5,324.5 Z"/></g>
<g><path style="opacity:1" fill="#fdf8e6" d="M 365.5,287.5 C 366.833,287.5 368.167,287.5 369.5,287.5C 369.5,290.167 369.5,292.833 369.5,295.5C 369.5,298.167 369.5,300.833 369.5,303.5C 368.549,304.919 368.216,306.585 368.5,308.5C 367.508,311.11 366.508,313.777 365.5,316.5C 366.037,325.471 366.037,334.471 365.5,343.5C 365.5,343.833 365.5,344.167 365.5,344.5C 365.167,344.5 364.833,344.5 364.5,344.5C 364.66,342.801 364.494,341.134 364,339.5C 362.339,344.573 361.506,344.573 361.5,339.5C 363.669,322.229 365.002,304.895 365.5,287.5 Z"/></g>
<g><path style="opacity:1" fill="#cf8e6f" d="M 369.5,303.5 C 369.5,311.167 369.5,318.833 369.5,326.5C 369.5,326.833 369.5,327.167 369.5,327.5C 368.251,330.087 367.251,332.754 366.5,335.5C 367.497,326.527 368.164,317.527 368.5,308.5C 368.216,306.585 368.549,304.919 369.5,303.5 Z"/></g>
<g><path style="opacity:1" fill="#f1642a" d="M 284.5,325.5 C 298.167,325.5 311.833,325.5 325.5,325.5C 324.954,339.494 324.62,353.494 324.5,367.5C 323.655,368.671 322.989,370.005 322.5,371.5C 321.791,372.404 320.791,372.737 319.5,372.5C 314.195,373.194 308.862,373.528 303.5,373.5C 303.5,374.833 303.5,376.167 303.5,377.5C 301.139,377.674 298.806,378.007 296.5,378.5C 292.779,378.911 289.112,379.578 285.5,380.5C 285.174,362.59 285.508,344.757 286.5,327C 285.584,326.722 284.918,326.222 284.5,325.5 Z"/></g>
<g><path style="opacity:1" fill="#dc623b" d="M 202.5,324.5 C 244.833,324.5 287.167,324.5 329.5,324.5C 329.5,325.5 329.5,326.5 329.5,327.5C 329.5,330.167 329.5,332.833 329.5,335.5C 328.043,340.598 327.376,345.931 327.5,351.5C 325.856,356.59 324.856,361.923 324.5,367.5C 324.62,353.494 324.954,339.494 325.5,325.5C 311.833,325.5 298.167,325.5 284.5,325.5C 256.995,325.831 229.662,325.498 202.5,324.5 Z"/></g>
<g><path style="opacity:1" fill="#d15b44" d="M 154.5,324.5 C 155.222,324.918 155.722,325.584 156,326.5C 156.414,326.043 156.914,325.709 157.5,325.5C 158.487,328.768 158.82,332.102 158.5,335.5C 158.5,346.167 158.5,356.833 158.5,367.5C 157.517,363.702 157.183,359.702 157.5,355.5C 157.932,348.576 157.266,341.909 155.5,335.5C 154.518,332.038 154.185,328.371 154.5,324.5 Z"/></g>
<g><path style="opacity:1" fill="#c77a60" d="M 416.5,327.5 C 415.701,336.823 415.034,346.157 414.5,355.5C 414.167,355.5 413.833,355.5 413.5,355.5C 413.334,348.159 413.5,340.826 414,333.5C 414.24,331.148 415.073,329.148 416.5,327.5 Z"/></g>
<g><path style="opacity:1" fill="#d1543c" d="M 417.5,275.5 C 417.456,287.51 417.123,299.51 416.5,311.5C 416.5,316.833 416.5,322.167 416.5,327.5C 415.073,329.148 414.24,331.148 414,333.5C 413.5,340.826 413.334,348.159 413.5,355.5C 413.5,356.5 413.5,357.5 413.5,358.5C 413.167,358.5 412.833,358.5 412.5,358.5C 412.5,350.833 412.5,343.167 412.5,335.5C 413.277,324.852 413.61,314.185 413.5,303.5C 413.5,300.5 413.5,297.5 413.5,294.5C 414.397,293.402 415.23,293.402 416,294.5C 416.172,287.987 416.672,281.653 417.5,275.5 Z"/></g>
<g><path style="opacity:1" fill="#e5947f" d="M 204.5,341.5 C 204.833,341.5 205.167,341.5 205.5,341.5C 217.345,341.172 229.012,341.505 240.5,342.5C 228.833,342.5 217.167,342.5 205.5,342.5C 205.5,345.5 205.5,348.5 205.5,351.5C 204.523,348.713 204.19,345.713 204.5,342.5C 204.5,342.167 204.5,341.833 204.5,341.5 Z"/></g>
<g><path style="opacity:1" fill="#d86e45" d="M 369.5,327.5 C 369.829,334.241 369.329,340.908 368,347.5C 367.667,346.833 367.333,346.167 367,345.5C 366.831,358.34 366.331,371.007 365.5,383.5C 365.5,374.5 365.5,365.5 365.5,356.5C 365.5,352.5 365.5,348.5 365.5,344.5C 365.5,344.167 365.5,343.833 365.5,343.5C 366.473,341.052 366.806,338.385 366.5,335.5C 367.251,332.754 368.251,330.087 369.5,327.5 Z"/></g>
<g><path style="opacity:1" fill="#f7d0b9" d="M 153.5,319.5 C 153.833,319.5 154.167,319.5 154.5,319.5C 154.5,321.167 154.5,322.833 154.5,324.5C 154.185,328.371 154.518,332.038 155.5,335.5C 155.833,341.5 156.167,347.5 156.5,353.5C 155.073,351.852 154.24,349.852 154,347.5C 153.5,338.173 153.334,328.839 153.5,319.5 Z"/></g>
<g><path style="opacity:1" fill="#e9ece8" d="M 241.5,360.5 C 242.089,364.971 241.423,368.971 239.5,372.5C 238.737,371.732 237.737,371.232 236.5,371C 237.337,369.989 237.67,368.822 237.5,367.5C 236.5,367.5 235.5,367.5 234.5,367.5C 234.739,365.533 234.406,363.699 233.5,362C 234.771,359.446 235.438,356.613 235.5,353.5C 235.333,350.833 235.167,348.167 235,345.5C 232.708,344.092 230.541,344.259 228.5,346C 229.48,353.079 229.813,360.245 229.5,367.5C 228.127,367.343 226.793,367.51 225.5,368C 228.869,369.706 231.202,372.373 232.5,376C 230.364,381.81 227.697,381.977 224.5,376.5C 223.224,383.544 222.557,390.544 222.5,397.5C 221.203,384.486 221.203,371.486 222.5,358.5C 222.085,356.091 221.418,353.758 220.5,351.5C 219.833,353.5 219.167,355.5 218.5,357.5C 218.487,353.165 218.154,348.832 217.5,344.5C 215.833,344.5 214.167,344.5 212.5,344.5C 213.398,352.124 213.731,359.791 213.5,367.5C 214.833,367.5 216.167,367.5 217.5,367.5C 217.499,375.512 217.166,383.512 216.5,391.5C 216.478,394.59 215.812,397.257 214.5,399.5C 213.535,389.005 212.869,378.338 212.5,367.5C 211.5,367.5 210.5,367.5 209.5,367.5C 209.5,359.5 209.5,351.5 209.5,343.5C 218.173,343.334 226.84,343.5 235.5,344C 236.938,344.219 238.271,344.719 239.5,345.5C 238.511,346.468 237.844,347.635 237.5,349C 238,351.5 238.5,354 239,356.5C 239.333,356.167 239.667,355.833 240,355.5C 240.198,357.382 240.698,359.048 241.5,360.5 Z"/></g>
<g><path style="opacity:1" fill="#e58b6f" d="M 329.5,335.5 C 329.473,341.051 328.806,346.384 327.5,351.5C 327.376,345.931 328.043,340.598 329.5,335.5 Z"/></g>
<g><path style="opacity:1" fill="#b67757" d="M 155.5,335.5 C 157.266,341.909 157.932,348.576 157.5,355.5C 157.167,355.5 156.833,355.5 156.5,355.5C 156.5,354.833 156.5,354.167 156.5,353.5C 156.167,347.5 155.833,341.5 155.5,335.5 Z"/></g>
<g><path style="opacity:1" fill="#e14e26" d="M 177.5,447.5 C 176.5,447.5 175.5,447.5 174.5,447.5C 173.545,439.186 173.378,430.852 174,422.5C 174.667,421.167 175.333,421.167 176,422.5C 177.147,419.601 177.981,416.601 178.5,413.5C 176.886,408.974 176.219,404.308 176.5,399.5C 175.5,399.5 174.5,399.5 173.5,399.5C 173.5,404.833 173.5,410.167 173.5,415.5C 172.167,415.5 170.833,415.5 169.5,415.5C 168.167,415.5 166.833,415.5 165.5,415.5C 165.167,415.5 164.833,415.5 164.5,415.5C 162.658,405.027 161.992,394.36 162.5,383.5C 163.167,383.5 163.833,383.5 164.5,383.5C 165.331,370.006 165.831,356.339 166,342.5C 170.315,335.379 172.815,327.712 173.5,319.5C 174.833,319.5 176.167,319.5 177.5,319.5C 177.335,316.482 177.502,313.482 178,310.5C 179.509,308.081 181.675,307.081 184.5,307.5C 182.912,311.346 181.912,315.346 181.5,319.5C 180.5,319.5 179.5,319.5 178.5,319.5C 178.399,324.534 180.066,328.867 183.5,332.5C 182.128,334.62 182.795,335.62 185.5,335.5C 184.572,340.799 183.572,346.132 182.5,351.5C 183.5,351.5 184.5,351.5 185.5,351.5C 186.167,362.167 186.833,372.833 187.5,383.5C 186.5,383.5 185.5,383.5 184.5,383.5C 182.617,388.924 181.617,394.591 181.5,400.5C 181.386,403.364 181.886,406.03 183,408.5C 185.251,405.983 186.084,402.983 185.5,399.5C 187.5,399.5 189.5,399.5 191.5,399.5C 191.527,387.594 192.194,387.594 193.5,399.5C 194.5,399.5 195.5,399.5 196.5,399.5C 196.5,402.833 194.833,404.5 191.5,404.5C 191.343,405.873 191.51,407.207 192,408.5C 192.893,407.289 193.726,407.289 194.5,408.5C 192.914,410.67 191.58,413.004 190.5,415.5C 189.833,412.833 189.167,410.167 188.5,407.5C 188.167,407.667 187.833,407.833 187.5,408C 186.565,410.381 186.232,412.881 186.5,415.5C 185.167,415.5 183.833,415.5 182.5,415.5C 180.917,425.912 181.25,436.246 183.5,446.5C 184.325,447.386 185.325,447.719 186.5,447.5C 186.5,448.833 186.5,450.167 186.5,451.5C 184.801,451.66 183.134,451.494 181.5,451C 180.897,448.929 179.564,447.762 177.5,447.5 Z"/></g>
<g><path style="opacity:1" fill="#fbf9e9" d="M 330.5,326.5 C 331.5,326.5 332.5,326.5 333.5,326.5C 333.431,338.116 333.265,349.783 333,361.5C 331.807,360.022 331.307,358.688 331.5,357.5C 330.833,360.977 330.166,364.311 329.5,367.5C 328.351,367.209 327.684,366.376 327.5,365C 329.741,352.607 330.741,340.107 330.5,327.5C 330.5,327.167 330.5,326.833 330.5,326.5 Z"/></g>
<g><path style="opacity:1" fill="#e3493a" d="M 158.5,335.5 C 160.098,337.857 161.098,340.523 161.5,343.5C 161.5,351.5 161.5,359.5 161.5,367.5C 160.5,367.5 159.5,367.5 158.5,367.5C 158.5,356.833 158.5,346.167 158.5,335.5 Z"/></g>
<g><path style="opacity:1" fill="#df4b3c" d="M 412.5,335.5 C 412.5,343.167 412.5,350.833 412.5,358.5C 412.5,361.5 412.5,364.5 412.5,367.5C 411.5,367.5 410.5,367.5 409.5,367.5C 409.296,356.559 410.296,345.892 412.5,335.5 Z"/></g>
<g><path style="opacity:1" fill="#c67855" d="M 327.5,351.5 C 326.724,358.137 326.391,364.804 326.5,371.5C 325.167,371.5 323.833,371.5 322.5,371.5C 322.989,370.005 323.655,368.671 324.5,367.5C 324.856,361.923 325.856,356.59 327.5,351.5 Z"/></g>
<g><path style="opacity:1" fill="#ef462c" d="M 164.5,383.5 C 163.833,383.5 163.167,383.5 162.5,383.5C 161.512,378.36 161.179,373.026 161.5,367.5C 161.5,359.5 161.5,351.5 161.5,343.5C 162.166,340.972 162.832,338.306 163.5,335.5C 164.499,351.486 164.833,367.486 164.5,383.5 Z"/></g>
<g><path style="opacity:1" fill="#eabda5" d="M 364.5,344.5 C 364.833,344.5 365.167,344.5 365.5,344.5C 365.5,348.5 365.5,352.5 365.5,356.5C 364.833,360.167 364.167,363.833 363.5,367.5C 363.324,362.12 363.658,356.787 364.5,351.5C 364.5,349.167 364.5,346.833 364.5,344.5 Z"/></g>
<g><path style="opacity:1" fill="#c78a6f" d="M 205.5,351.5 C 206.598,357.979 207.265,364.646 207.5,371.5C 206.71,370.391 206.21,369.058 206,367.5C 205.501,362.177 205.334,356.844 205.5,351.5 Z"/></g>
<g><path style="opacity:1" fill="#ec4829" d="M 173.5,335.5 C 175.833,335.5 178.167,335.5 180.5,335.5C 180.911,339.463 180.078,343.13 178,346.5C 177.5,353.492 177.334,360.492 177.5,367.5C 178.5,367.5 179.5,367.5 180.5,367.5C 180.5,372.833 180.5,378.167 180.5,383.5C 178.208,383.756 176.041,383.423 174,382.5C 173.501,377.511 173.334,372.511 173.5,367.5C 172.167,367.5 170.833,367.5 169.5,367.5C 171.271,356.878 172.604,346.211 173.5,335.5 Z"/></g>
<g><path style="opacity:1" fill="#fcf2df" d="M 364.5,351.5 C 363.658,356.787 363.324,362.12 363.5,367.5C 361.554,372.396 360.887,377.729 361.5,383.5C 361.828,388.875 361.495,394.208 360.5,399.5C 357.418,400.635 354.418,401.635 351.5,402.5C 347.085,402.861 343.085,404.194 339.5,406.5C 337.901,406.232 336.568,406.566 335.5,407.5C 332.848,407.41 330.515,408.076 328.5,409.5C 325.518,409.963 322.518,410.296 319.5,410.5C 323.931,408.836 328.431,406.836 333,404.5C 340.362,402.414 347.862,400.747 355.5,399.5C 356.281,398.271 356.781,396.938 357,395.5C 357.168,386.149 357.668,376.816 358.5,367.5C 359.667,361.732 361.667,356.399 364.5,351.5 Z"/></g>
<g><path style="opacity:1" fill="#f4c7b3" d="M 241.5,343.5 C 242.936,352.319 244.103,361.319 245,370.5C 249.722,373.474 254.888,375.14 260.5,375.5C 262.751,376.015 264.751,377.015 266.5,378.5C 264.143,378.663 261.81,378.497 259.5,378C 252.861,375.842 246.194,374.008 239.5,372.5C 241.423,368.971 242.089,364.971 241.5,360.5C 241.5,354.833 241.5,349.167 241.5,343.5 Z"/></g>
<g><path style="opacity:1" fill="#c55c3d" d="M 205.5,341.5 C 218.327,340.34 231.327,340.173 244.5,341C 245.319,349.755 245.819,358.589 246,367.5C 246.93,369.552 248.43,371.052 250.5,372C 253.372,372.315 256.205,372.815 259,373.5C 260.03,373.836 260.53,374.503 260.5,375.5C 254.888,375.14 249.722,373.474 245,370.5C 244.103,361.319 242.936,352.319 241.5,343.5C 241.5,342.833 241.167,342.5 240.5,342.5C 229.012,341.505 217.345,341.172 205.5,341.5 Z"/></g>
<g><path style="opacity:1" fill="#d94e34" d="M 204.5,341.5 C 204.5,341.833 204.5,342.167 204.5,342.5C 203.357,342.908 202.357,343.575 201.5,344.5C 202.332,348.155 203.165,351.821 204,355.5C 204.621,367.831 205.121,380.165 205.5,392.5C 204.883,392.389 204.383,392.056 204,391.5C 202.121,374.882 200.955,358.216 200.5,341.5C 201.833,341.5 203.167,341.5 204.5,341.5 Z"/></g>
<g><path style="opacity:1" fill="#f8d7c0" d="M 329.5,327.5 C 329.833,327.5 330.167,327.5 330.5,327.5C 330.741,340.107 329.741,352.607 327.5,365C 327.684,366.376 328.351,367.209 329.5,367.5C 329.579,368.93 329.246,370.264 328.5,371.5C 326.376,372.458 324.376,373.625 322.5,375C 320.203,375.018 317.869,374.851 315.5,374.5C 316.833,373.833 318.167,373.167 319.5,372.5C 320.791,372.737 321.791,372.404 322.5,371.5C 323.833,371.5 325.167,371.5 326.5,371.5C 326.391,364.804 326.724,358.137 327.5,351.5C 328.806,346.384 329.473,341.051 329.5,335.5C 329.5,332.833 329.5,330.167 329.5,327.5 Z"/></g>
<g><path style="opacity:1" fill="#db7549" d="M 319.5,372.5 C 318.167,373.167 316.833,373.833 315.5,374.5C 311.435,375.246 307.435,376.246 303.5,377.5C 303.5,376.167 303.5,374.833 303.5,373.5C 308.862,373.528 314.195,373.194 319.5,372.5 Z"/></g>
<g><path style="opacity:1" fill="#d1664a" d="M 260.5,375.5 C 264.226,375.177 267.893,375.511 271.5,376.5C 276.085,378.146 280.752,379.479 285.5,380.5C 289.112,379.578 292.779,378.911 296.5,378.5C 295.5,379.167 294.5,379.833 293.5,380.5C 284.998,382.017 276.665,381.35 268.5,378.5C 267.833,378.5 267.167,378.5 266.5,378.5C 264.751,377.015 262.751,376.015 260.5,375.5 Z"/></g>
<g><path style="opacity:1" fill="#facfb3" d="M 363.5,367.5 C 363.313,372.845 362.98,378.178 362.5,383.5C 362.167,383.5 361.833,383.5 361.5,383.5C 360.887,377.729 361.554,372.396 363.5,367.5 Z"/></g>
<g><path style="opacity:1" fill="#ebeaeb" d="M 239.5,372.5 C 246.194,374.008 252.861,375.842 259.5,378C 261.81,378.497 264.143,378.663 266.5,378.5C 267.167,378.5 267.833,378.5 268.5,378.5C 268.611,379.117 268.944,379.617 269.5,380C 274.834,381.233 280.167,382.4 285.5,383.5C 285.5,395.167 285.5,406.833 285.5,418.5C 280.382,418.547 275.715,417.214 271.5,414.5C 254.352,411.585 254.352,409.918 271.5,409.5C 271.5,408.5 271.5,407.5 271.5,406.5C 266.087,406.916 260.754,406.916 255.5,406.5C 255.5,407.5 255.5,408.5 255.5,409.5C 252.167,409.5 248.833,409.5 245.5,409.5C 244.942,408.21 243.942,407.377 242.5,407C 240.19,406.503 237.857,406.337 235.5,406.5C 235.167,406.5 234.833,406.5 234.5,406.5C 231.766,405.295 229.099,403.795 226.5,402C 222.848,401.501 219.182,401.335 215.5,401.5C 215.167,400.833 214.833,400.167 214.5,399.5C 215.812,397.257 216.478,394.59 216.5,391.5C 217.166,383.512 217.499,375.512 217.5,367.5C 216.167,367.5 214.833,367.5 213.5,367.5C 213.731,359.791 213.398,352.124 212.5,344.5C 214.167,344.5 215.833,344.5 217.5,344.5C 218.154,348.832 218.487,353.165 218.5,357.5C 219.167,355.5 219.833,353.5 220.5,351.5C 221.418,353.758 222.085,356.091 222.5,358.5C 221.203,371.486 221.203,384.486 222.5,397.5C 222.557,390.544 223.224,383.544 224.5,376.5C 227.697,381.977 230.364,381.81 232.5,376C 231.202,372.373 228.869,369.706 225.5,368C 226.793,367.51 228.127,367.343 229.5,367.5C 229.813,360.245 229.48,353.079 228.5,346C 230.541,344.259 232.708,344.092 235,345.5C 235.167,348.167 235.333,350.833 235.5,353.5C 235.438,356.613 234.771,359.446 233.5,362C 234.406,363.699 234.739,365.533 234.5,367.5C 235.5,367.5 236.5,367.5 237.5,367.5C 237.67,368.822 237.337,369.989 236.5,371C 237.737,371.232 238.737,371.732 239.5,372.5 Z"/></g>
<g><path style="opacity:1" fill="#fbd4c2" d="M 413.5,355.5 C 413.833,355.5 414.167,355.5 414.5,355.5C 414.401,364.844 414.068,374.177 413.5,383.5C 412.833,383.5 412.167,383.5 411.5,383.5C 412.607,375.205 413.273,366.872 413.5,358.5C 413.5,357.5 413.5,356.5 413.5,355.5 Z"/></g>
<g><path style="opacity:1" fill="#fad4bf" d="M 315.5,374.5 C 308.821,378.273 301.488,380.273 293.5,380.5C 294.5,379.833 295.5,379.167 296.5,378.5C 298.806,378.007 301.139,377.674 303.5,377.5C 307.435,376.246 311.435,375.246 315.5,374.5 Z"/></g>
<g><path style="opacity:1" fill="#c87a54" d="M 365.5,356.5 C 365.5,365.5 365.5,374.5 365.5,383.5C 364.5,383.5 363.5,383.5 362.5,383.5C 362.98,378.178 363.313,372.845 363.5,367.5C 364.167,363.833 364.833,360.167 365.5,356.5 Z"/></g>
<g><path style="opacity:1" fill="#fbdfd0" d="M 240.5,342.5 C 241.167,342.5 241.5,342.833 241.5,343.5C 241.5,349.167 241.5,354.833 241.5,360.5C 240.698,359.048 240.198,357.382 240,355.5C 239.667,355.833 239.333,356.167 239,356.5C 238.5,354 238,351.5 237.5,349C 237.844,347.635 238.511,346.468 239.5,345.5C 238.271,344.719 236.938,344.219 235.5,344C 226.84,343.5 218.173,343.334 209.5,343.5C 209.5,351.5 209.5,359.5 209.5,367.5C 210.5,367.5 211.5,367.5 212.5,367.5C 212.869,378.338 213.535,389.005 214.5,399.5C 214.833,400.167 215.167,400.833 215.5,401.5C 213.421,401.029 211.421,400.363 209.5,399.5C 209.5,396.167 209.5,392.833 209.5,389.5C 209.771,384.566 209.104,379.9 207.5,375.5C 207.5,374.167 207.5,372.833 207.5,371.5C 207.265,364.646 206.598,357.979 205.5,351.5C 205.5,348.5 205.5,345.5 205.5,342.5C 217.167,342.5 228.833,342.5 240.5,342.5 Z"/></g>
<g><path style="opacity:1" fill="#f2c7b4" d="M 268.5,378.5 C 276.665,381.35 284.998,382.017 293.5,380.5C 291.098,381.993 288.431,382.993 285.5,383.5C 280.167,382.4 274.834,381.233 269.5,380C 268.944,379.617 268.611,379.117 268.5,378.5 Z"/></g>
<g><path style="opacity:1" fill="#c65f41" d="M 204.5,342.5 C 204.19,345.713 204.523,348.713 205.5,351.5C 205.334,356.844 205.501,362.177 206,367.5C 206.21,369.058 206.71,370.391 207.5,371.5C 207.5,372.833 207.5,374.167 207.5,375.5C 207.362,380.414 208.028,385.081 209.5,389.5C 209.5,392.833 209.5,396.167 209.5,399.5C 208.732,398.737 208.232,397.737 208,396.5C 207.517,397.448 207.351,398.448 207.5,399.5C 206.833,397.167 206.167,394.833 205.5,392.5C 205.121,380.165 204.621,367.831 204,355.5C 203.165,351.821 202.332,348.155 201.5,344.5C 202.357,343.575 203.357,342.908 204.5,342.5 Z"/></g>
<g><path style="opacity:1" fill="#f3c6bb" d="M 156.5,355.5 C 156.833,355.5 157.167,355.5 157.5,355.5C 157.183,359.702 157.517,363.702 158.5,367.5C 159.826,378.119 160.493,388.785 160.5,399.5C 159.368,396.372 158.535,393.038 158,389.5C 156.914,378.191 156.414,366.858 156.5,355.5 Z"/></g>
<g><path style="opacity:1" fill="#efad95" d="M 207.5,375.5 C 209.104,379.9 209.771,384.566 209.5,389.5C 208.028,385.081 207.362,380.414 207.5,375.5 Z"/></g>
<g><path style="opacity:1" fill="#cc5841" d="M 158.5,367.5 C 159.5,367.5 160.5,367.5 161.5,367.5C 161.179,373.026 161.512,378.36 162.5,383.5C 161.992,394.36 162.658,405.027 164.5,415.5C 163.833,415.5 163.167,415.5 162.5,415.5C 162.784,413.585 162.451,411.919 161.5,410.5C 161.815,406.629 161.482,402.962 160.5,399.5C 160.493,388.785 159.826,378.119 158.5,367.5 Z"/></g>
<g><path style="opacity:1" fill="#e7ccc7" d="M 411.5,383.5 C 411.421,387.202 411.754,390.868 412.5,394.5C 411.047,401.546 410.047,408.546 409.5,415.5C 409.19,404.621 409.857,393.954 411.5,383.5 Z"/></g>
<g><path style="opacity:1" fill="#cd6953" d="M 412.5,358.5 C 412.833,358.5 413.167,358.5 413.5,358.5C 413.273,366.872 412.607,375.205 411.5,383.5C 409.857,393.954 409.19,404.621 409.5,415.5C 409.167,415.5 408.833,415.5 408.5,415.5C 408.731,399.497 409.064,383.497 409.5,367.5C 410.5,367.5 411.5,367.5 412.5,367.5C 412.5,364.5 412.5,361.5 412.5,358.5 Z"/></g>
<g><path style="opacity:1" fill="#df7950" d="M 361.5,383.5 C 361.833,383.5 362.167,383.5 362.5,383.5C 362.193,389.093 362.527,394.593 363.5,400C 359.239,403.788 354.239,405.288 348.5,404.5C 349.5,403.833 350.5,403.167 351.5,402.5C 354.418,401.635 357.418,400.635 360.5,399.5C 361.495,394.208 361.828,388.875 361.5,383.5 Z"/></g>
<g><path style="opacity:1" fill="#ce5a3b" d="M 209.5,399.5 C 211.421,400.363 213.421,401.029 215.5,401.5C 221.607,403.612 227.941,405.278 234.5,406.5C 234.833,406.5 235.167,406.5 235.5,406.5C 238.452,408.41 241.786,409.41 245.5,409.5C 251.182,411.505 256.849,413.505 262.5,415.5C 255.788,415.089 249.121,414.256 242.5,413C 231.605,407.092 219.939,403.926 207.5,403.5C 207.5,402.167 207.5,400.833 207.5,399.5C 207.351,398.448 207.517,397.448 208,396.5C 208.232,397.737 208.732,398.737 209.5,399.5 Z"/></g>
<g><path style="opacity:1" fill="#f7cabd" d="M 215.5,401.5 C 219.182,401.335 222.848,401.501 226.5,402C 229.099,403.795 231.766,405.295 234.5,406.5C 227.941,405.278 221.607,403.612 215.5,401.5 Z"/></g>
<g><path style="opacity:1" fill="#e5946f" d="M 351.5,402.5 C 350.5,403.167 349.5,403.833 348.5,404.5C 345.574,405.461 342.574,406.127 339.5,406.5C 343.085,404.194 347.085,402.861 351.5,402.5 Z"/></g>
<g><path style="opacity:1" fill="#f0642b" d="M 373.5,249.5 C 374.833,249.5 376.167,249.5 377.5,249.5C 378.629,257.196 378.629,264.862 377.5,272.5C 381.223,277.62 379.89,280.12 373.5,280C 374.74,281.73 375.74,283.563 376.5,285.5C 375.347,288.711 374.68,292.044 374.5,295.5C 374,308.841 373.333,322.175 372.5,335.5C 369.857,345.989 368.857,356.655 369.5,367.5C 370.5,367.5 371.5,367.5 372.5,367.5C 372.5,372.833 372.5,378.167 372.5,383.5C 371.167,383.5 369.833,383.5 368.5,383.5C 368.623,390.529 368.29,397.529 367.5,404.5C 370.862,404.07 373.695,405.07 376,407.5C 376.359,410.544 377.026,410.878 378,408.5C 379.667,409.833 381.333,409.833 383,408.5C 383.399,402.116 382.899,395.783 381.5,389.5C 382.873,385.284 383.54,380.95 383.5,376.5C 382.936,365.27 382.769,353.936 383,342.5C 383.179,345.553 383.679,348.553 384.5,351.5C 384.833,349.333 385.167,347.167 385.5,345C 385.546,336.926 385.212,328.76 384.5,320.5C 385.312,309.546 385.812,298.546 386,287.5C 389.03,283.809 392.03,280.142 395,276.5C 395.494,278.134 395.66,279.801 395.5,281.5C 392.656,302.198 391.156,322.865 391,343.5C 387.526,372.655 385.026,401.988 383.5,431.5C 367.869,435.073 352.536,439.573 337.5,445C 331.266,446.559 324.932,447.726 318.5,448.5C 308.322,453.331 297.656,456.665 286.5,458.5C 285.334,446.848 285.167,435.181 286,423.5C 288.326,423.12 290.159,422.12 291.5,420.5C 295.506,419.778 299.506,418.945 303.5,418C 304.756,417.583 305.423,416.75 305.5,415.5C 305.833,415.5 306.167,415.5 306.5,415.5C 309.152,415.59 311.485,414.924 313.5,413.5C 316.916,413.93 320.25,414.43 323.5,415C 323.167,414.667 322.833,414.333 322.5,414C 327.204,412.315 331.538,410.148 335.5,407.5C 336.568,406.566 337.901,406.232 339.5,406.5C 342.574,406.127 345.574,405.461 348.5,404.5C 354.239,405.288 359.239,403.788 363.5,400C 362.527,394.593 362.193,389.093 362.5,383.5C 363.5,383.5 364.5,383.5 365.5,383.5C 366.331,371.007 366.831,358.34 367,345.5C 367.333,346.167 367.667,346.833 368,347.5C 369.329,340.908 369.829,334.241 369.5,327.5C 369.5,327.167 369.5,326.833 369.5,326.5C 370.15,326.196 370.817,325.863 371.5,325.5C 372.373,312.84 373.04,300.173 373.5,287.5C 372.5,287.5 371.5,287.5 370.5,287.5C 369.791,286.596 368.791,286.263 367.5,286.5C 340.338,285.502 313.005,285.169 285.5,285.5C 285.379,273.682 285.379,262.348 285.5,251.5C 286.492,251.672 287.158,251.338 287.5,250.5C 316.338,250.831 345.005,250.498 373.5,249.5 Z"/></g>
<g><path style="opacity:1" fill="#fbcec3" d="M 235.5,406.5 C 237.857,406.337 240.19,406.503 242.5,407C 243.942,407.377 244.942,408.21 245.5,409.5C 241.786,409.41 238.452,408.41 235.5,406.5 Z"/></g>
<g><path style="opacity:1" fill="#f6e4da" d="M 285.5,418.5 C 288.582,417.983 291.582,417.15 294.5,416C 296.439,415.092 297.439,413.592 297.5,411.5C 300.066,411.344 302.566,411.678 305,412.5C 309.752,411.236 314.586,410.569 319.5,410.5C 319.5,410.833 319.5,411.167 319.5,411.5C 317.102,411.259 315.102,411.926 313.5,413.5C 310.848,413.41 308.515,414.076 306.5,415.5C 306.167,415.5 305.833,415.5 305.5,415.5C 299.243,416.652 293.243,418.318 287.5,420.5C 284.833,420.167 282.167,419.833 279.5,419.5C 276.833,419.167 274.167,418.833 271.5,418.5C 269.159,416.149 266.159,415.149 262.5,415.5C 256.849,413.505 251.182,411.505 245.5,409.5C 248.833,409.5 252.167,409.5 255.5,409.5C 255.5,408.5 255.5,407.5 255.5,406.5C 260.754,406.916 266.087,406.916 271.5,406.5C 271.5,407.5 271.5,408.5 271.5,409.5C 254.352,409.918 254.352,411.585 271.5,414.5C 275.715,417.214 280.382,418.547 285.5,418.5 Z"/></g>
<g><path style="opacity:1" fill="#d68d6c" d="M 328.5,409.5 C 325.829,411.118 322.829,411.785 319.5,411.5C 319.5,411.167 319.5,410.833 319.5,410.5C 322.518,410.296 325.518,409.963 328.5,409.5 Z"/></g>
<g><path style="opacity:1" fill="#e37041" d="M 335.5,407.5 C 331.538,410.148 327.204,412.315 322.5,414C 322.833,414.333 323.167,414.667 323.5,415C 320.25,414.43 316.916,413.93 313.5,413.5C 315.102,411.926 317.102,411.259 319.5,411.5C 322.829,411.785 325.829,411.118 328.5,409.5C 330.515,408.076 332.848,407.41 335.5,407.5 Z"/></g>
<g><path style="opacity:1" fill="#d78367" d="M 313.5,413.5 C 311.485,414.924 309.152,415.59 306.5,415.5C 308.515,414.076 310.848,413.41 313.5,413.5 Z"/></g>
<g><path style="opacity:1" fill="#cf5c3b" d="M 262.5,415.5 C 266.159,415.149 269.159,416.149 271.5,418.5C 269.143,418.663 266.81,418.497 264.5,418C 263.244,417.583 262.577,416.75 262.5,415.5 Z"/></g>
<g><path style="opacity:1" fill="#dc7a57" d="M 305.5,415.5 C 305.423,416.75 304.756,417.583 303.5,418C 299.506,418.945 295.506,419.778 291.5,420.5C 290.167,420.5 288.833,420.5 287.5,420.5C 293.243,418.318 299.243,416.652 305.5,415.5 Z"/></g>
<g><path style="opacity:1" fill="#ec4a21" d="M 391.5,409.5 C 392.738,411.214 393.405,413.214 393.5,415.5C 395.833,415.5 398.167,415.5 400.5,415.5C 400.5,426.833 400.5,438.167 400.5,449.5C 399.127,449.343 397.793,449.51 396.5,450C 393.572,452.618 390.239,453.118 386.5,451.5C 390.181,450.139 393.847,448.806 397.5,447.5C 397.618,443.305 396.785,439.305 395,435.5C 392.372,434.543 390.872,432.709 390.5,430C 392.681,423.242 393.014,416.408 391.5,409.5 Z"/></g>
<g><path style="opacity:1" fill="#dd896c" d="M 279.5,419.5 C 282.167,419.833 284.833,420.167 287.5,420.5C 284.66,421.917 281.993,421.584 279.5,419.5 Z"/></g>
<g><path style="opacity:1" fill="#de4e31" d="M 165.5,415.5 C 166.833,415.5 168.167,415.5 169.5,415.5C 169.5,427.167 169.5,438.833 169.5,450.5C 168.85,450.196 168.183,449.863 167.5,449.5C 165.781,438.24 165.114,426.906 165.5,415.5 Z"/></g>
<g><path style="opacity:1" fill="#be634b" d="M 162.5,415.5 C 163.167,415.5 163.833,415.5 164.5,415.5C 164.833,415.5 165.167,415.5 165.5,415.5C 165.114,426.906 165.781,438.24 167.5,449.5C 168.183,449.863 168.85,450.196 169.5,450.5C 169.5,450.833 169.5,451.167 169.5,451.5C 167.856,451.714 166.356,451.38 165,450.5C 164.828,443.987 164.328,437.653 163.5,431.5C 163.608,426.13 163.275,420.797 162.5,415.5 Z"/></g>
<g><path style="opacity:1" fill="#d05432" d="M 407.5,415.5 C 405.371,423.687 404.371,432.02 404.5,440.5C 403.842,439.602 403.176,438.602 402.5,437.5C 401.167,430.167 401.167,422.833 402.5,415.5C 403.167,417.167 403.833,418.833 404.5,420.5C 405.001,418.345 406.001,416.678 407.5,415.5 Z"/></g>
<g><path style="opacity:1" fill="#ecb09b" d="M 161.5,410.5 C 162.451,411.919 162.784,413.585 162.5,415.5C 163.275,420.797 163.608,426.13 163.5,431.5C 162.125,424.711 161.458,417.711 161.5,410.5 Z"/></g>
<g><path style="opacity:1" fill="#fae1ce" d="M 160.5,399.5 C 161.482,402.962 161.815,406.629 161.5,410.5C 161.458,417.711 162.125,424.711 163.5,431.5C 164.328,437.653 164.828,443.987 165,450.5C 166.356,451.38 167.856,451.714 169.5,451.5C 169.5,451.833 169.5,452.167 169.5,452.5C 173.5,453.833 177.5,455.167 181.5,456.5C 174.578,456.181 167.911,454.847 161.5,452.5C 161.238,434.832 160.905,417.165 160.5,399.5 Z"/></g>
<g><path style="opacity:1" fill="#f2cdb4" d="M 408.5,415.5 C 408.833,415.5 409.167,415.5 409.5,415.5C 409.5,423.167 409.5,430.833 409.5,438.5C 408.778,438.082 408.278,437.416 408,436.5C 407.098,441.294 406.265,445.961 405.5,450.5C 406.106,438.803 407.106,427.136 408.5,415.5 Z"/></g>
<g><path style="opacity:1" fill="#c85e48" d="M 407.5,415.5 C 407.833,415.5 408.167,415.5 408.5,415.5C 407.106,427.136 406.106,438.803 405.5,450.5C 403.621,451.341 401.621,451.675 399.5,451.5C 399.833,450.833 400.167,450.167 400.5,449.5C 401.467,448.194 402.801,447.527 404.5,447.5C 404.5,445.167 404.5,442.833 404.5,440.5C 404.371,432.02 405.371,423.687 407.5,415.5 Z"/></g>
<g><path style="opacity:1" fill="#ee4826" d="M 177.5,447.5 C 177.414,448.496 177.748,449.329 178.5,450C 175.607,451.149 172.607,451.649 169.5,451.5C 169.5,451.167 169.5,450.833 169.5,450.5C 169.5,438.833 169.5,427.167 169.5,415.5C 170.833,415.5 172.167,415.5 173.5,415.5C 173.5,410.167 173.5,404.833 173.5,399.5C 174.5,399.5 175.5,399.5 176.5,399.5C 176.219,404.308 176.886,408.974 178.5,413.5C 177.981,416.601 177.147,419.601 176,422.5C 175.333,421.167 174.667,421.167 174,422.5C 173.378,430.852 173.545,439.186 174.5,447.5C 175.5,447.5 176.5,447.5 177.5,447.5 Z"/></g>
<g><path style="opacity:1" fill="#fcf4dd" d="M 409.5,438.5 C 409.666,442.514 409.499,446.514 409,450.5C 408.467,452.939 407.3,453.605 405.5,452.5C 405.5,451.833 405.5,451.167 405.5,450.5C 406.265,445.961 407.098,441.294 408,436.5C 408.278,437.416 408.778,438.082 409.5,438.5 Z"/></g>
<g><path style="opacity:1" fill="#eca697" d="M 405.5,450.5 C 405.5,451.167 405.5,451.833 405.5,452.5C 401.5,453.167 397.5,453.833 393.5,454.5C 393.5,454.167 393.5,453.833 393.5,453.5C 395.698,453.125 397.698,452.458 399.5,451.5C 401.621,451.675 403.621,451.341 405.5,450.5 Z"/></g>
<g><path style="opacity:1" fill="#d77f6a" d="M 169.5,452.5 C 179.491,454.549 189.491,456.715 199.5,459C 200.858,459.934 202.192,460.768 203.5,461.5C 200.123,461.041 196.789,460.374 193.5,459.5C 189.499,458.5 185.499,457.5 181.5,456.5C 177.5,455.167 173.5,453.833 169.5,452.5 Z"/></g>
<g><path style="opacity:1" fill="#c9603e" d="M 393.5,453.5 C 393.5,453.833 393.5,454.167 393.5,454.5C 393.167,454.5 392.833,454.5 392.5,454.5C 388.233,455.256 384.233,456.589 380.5,458.5C 379.833,458.5 379.167,458.5 378.5,458.5C 378.825,456.868 379.825,455.868 381.5,455.5C 385.361,453.996 389.361,453.329 393.5,453.5 Z"/></g>
<g><path style="opacity:1" fill="#f3bda7" d="M 392.5,454.5 C 388.915,456.806 384.915,458.139 380.5,458.5C 384.233,456.589 388.233,455.256 392.5,454.5 Z"/></g>
<g><path style="opacity:1" fill="#d57153" d="M 377.5,458.5 C 375.5,459.5 373.5,460.5 371.5,461.5C 367.5,462.167 363.5,462.833 359.5,463.5C 360.343,461.827 361.676,460.66 363.5,460C 368.184,459.565 372.851,459.065 377.5,458.5 Z"/></g>
<g><path style="opacity:1" fill="#d05a40" d="M 357.5,463.5 C 354.495,465.277 351.162,466.277 347.5,466.5C 346.833,466.5 346.167,466.5 345.5,466.5C 347.916,464.987 350.583,463.654 353.5,462.5C 354.849,462.846 356.183,463.179 357.5,463.5 Z"/></g>
<g><path style="opacity:1" fill="#d1725d" d="M 203.5,461.5 C 207.851,462.17 212.184,463.004 216.5,464C 217.056,464.383 217.389,464.883 217.5,465.5C 212.538,464.784 207.871,463.45 203.5,461.5 Z"/></g>
<g><path style="opacity:1" fill="#fde3db" d="M 193.5,459.5 C 196.789,460.374 200.123,461.041 203.5,461.5C 207.871,463.45 212.538,464.784 217.5,465.5C 217.5,465.833 217.5,466.167 217.5,466.5C 214.15,466.665 210.817,466.498 207.5,466C 202.562,464.026 197.896,461.859 193.5,459.5 Z"/></g>
<g><path style="opacity:1" fill="#fbdcd1" d="M 371.5,461.5 C 368.406,463.115 365.072,464.615 361.5,466C 350.839,468.278 340.172,470.445 329.5,472.5C 331.102,470.926 333.102,470.259 335.5,470.5C 339.915,470.139 343.915,468.806 347.5,466.5C 351.162,466.277 354.495,465.277 357.5,463.5C 358.167,463.5 358.833,463.5 359.5,463.5C 363.5,462.833 367.5,462.167 371.5,461.5 Z"/></g>
<g><path style="opacity:1" fill="#e3a28a" d="M 223.5,467.5 C 224.833,467.5 226.167,467.5 227.5,467.5C 228.5,468.167 229.5,468.833 230.5,469.5C 227.848,469.59 225.515,468.924 223.5,467.5 Z"/></g>
<g><path style="opacity:1" fill="#cf5736" d="M 341.5,467.5 C 339.5,468.5 337.5,469.5 335.5,470.5C 333.102,470.259 331.102,470.926 329.5,472.5C 326.572,472.565 323.905,473.232 321.5,474.5C 320.833,474.5 320.167,474.5 319.5,474.5C 320.348,472.907 321.681,471.74 323.5,471C 329.214,468.468 335.214,467.302 341.5,467.5 Z"/></g>
<g><path style="opacity:1" fill="#e38d76" d="M 345.5,466.5 C 346.167,466.5 346.833,466.5 347.5,466.5C 343.915,468.806 339.915,470.139 335.5,470.5C 337.5,469.5 339.5,468.5 341.5,467.5C 342.833,467.167 344.167,466.833 345.5,466.5 Z"/></g>
<g><path style="opacity:1" fill="#d95330" d="M 227.5,467.5 C 233.727,468.937 240.06,469.77 246.5,470C 250.156,473.077 253.989,473.243 258,470.5C 262.453,471.132 266.953,471.132 271.5,470.5C 271.5,471.5 271.5,472.5 271.5,473.5C 268.167,473.5 264.833,473.5 261.5,473.5C 261.281,474.675 261.614,475.675 262.5,476.5C 265.961,476.768 268.961,477.768 271.5,479.5C 270.5,479.5 269.5,479.5 268.5,479.5C 265.426,479.127 262.426,478.461 259.5,477.5C 256.004,474.952 252.004,473.619 247.5,473.5C 241.851,472.17 236.185,470.836 230.5,469.5C 229.5,468.833 228.5,468.167 227.5,467.5 Z"/></g>
<g><path style="opacity:1" fill="#f9d4c8" d="M 230.5,469.5 C 236.185,470.836 241.851,472.17 247.5,473.5C 248.5,474.167 249.5,474.833 250.5,475.5C 243.047,475.6 236.38,473.6 230.5,469.5 Z"/></g>
<g><path style="opacity:1" fill="#d78261" d="M 247.5,473.5 C 252.004,473.619 256.004,474.952 259.5,477.5C 256.402,477.244 253.402,476.578 250.5,475.5C 249.5,474.833 248.5,474.167 247.5,473.5 Z"/></g>
<g><path style="opacity:1" fill="#d98972" d="M 319.5,474.5 C 320.167,474.5 320.833,474.5 321.5,474.5C 316.162,476.168 310.829,477.835 305.5,479.5C 304.833,479.5 304.167,479.5 303.5,479.5C 308.286,476.811 313.619,475.145 319.5,474.5 Z"/></g>
<g><path style="opacity:1" fill="#fde5d6" d="M 329.5,472.5 C 329.611,473.117 329.944,473.617 330.5,474C 322.444,476.886 314.111,478.719 305.5,479.5C 310.829,477.835 316.162,476.168 321.5,474.5C 323.905,473.232 326.572,472.565 329.5,472.5 Z"/></g>
<g><path style="opacity:1" fill="#eeb5a6" d="M 268.5,479.5 C 269.5,479.5 270.5,479.5 271.5,479.5C 272.833,480.5 274.167,481.5 275.5,482.5C 272.423,482.821 270.09,481.821 268.5,479.5 Z"/></g>
<g><path style="opacity:1" fill="#db9884" d="M 301.5,479.5 C 299.898,481.074 297.898,481.741 295.5,481.5C 297.102,479.926 299.102,479.259 301.5,479.5 Z"/></g>
<g><path style="opacity:1" fill="#cf5a41" d="M 271.5,479.5 C 277.68,481.182 284.013,481.848 290.5,481.5C 289.5,482.167 288.5,482.833 287.5,483.5C 283.802,483.448 280.135,483.114 276.5,482.5C 276.167,482.5 275.833,482.5 275.5,482.5C 274.167,481.5 272.833,480.5 271.5,479.5 Z"/></g>
<g><path style="opacity:1" fill="#d98f7e" d="M 290.5,481.5 C 292.167,481.5 293.833,481.5 295.5,481.5C 293.095,482.768 290.428,483.435 287.5,483.5C 288.5,482.833 289.5,482.167 290.5,481.5 Z"/></g>
<g><path style="opacity:1" fill="#da9a91" d="M 276.5,482.5 C 280.135,483.114 283.802,483.448 287.5,483.5C 283.71,484.902 280.044,484.569 276.5,482.5 Z"/></g>
</svg>
