<?xml version="1.0" encoding="UTF-8"?>
<svg version="1.1" xmlns="http://www.w3.org/2000/svg" width="32" height="32">
<path d="M0 0 C10.56 0 21.12 0 32 0 C32 10.56 32 21.12 32 32 C21.44 32 10.88 32 0 32 C0 21.44 0 10.88 0 0 Z " fill="#020502" transform="translate(0,0)"/>
<path d="M0 0 C3.66881155 0.70554068 6.70450534 2.27735506 10 4 C9.67 4.66 9.34 5.32 9 6 C6.36 5.67 3.72 5.34 1 5 C1 5.99 1 6.98 1 8 C1.969375 8.391875 2.93875 8.78375 3.9375 9.1875 C7 11 7 11 7.875 13.6875 C7.936875 14.8321875 7.936875 14.8321875 8 16 C4.85408067 18.80045623 2.932936 19.35261589 -1.25 19.1875 C-2.14203125 19.16042969 -3.0340625 19.13335938 -3.953125 19.10546875 C-4.62859375 19.07066406 -5.3040625 19.03585938 -6 19 C-6.33 19.66 -6.66 20.32 -7 21 C-7 18 -7 18 -5 16 C-5.350625 15.484375 -5.70125 14.96875 -6.0625 14.4375 C-7.3615641 11.05993333 -6.67217681 8.49531943 -6 5 C-5.34 5 -4.68 5 -4 5 C-3.67 4.01 -3.34 3.02 -3 2 C-2.01 2 -1.02 2 0 2 C0 1.34 0 0.68 0 0 Z " fill="#0F521B" transform="translate(14,6)"/>
<path d="M0 0 C3.66881155 0.70554068 6.70450534 2.27735506 10 4 C9.67 4.66 9.34 5.32 9 6 C6.36 5.67 3.72 5.34 1 5 C1 5.99 1 6.98 1 8 C2.4540625 8.5878125 2.4540625 8.5878125 3.9375 9.1875 C7 11 7 11 8 13.5625 C8 14.366875 8 15.17125 8 16 C7.34 16.66 6.68 17.32 6 18 C5.01 17.67 4.02 17.34 3 17 C3.66 16.67 4.32 16.34 5 16 C5 14.68 5 13.36 5 12 C4.43410156 11.85304688 3.86820313 11.70609375 3.28515625 11.5546875 C1.02588015 10.86380166 -0.95118095 10.18251078 -3 9 C-4 5.8125 -4 5.8125 -4 3 C-2.68 2.67 -1.36 2.34 0 2 C0 1.34 0 0.68 0 0 Z " fill="#5AA46D" transform="translate(14,6)"/>
<path d="M0 0 C1.31352023 0.30818356 2.62579572 0.62167665 3.9375 0.9375 C5.03384766 1.19853516 5.03384766 1.19853516 6.15234375 1.46484375 C8 2 8 2 9 3 C10.66617115 3.04063832 12.33388095 3.042721 14 3 C13.67 4.32 13.34 5.64 13 7 C12.34 7 11.68 7 11 7 C10.34 8.32 9.68 9.64 9 11 C8.34 11 7.68 11 7 11 C6.79375 10.401875 6.5875 9.80375 6.375 9.1875 C4.49073918 6.18981233 2.18867916 5.38638224 -1 4 C-0.67 2.68 -0.34 1.36 0 0 Z " fill="#0F4215" transform="translate(15,10)"/>
<path d="M0 0 C0.7425 0.78375 1.485 1.5675 2.25 2.375 C4.54433318 4.56504531 6.12158858 5.82731386 9 7 C6.69 6.67 4.38 6.34 2 6 C3.64079242 7.64079242 5.77768765 7.60112342 8 8 C6.02 8.99 6.02 8.99 4 10 C4.66 10.66 5.32 11.32 6 12 C5.030625 12.12375 4.06125 12.2475 3.0625 12.375 C2.051875 12.58125 1.04125 12.7875 0 13 C-0.33 13.66 -0.66 14.32 -1 15 C-1 12 -1 12 1 10 C0.649375 9.46375 0.29875 8.9275 -0.0625 8.375 C-1.28924249 5.26725237 -0.72856431 3.20568297 0 0 Z " fill="#6BB07D" transform="translate(8,12)"/>
<path d="M0 0 C4.29 0.33 8.58 0.66 13 1 C12.67 2.32 12.34 3.64 12 5 C11.34 5 10.68 5 10 5 C9.67 5.99 9.34 6.98 9 8 C8.34 8 7.68 8 7 8 C6.6596875 6.824375 6.6596875 6.824375 6.3125 5.625 C5.21875 2.78125 5.21875 2.78125 2.375 1.6875 C1.59125 1.460625 0.8075 1.23375 0 1 C0 0.67 0 0.34 0 0 Z " fill="#42764E" transform="translate(16,12)"/>
<path d="M0 0 C1.98 0 3.96 0 6 0 C6.33 1.32 6.66 2.64 7 4 C4.36 4 1.72 4 -1 4 C-0.34 3.34 0.32 2.68 1 2 C0.67 1.34 0.34 0.68 0 0 Z " fill="#30653A" transform="translate(11,21)"/>
<path d="M0 0 C5.75 1.75 5.75 1.75 8 4 C4.86650268 5.04449911 4.01031744 4.93423645 1 4 C0.67 2.68 0.34 1.36 0 0 Z " fill="#66B379" transform="translate(16,7)"/>
</svg>
