<?xml version="1.0" encoding="UTF-8"?>
<!DOCTYPE svg PUBLIC "-//W3C//DTD SVG 1.1//EN" "http://www.w3.org/Graphics/SVG/1.1/DTD/svg11.dtd">
<svg xmlns="http://www.w3.org/2000/svg" version="1.1" width="1280px" height="1280px" style="shape-rendering:geometricPrecision; text-rendering:geometricPrecision; image-rendering:optimizeQuality; fill-rule:evenodd; clip-rule:evenodd" xmlns:xlink="http://www.w3.org/1999/xlink">
<g><path style="opacity:1" fill="#000000" d="M -0.5,-0.5 C 426.167,-0.5 852.833,-0.5 1279.5,-0.5C 1279.5,426.167 1279.5,852.833 1279.5,1279.5C 852.833,1279.5 426.167,1279.5 -0.5,1279.5C -0.5,852.833 -0.5,426.167 -0.5,-0.5 Z"/></g>
<g><path style="opacity:1" fill="#61ed80" d="M 738.5,440.5 C 717.456,440.899 696.456,440.232 675.5,438.5C 653.531,434.764 633.198,426.931 614.5,415C 639.414,413.284 663.747,408.617 687.5,401C 690,400.115 692.333,398.948 694.5,397.5C 649.32,384.311 606.986,390.478 567.5,416C 531.031,442.731 517.864,478.231 528,522.5C 536.327,547.164 552.161,565.33 575.5,577C 590.869,584.177 606.869,589.51 623.5,593C 666.786,602.478 710.12,611.811 753.5,621C 812.512,636.553 853.679,672.387 877,728.5C 881.491,741.12 883.991,754.12 884.5,767.5C 884.222,782.94 882.889,798.273 880.5,813.5C 876.438,833.853 868.938,852.853 858,870.5C 820.69,924.771 770.19,960.937 706.5,979C 651.731,992.659 596.398,995.326 540.5,987C 527.77,984.934 515.104,982.767 502.5,980.5C 498.31,979.07 493.976,977.903 489.5,977C 482.5,976.423 475.5,975.923 468.5,975.5C 403.24,966.834 348.407,986.501 304,1034.5C 291.341,1050.14 281.508,1067.48 274.5,1086.5C 270.887,1025.75 294.221,978.588 344.5,945C 361.646,934.964 379.98,928.131 399.5,924.5C 407.782,923.348 416.115,922.682 424.5,922.5C 424.737,921.209 424.404,920.209 423.5,919.5C 391.32,895.154 364.153,866.154 342,832.5C 320.951,797.524 307.118,759.857 300.5,719.5C 300.956,715.889 300.289,712.556 298.5,709.5C 299.689,708.571 301.022,708.238 302.5,708.5C 301.25,694.88 300.084,681.213 299,667.5C 298.667,675.833 298.333,684.167 298,692.5C 297.667,692.167 297.333,691.833 297,691.5C 296.333,667.833 296.333,644.167 297,620.5C 298.6,611.565 299.767,602.565 300.5,593.5C 309.481,538.226 330.981,488.559 365,444.5C 369.3,439.199 373.966,434.199 379,429.5C 376.154,441.878 372.82,454.212 369,466.5C 352.613,546.719 377.113,610.885 442.5,659C 477.143,683.113 515.476,698.447 557.5,705C 591.886,709.59 626.219,714.59 660.5,720C 683.485,725.664 702.985,737.164 719,754.5C 742.282,787.169 742.282,819.836 719,852.5C 718.016,818.013 703.183,791.513 674.5,773C 666.852,769.087 658.852,766.087 650.5,764C 636.042,762.222 621.708,760.722 607.5,759.5C 599.846,758.967 592.18,758.134 584.5,757C 591.208,756.711 597.875,756.045 604.5,755C 587.352,754.555 570.352,754.888 553.5,756C 553.167,755.667 552.833,755.333 552.5,755C 557.167,754.667 561.833,754.333 566.5,754C 561.703,753.147 556.87,752.647 552,752.5C 545.349,754.014 538.516,754.681 531.5,754.5C 465.639,745.662 411.139,716.329 368,666.5C 356.72,651.614 347.22,635.614 339.5,618.5C 338.159,689.006 367.826,741.839 428.5,777C 471.441,799.821 516.775,806.155 564.5,796C 585.641,793.452 606.641,794.118 627.5,798C 650.081,804.751 666.748,818.585 677.5,839.5C 677.872,844.24 679.372,848.574 682,852.5C 682.752,855.894 682.585,859.227 681.5,862.5C 682.325,863.386 683.325,863.719 684.5,863.5C 685.764,875.163 685.764,886.83 684.5,898.5C 683.68,900.812 682.847,903.146 682,905.5C 675.233,914.622 667.066,921.789 657.5,927C 660.992,919.536 662.158,911.703 661,903.5C 657.922,889.597 653.255,876.264 647,863.5C 637.475,849.65 624.309,841.817 607.5,840C 599.833,839.333 592.167,839.333 584.5,840C 569.487,841.891 554.487,843.891 539.5,846C 528.527,847.118 517.527,847.618 506.5,847.5C 504.181,845.915 501.681,844.582 499,843.5C 495.184,844.02 491.351,844.353 487.5,844.5C 481.516,843.569 475.516,842.902 469.5,842.5C 450.645,839.382 432.645,833.549 415.5,825C 398.993,815.583 382.993,805.416 367.5,794.5C 367.965,798.513 369.465,802.513 372,806.5C 388.269,831.513 408.103,853.346 431.5,872C 465.47,892.574 500.47,911.574 536.5,929C 541.417,930.978 546.417,932.311 551.5,933C 548.697,928.564 545.531,924.397 542,920.5C 541.333,919.833 541.333,919.167 542,918.5C 551.833,925 561.667,931.5 571.5,938C 611.76,941.812 651.093,937.479 689.5,925C 725.827,912.979 754.993,891.479 777,860.5C 806.232,806.506 798.732,758.339 754.5,716C 739.128,703.812 722.128,694.478 703.5,688C 661.605,678.027 619.605,668.36 577.5,659C 542.143,652.758 509.81,639.424 480.5,619C 455.683,600.195 436.849,576.695 424,548.5C 418.481,535.389 415.314,521.722 414.5,507.5C 414.321,491.484 414.654,475.484 415.5,459.5C 420.43,429.174 432.93,402.508 453,379.5C 453.483,378.552 453.649,377.552 453.5,376.5C 438.179,378.287 422.846,379.953 407.5,381.5C 404.833,381.5 402.167,381.5 399.5,381.5C 399.5,380.5 399.5,379.5 399.5,378.5C 442.301,337.297 493.634,318.131 553.5,321C 572.283,321.736 590.283,325.57 607.5,332.5C 607.36,334.124 608.027,335.29 609.5,336C 605.314,336.792 601.314,338.125 597.5,340C 592.833,340.333 588.167,340.667 583.5,341C 582.584,341.278 581.918,341.778 581.5,342.5C 524.332,355.335 484.998,389.002 463.5,443.5C 462.504,443.414 461.671,443.748 461,444.5C 458.645,452.835 456.645,461.168 455,469.5C 453.638,483.702 454.638,497.702 458,511.5C 458.383,512.056 458.883,512.389 459.5,512.5C 468.04,544.544 486.873,568.544 516,584.5C 509.24,573.671 502.907,562.337 497,550.5C 473.855,487.854 487.355,434.687 537.5,391C 559.509,374.269 584.175,363.436 611.5,358.5C 631.46,356.279 651.46,355.946 671.5,357.5C 675.296,357.782 678.963,357.782 682.5,357.5C 673.334,339.173 659.001,326.673 639.5,320C 613.563,312.465 587.897,304.132 562.5,295C 538.652,284.816 517.818,270.316 500,251.5C 492.751,242.98 487.084,233.646 483,223.5C 516.113,251.474 553.946,270.641 596.5,281C 612.033,284.842 627.7,287.509 643.5,289C 618.228,271.395 597.395,249.562 581,223.5C 572.799,208.406 567.965,192.406 566.5,175.5C 587.405,209.572 615.072,236.739 649.5,257C 666.54,266.067 683.54,275.067 700.5,284C 706.827,288.325 713.161,292.658 719.5,297C 725.187,301.689 730.521,306.689 735.5,312C 740.415,315.124 745.748,317.124 751.5,318C 765.987,319.403 780.321,321.736 794.5,325C 809.721,329.863 822.555,338.363 833,350.5C 848.482,380.326 872.982,393.493 906.5,390C 910.813,388.694 914.313,386.194 917,382.5C 919.167,378.833 921.333,375.167 923.5,371.5C 930.738,384.992 940.905,395.659 954,403.5C 955.093,426.888 950.759,449.221 941,470.5C 936.163,462.824 931.33,455.157 926.5,447.5C 914.286,436.394 899.952,429.561 883.5,427C 866.213,424.202 848.879,423.869 831.5,426C 808.07,429.418 784.737,433.418 761.5,438C 753.898,439.49 746.231,440.323 738.5,440.5 Z"/></g>
<g><path style="opacity:1" fill="#69e082" d="M 607.5,332.5 C 614.026,334.426 620.359,336.926 626.5,340C 611.459,340.279 596.459,341.112 581.5,342.5C 581.918,341.778 582.584,341.278 583.5,341C 588.167,340.667 592.833,340.333 597.5,340C 601.314,338.125 605.314,336.792 609.5,336C 608.027,335.29 607.36,334.124 607.5,332.5 Z"/></g>
<g><path style="opacity:1" fill="#5fc576" d="M 671.5,357.5 C 651.46,355.946 631.46,356.279 611.5,358.5C 615.264,357.168 619.264,356.335 623.5,356C 637.5,355.333 651.5,355.333 665.5,356C 667.708,356.191 669.708,356.691 671.5,357.5 Z"/></g>
<g><path style="opacity:1" fill="#020402" d="M 736.5,357.5 C 755.01,360.44 773.343,364.273 791.5,369C 799.381,372.888 806.048,378.222 811.5,385C 797.715,392.371 783.049,394.371 767.5,391C 751.451,385.118 741.118,373.951 736.5,357.5 Z"/></g>
<g><path style="opacity:1" fill="#5db570" d="M 399.5,378.5 C 399.5,379.5 399.5,380.5 399.5,381.5C 402.167,381.5 404.833,381.5 407.5,381.5C 403.355,382.726 399.022,383.226 394.5,383C 396.037,381.293 397.704,379.793 399.5,378.5 Z"/></g>
<g><path style="opacity:1" fill="#63d07a" d="M 675.5,438.5 C 696.456,440.232 717.456,440.899 738.5,440.5C 721.682,442.938 704.682,443.104 687.5,441C 683.301,440.472 679.301,439.639 675.5,438.5 Z"/></g>
<g><path style="opacity:1" fill="#60ce76" d="M 879.5,443.5 C 866.519,442.455 853.519,442.289 840.5,443C 840.167,443.333 839.833,443.667 839.5,444C 840.833,444.333 842.167,444.667 843.5,445C 841.966,445.923 840.299,446.423 838.5,446.5C 834.552,445.513 830.552,444.846 826.5,444.5C 818.288,446.222 809.955,447.222 801.5,447.5C 819.648,443.553 838.148,441.219 857,440.5C 864.774,440.491 872.274,441.491 879.5,443.5 Z"/></g>
<g><path style="opacity:1" fill="#61ed80" d="M 879.5,443.5 C 897.911,446.425 911.411,456.092 920,472.5C 922.444,487.107 917.61,498.607 905.5,507C 898.418,511.625 891.251,516.125 884,520.5C 883.13,519.892 882.63,519.059 882.5,518C 888.835,497.321 882.502,481.987 863.5,472C 857.949,470.456 852.616,468.622 847.5,466.5C 839.726,464.969 831.726,464.302 823.5,464.5C 817.833,464.667 812.167,464.833 806.5,465C 804.167,466.043 801.834,466.876 799.5,467.5C 793.509,467.966 787.509,468.299 781.5,468.5C 769.495,468.667 757.495,468.5 745.5,468C 742.833,467.333 742.833,466.667 745.5,466C 742.265,464.191 738.932,464.191 735.5,466C 726.341,467.583 717.841,466.083 710,461.5C 706.953,461.929 703.786,461.929 700.5,461.5C 699.833,461.5 699.167,461.5 698.5,461.5C 705.274,459.849 712.274,458.849 719.5,458.5C 746.675,454.685 774.008,451.019 801.5,447.5C 809.955,447.222 818.288,446.222 826.5,444.5C 830.552,444.846 834.552,445.513 838.5,446.5C 840.299,446.423 841.966,445.923 843.5,445C 842.167,444.667 840.833,444.333 839.5,444C 839.833,443.667 840.167,443.333 840.5,443C 853.519,442.289 866.519,442.455 879.5,443.5 Z"/></g>
<g><path style="opacity:1" fill="#60b673" d="M 719.5,458.5 C 712.274,458.849 705.274,459.849 698.5,461.5C 696.91,461.372 695.577,460.705 694.5,459.5C 702.807,458.502 711.14,458.169 719.5,458.5 Z"/></g>
<g><path style="opacity:1" fill="#6bcd81" d="M 847.5,466.5 C 831.46,464.994 815.46,465.327 799.5,467.5C 801.834,466.876 804.167,466.043 806.5,465C 812.167,464.833 817.833,464.667 823.5,464.5C 831.726,464.302 839.726,464.969 847.5,466.5 Z"/></g>
<g><path style="opacity:1" fill="#62d67b" d="M 700.5,461.5 C 703.786,461.929 706.953,461.929 710,461.5C 717.841,466.083 726.341,467.583 735.5,466C 738.932,464.191 742.265,464.191 745.5,466C 742.833,466.667 742.833,467.333 745.5,468C 757.495,468.5 769.495,468.667 781.5,468.5C 761.267,470.098 740.934,469.598 720.5,467C 713.544,465.764 706.878,463.931 700.5,461.5 Z"/></g>
<g><path style="opacity:1" fill="#64ce7b" d="M 463.5,443.5 C 455.789,466.06 454.456,489.06 459.5,512.5C 458.883,512.389 458.383,512.056 458,511.5C 454.638,497.702 453.638,483.702 455,469.5C 456.645,461.168 458.645,452.835 461,444.5C 461.671,443.748 462.504,443.414 463.5,443.5 Z"/></g>
<g><path style="opacity:1" fill="#69d07e" d="M 415.5,459.5 C 414.654,475.484 414.321,491.484 414.5,507.5C 413.154,501.552 412.488,495.385 412.5,489C 412.644,478.924 413.644,469.091 415.5,459.5 Z"/></g>
<g><path style="opacity:1" fill="#61ed80" d="M 938.5,789.5 C 940.335,786.158 941.502,782.491 942,778.5C 942.934,770.524 943.434,762.524 943.5,754.5C 943.576,692.497 920.243,641.33 873.5,601C 844.642,578.138 811.975,563.138 775.5,556C 747.446,551.213 719.446,546.213 691.5,541C 660.419,535.061 635.919,519.227 618,493.5C 614.134,487.221 611.468,480.554 610,473.5C 624.052,483.932 639.886,490.098 657.5,492C 694.808,495.832 732.141,499.499 769.5,503C 824.657,509.474 872.99,530.807 914.5,567C 974.376,626.004 991.876,695.837 967,776.5C 962.034,788.435 956.034,799.768 949,810.5C 941.068,820.435 932.401,829.768 923,838.5C 928.921,822.505 934.088,806.171 938.5,789.5 Z"/></g>
<g><path style="opacity:1" fill="#62e27e" d="M 1003.5,517.5 C 1008.33,523.163 1013.66,528.33 1019.5,533C 1024.5,533.333 1029.5,533.667 1034.5,534C 1037.17,536 1039.83,538 1042.5,540C 1046.4,541.266 1050.4,541.766 1054.5,541.5C 1054.5,542.833 1054.5,544.167 1054.5,545.5C 1050.15,545.666 1045.82,545.499 1041.5,545C 1040.12,543.287 1038.46,541.953 1036.5,541C 1031.85,540.501 1027.18,540.334 1022.5,540.5C 1014.73,533.903 1007.06,527.07 999.5,520C 990.16,519.483 980.827,519.649 971.5,520.5C 967.715,520.589 964.048,520.089 960.5,519C 956.833,515.333 953.167,511.667 949.5,508C 942.187,507.017 939.02,502.85 940,495.5C 937.932,492.025 934.766,490.525 930.5,491C 926.511,486.955 926.511,482.955 930.5,479C 939.037,477.706 942.037,481.206 939.5,489.5C 940,490.5 940.5,491.5 941,492.5C 944.333,494.5 947.667,496.5 951,498.5C 951.333,500.833 951.667,503.167 952,505.5C 955.549,509.35 959.383,512.85 963.5,516C 974.514,516.714 985.514,516.547 996.5,515.5C 999.163,515.319 1001.5,515.985 1003.5,517.5 Z"/></g>
<g><path style="opacity:1" fill="#60ee7f" d="M 982.5,495.5 C 982.296,498.518 981.963,501.518 981.5,504.5C 974.152,505.728 970.819,502.728 971.5,495.5C 972.512,493.124 974.345,492.124 977,492.5C 979.655,492.124 981.488,493.124 982.5,495.5 Z"/></g>
<g><path style="opacity:1" fill="#65df7f" d="M 1078.5,520.5 C 1071.69,521.491 1064.69,521.825 1057.5,521.5C 1056.51,521.672 1055.84,521.338 1055.5,520.5C 1051.13,516.132 1046.47,512.132 1041.5,508.5C 1035.95,503.301 1036.28,498.467 1042.5,494C 1045.85,493.07 1048.68,493.903 1051,496.5C 1053.37,500.999 1052.53,504.832 1048.5,508C 1051.83,511.333 1055.17,514.667 1058.5,518C 1064.83,518.333 1071.17,518.667 1077.5,519C 1078.06,519.383 1078.39,519.883 1078.5,520.5 Z"/></g>
<g><path style="opacity:1" fill="#051107" d="M 1042.5,498.5 C 1047.39,497.405 1049.05,499.072 1047.5,503.5C 1042.8,504.803 1041.14,503.136 1042.5,498.5 Z"/></g>
<g><path style="opacity:1" fill="#64df81" d="M 971.5,495.5 C 970.819,502.728 974.152,505.728 981.5,504.5C 981.963,501.518 982.296,498.518 982.5,495.5C 983.477,498.287 983.81,501.287 983.5,504.5C 986.167,504.5 988.833,504.5 991.5,504.5C 997.176,504.334 1002.84,504.501 1008.5,505C 1014.9,511.282 1021.4,517.449 1028,523.5C 1028.78,525.319 1028.28,526.652 1026.5,527.5C 1020.76,521.751 1014.76,516.417 1008.5,511.5C 1008.05,510.542 1007.38,509.708 1006.5,509C 999.64,508.261 992.807,508.428 986,509.5C 983.672,509.183 981.839,508.016 980.5,506C 971.691,507.043 968.691,503.543 971.5,495.5 Z"/></g>
<g><path style="opacity:1" fill="#65e17f" d="M 1035.5,511.5 C 1038,514.832 1041,517.666 1044.5,520C 1040.67,520.758 1037.34,519.758 1034.5,517C 1029.47,511.633 1024.13,506.633 1018.5,502C 1016.53,501.505 1014.53,501.338 1012.5,501.5C 1007.45,493.766 1009.45,490.266 1018.5,491C 1020.04,493.624 1021.2,496.457 1022,499.5C 1026.67,503.337 1031.17,507.337 1035.5,511.5 Z"/></g>
<g><path style="opacity:1" fill="#4b995e" d="M 1078.5,520.5 C 1080.2,520.685 1081.53,521.519 1082.5,523C 1074.04,522.92 1065.71,522.42 1057.5,521.5C 1064.69,521.825 1071.69,521.491 1078.5,520.5 Z"/></g>
<g><path style="opacity:1" fill="#62e880" d="M 1078.5,528.5 C 1097.14,530.563 1111.3,539.563 1121,555.5C 1122.5,555.333 1123.33,554.5 1123.5,553C 1121.64,546.611 1118.97,540.611 1115.5,535C 1120.05,536.51 1123.89,539.343 1127,543.5C 1149.42,572.16 1151.42,602.16 1133,633.5C 1132.54,632.906 1132.37,632.239 1132.5,631.5C 1142.5,598.338 1133.5,571.504 1105.5,551C 1093.17,543.667 1079.83,540.001 1065.5,540C 1053.44,538.472 1043.11,533.472 1034.5,525C 1039.93,526.721 1045.6,527.721 1051.5,528C 1060.49,528.5 1069.49,528.666 1078.5,528.5 Z"/></g>
<g><path style="opacity:1" fill="#62e47f" d="M 1034.5,568.5 C 1053,568.845 1071.66,569.012 1090.5,569C 1092.37,571.209 1094.54,573.042 1097,574.5C 1097.61,576.237 1096.95,577.237 1095,577.5C 1092.89,576.392 1091.05,574.892 1089.5,573C 1070.17,573.161 1050.84,573.161 1031.5,573C 1018.65,568.067 1007.65,560.4 998.5,550C 996.5,549 994.5,548 992.5,547C 981.651,544.377 970.651,542.877 959.5,542.5C 953.055,541.074 947.055,538.574 941.5,535C 958.245,532.843 974.911,533.176 991.5,536C 997.561,538.243 1003.23,541.243 1008.5,545C 1016.44,553.78 1025.11,561.613 1034.5,568.5 Z"/></g>
<g><path style="opacity:1" fill="#0b0d03" d="M 996.5,541.5 C 1001.16,541.015 1002.49,542.848 1000.5,547C 995.728,547.81 994.395,545.977 996.5,541.5 Z"/></g>
<g><path style="opacity:1" fill="#62e880" d="M 953.5,564.5 C 959.352,568.306 965.685,571.472 972.5,574C 977.167,577 981.833,580 986.5,583C 991.794,583.455 996.794,584.788 1001.5,587C 993.452,587.77 985.452,587.603 977.5,586.5C 957.738,582.249 942.904,571.249 933,553.5C 930.456,549.107 929.123,544.44 929,539.5C 935.332,549.665 943.499,557.998 953.5,564.5 Z"/></g>
<g><path style="opacity:1" fill="#64e180" d="M 959.5,558.5 C 957.994,555.222 958.327,552.222 960.5,549.5C 964.179,547.738 967.179,548.571 969.5,552C 972.167,552.333 974.833,552.667 977.5,553C 984.095,557.591 990.095,562.924 995.5,569C 999.167,569.333 1002.83,569.667 1006.5,570C 1010.13,572.63 1013.47,575.63 1016.5,579C 1019.96,578.907 1022.96,579.907 1025.5,582C 1035.34,582.736 1045.01,582.402 1054.5,581C 1057.48,585.886 1056.14,589.053 1050.5,590.5C 1048.44,589.952 1046.78,588.786 1045.5,587C 1042.17,586.833 1038.83,586.667 1035.5,586.5C 1029.18,586.888 1023.18,587.722 1017.5,589C 1016.14,587.055 1015.3,584.888 1015,582.5C 1011.54,580.037 1008.37,577.204 1005.5,574C 1000.57,574.045 995.903,573.045 991.5,571C 987.134,566.299 982.467,561.966 977.5,558C 973.788,555.687 970.455,556.02 967.5,559C 964.739,559.722 962.073,559.555 959.5,558.5 Z"/></g>
<g><path style="opacity:1" fill="#030703" d="M 1012.5,501.5 C 1014.53,501.338 1016.53,501.505 1018.5,502C 1024.13,506.633 1029.47,511.633 1034.5,517C 1037.34,519.758 1040.67,520.758 1044.5,520C 1041,517.666 1038,514.832 1035.5,511.5C 1038.79,513.189 1040.79,512.189 1041.5,508.5C 1046.47,512.132 1051.13,516.132 1055.5,520.5C 1055.04,522.708 1055.04,524.874 1055.5,527C 1063.34,527.171 1071.01,527.671 1078.5,528.5C 1069.49,528.666 1060.49,528.5 1051.5,528C 1045.6,527.721 1039.93,526.721 1034.5,525C 1043.11,533.472 1053.44,538.472 1065.5,540C 1079.83,540.001 1093.17,543.667 1105.5,551C 1133.5,571.504 1142.5,598.338 1132.5,631.5C 1132.66,629.801 1132.49,628.134 1132,626.5C 1131.26,628.596 1130.1,630.263 1128.5,631.5C 1132.86,619.609 1132.36,607.943 1127,596.5C 1119.7,586.435 1109.87,581.601 1097.5,582C 1106.94,587.597 1112.61,595.764 1114.5,606.5C 1113.5,606.5 1112.5,606.5 1111.5,606.5C 1102.76,601.684 1093.76,601.351 1084.5,605.5C 1081.09,603.847 1078.09,604.347 1075.5,607C 1070.17,607.667 1064.83,607.667 1059.5,607C 1056.41,602.374 1052.41,601.374 1047.5,604C 1045.55,605.734 1044.55,607.901 1044.5,610.5C 1039.28,610.758 1034.12,610.425 1029,609.5C 1020.14,612.409 1011.48,612.076 1003,608.5C 1001.12,608.525 999.624,609.191 998.5,610.5C 994.003,609 990.003,606.667 986.5,603.5C 986.5,603.167 986.5,602.833 986.5,602.5C 990.601,606.685 994.267,606.352 997.5,601.5C 1006.51,601.666 1015.51,601.5 1024.5,601C 1026.38,600.802 1028.05,600.302 1029.5,599.5C 1040.94,598.146 1052.27,596.146 1063.5,593.5C 1065.5,594.167 1067.5,594.833 1069.5,595.5C 1071.69,595.243 1073.36,594.243 1074.5,592.5C 1076.26,591.738 1077.26,590.404 1077.5,588.5C 1080.52,588.335 1083.52,588.502 1086.5,589C 1089.76,593.952 1094.26,596.785 1100,597.5C 1101.17,597.167 1102.33,596.833 1103.5,596.5C 1101.75,594.3 1099.41,593.133 1096.5,593C 1094.17,590.667 1091.83,588.333 1089.5,586C 1085.24,584.958 1080.91,584.125 1076.5,583.5C 1075.91,582.201 1074.91,581.368 1073.5,581C 1065.88,578.788 1062.22,581.621 1062.5,589.5C 1040.94,595.655 1018.94,597.821 996.5,596C 994.559,594.097 992.226,593.264 989.5,593.5C 990.598,592.603 990.598,591.77 989.5,591C 994.167,590.667 998.833,590.333 1003.5,590C 994.511,589.263 985.844,588.097 977.5,586.5C 985.452,587.603 993.452,587.77 1001.5,587C 996.794,584.788 991.794,583.455 986.5,583C 981.833,580 977.167,577 972.5,574C 965.685,571.472 959.352,568.306 953.5,564.5C 955.262,564.357 956.929,564.691 958.5,565.5C 959.282,563.671 958.616,562.171 956.5,561C 958.119,560.764 959.119,559.931 959.5,558.5C 962.073,559.555 964.739,559.722 967.5,559C 970.455,556.02 973.788,555.687 977.5,558C 982.467,561.966 987.134,566.299 991.5,571C 995.903,573.045 1000.57,574.045 1005.5,574C 1008.37,577.204 1011.54,580.037 1015,582.5C 1015.3,584.888 1016.14,587.055 1017.5,589C 1023.18,587.722 1029.18,586.888 1035.5,586.5C 1038.83,586.667 1042.17,586.833 1045.5,587C 1046.78,588.786 1048.44,589.952 1050.5,590.5C 1056.14,589.053 1057.48,585.886 1054.5,581C 1045.01,582.402 1035.34,582.736 1025.5,582C 1022.96,579.907 1019.96,578.907 1016.5,579C 1013.47,575.63 1010.13,572.63 1006.5,570C 1002.83,569.667 999.167,569.333 995.5,569C 990.095,562.924 984.095,557.591 977.5,553C 974.833,552.667 972.167,552.333 969.5,552C 967.179,548.571 964.179,547.738 960.5,549.5C 960.414,548.504 960.748,547.671 961.5,547C 959.893,545.951 959.227,544.451 959.5,542.5C 970.651,542.877 981.651,544.377 992.5,547C 994.5,548 996.5,549 998.5,550C 1007.65,560.4 1018.65,568.067 1031.5,573C 1050.84,573.161 1070.17,573.161 1089.5,573C 1091.05,574.892 1092.89,576.392 1095,577.5C 1096.95,577.237 1097.61,576.237 1097,574.5C 1094.54,573.042 1092.37,571.209 1090.5,569C 1071.66,569.012 1053,568.845 1034.5,568.5C 1040.54,568.829 1046.54,568.496 1052.5,567.5C 1050.92,566.702 1049.26,566.202 1047.5,566C 1046.75,565.329 1046.41,564.496 1046.5,563.5C 1051.21,565.527 1054.87,564.361 1057.5,560C 1058.67,559.833 1059.83,559.667 1061,559.5C 1063.83,559.977 1066.5,560.977 1069,562.5C 1070.73,562.054 1072.23,561.221 1073.5,560C 1081.5,559.333 1089.5,559.333 1097.5,560C 1101.09,563.05 1104.59,566.216 1108,569.5C 1109.53,576.935 1113.2,578.268 1119,573.5C 1119.92,570.692 1119.09,568.525 1116.5,567C 1113.71,566.759 1111.04,566.092 1108.5,565C 1105.47,561.63 1102.13,558.63 1098.5,556C 1090.5,555.667 1082.5,555.333 1074.5,555C 1073.22,553.214 1071.56,552.048 1069.5,551.5C 1066.49,552.95 1063.49,554.283 1060.5,555.5C 1056.9,554.402 1053.4,553.069 1050,551.5C 1046.41,551.749 1043.91,553.582 1042.5,557C 1039.7,557.755 1037.03,557.422 1034.5,556C 1032.4,553.591 1030.73,550.924 1029.5,548C 1027.16,547.252 1025.16,547.752 1023.5,549.5C 1023.41,548.504 1023.75,547.671 1024.5,547C 1027.33,546.952 1029.66,545.952 1031.5,544C 1029.73,544.675 1027.89,544.509 1026,543.5C 1024.09,543.285 1022.93,542.285 1022.5,540.5C 1027.18,540.334 1031.85,540.501 1036.5,541C 1038.46,541.953 1040.12,543.287 1041.5,545C 1045.82,545.499 1050.15,545.666 1054.5,545.5C 1054.5,544.167 1054.5,542.833 1054.5,541.5C 1050.4,541.766 1046.4,541.266 1042.5,540C 1039.83,538 1037.17,536 1034.5,534C 1029.5,533.667 1024.5,533.333 1019.5,533C 1013.66,528.33 1008.33,523.163 1003.5,517.5C 1005.2,517.034 1006.7,517.034 1008,517.5C 1007.21,515.5 1007.37,513.5 1008.5,511.5C 1014.76,516.417 1020.76,521.751 1026.5,527.5C 1028.28,526.652 1028.78,525.319 1028,523.5C 1021.4,517.449 1014.9,511.282 1008.5,505C 1002.84,504.501 997.176,504.334 991.5,504.5C 997.319,503.347 1003.32,503.181 1009.5,504C 1011.34,505.48 1013.34,505.48 1015.5,504C 1014.43,503.148 1013.43,502.315 1012.5,501.5 Z"/></g>
<g><path style="opacity:1" fill="#64e07f" d="M 1046.5,563.5 C 1045.4,562.442 1044.07,561.608 1042.5,561C 1039.11,560.754 1035.78,560.254 1032.5,559.5C 1030.23,557.025 1027.56,555.025 1024.5,553.5C 1023.75,552.264 1023.42,550.93 1023.5,549.5C 1025.16,547.752 1027.16,547.252 1029.5,548C 1030.73,550.924 1032.4,553.591 1034.5,556C 1037.03,557.422 1039.7,557.755 1042.5,557C 1043.91,553.582 1046.41,551.749 1050,551.5C 1053.4,553.069 1056.9,554.402 1060.5,555.5C 1063.49,554.283 1066.49,552.95 1069.5,551.5C 1071.56,552.048 1073.22,553.214 1074.5,555C 1082.5,555.333 1090.5,555.667 1098.5,556C 1102.13,558.63 1105.47,561.63 1108.5,565C 1111.04,566.092 1113.71,566.759 1116.5,567C 1119.09,568.525 1119.92,570.692 1119,573.5C 1113.2,578.268 1109.53,576.935 1108,569.5C 1104.59,566.216 1101.09,563.05 1097.5,560C 1089.5,559.333 1081.5,559.333 1073.5,560C 1072.23,561.221 1070.73,562.054 1069,562.5C 1066.5,560.977 1063.83,559.977 1061,559.5C 1059.83,559.667 1058.67,559.833 1057.5,560C 1054.87,564.361 1051.21,565.527 1046.5,563.5 Z"/></g>
<g><path style="opacity:1" fill="#040d01" d="M 1048.5,555.5 C 1052.14,554.737 1053.64,556.07 1053,559.5C 1048.42,561.413 1046.92,560.079 1048.5,555.5 Z"/></g>
<g><path style="opacity:1" fill="#68dd84" d="M 1077.5,588.5 C 1079.5,587.852 1081.5,587.019 1083.5,586C 1078.26,585.65 1073.42,584.15 1069,581.5C 1067.29,581.439 1065.96,582.106 1065,583.5C 1065,586.051 1064.16,588.051 1062.5,589.5C 1062.22,581.621 1065.88,578.788 1073.5,581C 1074.91,581.368 1075.91,582.201 1076.5,583.5C 1080.91,584.125 1085.24,584.958 1089.5,586C 1091.83,588.333 1094.17,590.667 1096.5,593C 1099.41,593.133 1101.75,594.3 1103.5,596.5C 1102.33,596.833 1101.17,597.167 1100,597.5C 1094.26,596.785 1089.76,593.952 1086.5,589C 1083.52,588.502 1080.52,588.335 1077.5,588.5 Z"/></g>
<g><path style="opacity:1" fill="#60ee7f" d="M 1077.5,588.5 C 1077.26,590.404 1076.26,591.738 1074.5,592.5C 1069.55,592.069 1064.55,591.903 1059.5,592C 1060.57,591.148 1061.57,590.315 1062.5,589.5C 1064.16,588.051 1065,586.051 1065,583.5C 1065.96,582.106 1067.29,581.439 1069,581.5C 1073.42,584.15 1078.26,585.65 1083.5,586C 1081.5,587.019 1079.5,587.852 1077.5,588.5 Z"/></g>
<g><path style="opacity:1" fill="#62da7d" d="M 1062.5,589.5 C 1061.57,590.315 1060.57,591.148 1059.5,592C 1064.55,591.903 1069.55,592.069 1074.5,592.5C 1073.36,594.243 1071.69,595.243 1069.5,595.5C 1067.5,594.833 1065.5,594.167 1063.5,593.5C 1052.27,596.146 1040.94,598.146 1029.5,599.5C 1018.67,600.015 1008.01,600.682 997.5,601.5C 994.267,606.352 990.601,606.685 986.5,602.5C 985.924,598.888 986.924,595.888 989.5,593.5C 992.226,593.264 994.559,594.097 996.5,596C 1018.94,597.821 1040.94,595.655 1062.5,589.5 Z"/></g>
<g><path style="opacity:1" fill="#0c2710" d="M 1029.5,599.5 C 1028.05,600.302 1026.38,600.802 1024.5,601C 1015.51,601.5 1006.51,601.666 997.5,601.5C 1008.01,600.682 1018.67,600.015 1029.5,599.5 Z"/></g>
<g><path style="opacity:1" fill="#62dd7d" d="M 1111.5,606.5 C 1104.26,604.721 1096.93,604.221 1089.5,605C 1088.24,605.417 1087.58,606.25 1087.5,607.5C 1086.07,608.833 1084.73,610.333 1083.5,612C 1075.52,611.558 1067.52,611.558 1059.5,612C 1058.04,615.15 1055.54,616.65 1052,616.5C 1045.97,614.626 1039.81,614.126 1033.5,615C 1030.86,618.042 1028.19,618.209 1025.5,615.5C 1027.29,615.785 1028.95,615.452 1030.5,614.5C 1029.62,613.749 1028.62,613.249 1027.5,613C 1020.51,612.5 1013.51,612.334 1006.5,612.5C 1007.01,615.388 1006.34,617.721 1004.5,619.5C 1006.55,615.596 1005.55,613.262 1001.5,612.5C 1001.92,611.778 1002.58,611.278 1003.5,611C 1001.87,610.506 1000.2,610.34 998.5,610.5C 999.624,609.191 1001.12,608.525 1003,608.5C 1011.48,612.076 1020.14,612.409 1029,609.5C 1034.12,610.425 1039.28,610.758 1044.5,610.5C 1044.55,607.901 1045.55,605.734 1047.5,604C 1052.41,601.374 1056.41,602.374 1059.5,607C 1064.83,607.667 1070.17,607.667 1075.5,607C 1078.09,604.347 1081.09,603.847 1084.5,605.5C 1093.76,601.351 1102.76,601.684 1111.5,606.5 Z"/></g>
<g><path style="opacity:1" fill="#051304" d="M 1049.5,606.5 C 1054.67,605.492 1056.33,607.325 1054.5,612C 1052.87,612.494 1051.2,612.66 1049.5,612.5C 1049.5,610.5 1049.5,608.5 1049.5,606.5 Z"/></g>
<g><path style="opacity:1" fill="#60e57e" d="M 986.5,603.5 C 990.003,606.667 994.003,609 998.5,610.5C 1000.2,610.34 1001.87,610.506 1003.5,611C 1002.58,611.278 1001.92,611.778 1001.5,612.5C 999.559,614.011 999.059,616.011 1000,618.5C 1001.36,619.38 1002.86,619.714 1004.5,619.5C 1006.34,617.721 1007.01,615.388 1006.5,612.5C 1013.51,612.334 1020.51,612.5 1027.5,613C 1028.62,613.249 1029.62,613.749 1030.5,614.5C 1028.95,615.452 1027.29,615.785 1025.5,615.5C 1020.5,615.5 1015.5,615.5 1010.5,615.5C 1010.18,617.722 1010.84,619.556 1012.5,621C 1014.72,622.275 1017.05,623.275 1019.5,624C 1031.15,623.565 1042.82,623.565 1054.5,624C 1057.56,626.207 1059.56,629.041 1060.5,632.5C 1057.05,632.474 1054.38,630.974 1052.5,628C 1038.84,627.924 1025.17,628.09 1011.5,628.5C 1006.28,627.224 1001.28,625.391 996.5,623C 991.672,619.419 986.672,616.085 981.5,613C 971.849,608.509 962.515,603.509 953.5,598C 950.667,595.167 947.833,592.333 945,589.5C 944.333,588.833 944.333,588.167 945,587.5C 947.921,589.712 951.088,591.545 954.5,593C 965.417,595.942 976.083,599.442 986.5,603.5 Z"/></g>
<g><path style="opacity:1" fill="#08110a" d="M 1001.5,612.5 C 1005.55,613.262 1006.55,615.596 1004.5,619.5C 1002.86,619.714 1001.36,619.38 1000,618.5C 999.059,616.011 999.559,614.011 1001.5,612.5 Z"/></g>
<g><path style="opacity:1" fill="#040903" d="M 1075.5,671.5 C 1075.5,670.5 1075.5,669.5 1075.5,668.5C 1076.68,668.719 1077.68,668.386 1078.5,667.5C 1076.88,666.305 1075.21,665.305 1073.5,664.5C 1081.97,656.2 1090.64,648.033 1099.5,640C 1095.19,639.545 1091.19,640.545 1087.5,643C 1077.45,650.352 1067.11,657.186 1056.5,663.5C 1056.9,661.338 1058.23,660.005 1060.5,659.5C 1059.05,658.646 1057.72,657.646 1056.5,656.5C 1055.17,657.833 1053.83,659.167 1052.5,660.5C 1046.2,658.913 1039.86,657.913 1033.5,657.5C 1051.67,658.415 1067.34,652.582 1080.5,640C 1072.53,640.369 1064.53,640.369 1056.5,640C 1052.1,641.617 1048.27,644.117 1045,647.5C 1043.94,645.781 1043.11,643.947 1042.5,642C 1039.5,641.333 1036.5,641.333 1033.5,642C 1024.62,645.466 1015.62,647.966 1006.5,649.5C 1005.6,648.402 1004.77,648.402 1004,649.5C 1003.38,648.551 1003.55,647.718 1004.5,647C 1008.54,646.827 1012.54,646.327 1016.5,645.5C 1010.53,644.67 1004.53,644.17 998.5,644C 996.563,643.878 995.23,643.045 994.5,641.5C 999.683,643.35 1005.02,643.85 1010.5,643C 1017.92,641.453 1025.25,639.62 1032.5,637.5C 1038.12,636.646 1043.79,636.313 1049.5,636.5C 1049.5,635.5 1049.5,634.5 1049.5,633.5C 1040.81,633.368 1032.14,633.701 1023.5,634.5C 1028.41,632.711 1033.74,631.878 1039.5,632C 1030.07,630.457 1020.73,629.29 1011.5,628.5C 1025.17,628.09 1038.84,627.924 1052.5,628C 1054.38,630.974 1057.05,632.474 1060.5,632.5C 1059.56,629.041 1057.56,626.207 1054.5,624C 1042.82,623.565 1031.15,623.565 1019.5,624C 1017.05,623.275 1014.72,622.275 1012.5,621C 1010.84,619.556 1010.18,617.722 1010.5,615.5C 1015.5,615.5 1020.5,615.5 1025.5,615.5C 1028.19,618.209 1030.86,618.042 1033.5,615C 1039.81,614.126 1045.97,614.626 1052,616.5C 1055.54,616.65 1058.04,615.15 1059.5,612C 1067.52,611.558 1075.52,611.558 1083.5,612C 1084.73,610.333 1086.07,608.833 1087.5,607.5C 1097.48,605.737 1105.31,609.07 1111,617.5C 1112.4,621.072 1112.74,624.739 1112,628.5C 1109.33,637.153 1105,644.819 1099,651.5C 1091.59,658.752 1083.75,665.419 1075.5,671.5 Z"/></g>
<g><path style="opacity:1" fill="#80da95" d="M 1089.5,620.5 C 1080.99,621.167 1072.32,621.833 1063.5,622.5C 1072.66,623.167 1081.66,623.833 1090.5,624.5C 1081.17,624.5 1071.83,624.5 1062.5,624.5C 1062.5,623.167 1062.5,621.833 1062.5,620.5C 1071.5,620.5 1080.5,620.5 1089.5,620.5 Z"/></g>
<g><path style="opacity:1" fill="#64e881" d="M 1090.5,624.5 C 1081.66,623.833 1072.66,623.167 1063.5,622.5C 1072.32,621.833 1080.99,621.167 1089.5,620.5C 1092.23,618.45 1095.23,616.784 1098.5,615.5C 1104.64,616.811 1106.81,620.477 1105,626.5C 1099.4,630.946 1094.56,630.279 1090.5,624.5 Z"/></g>
<g><path style="opacity:1" fill="#61eb7f" d="M 1128.5,631.5 C 1118.05,654.246 1100.39,668.246 1075.5,673.5C 1074.54,673.03 1074.54,672.363 1075.5,671.5C 1083.75,665.419 1091.59,658.752 1099,651.5C 1105,644.819 1109.33,637.153 1112,628.5C 1112.74,624.739 1112.4,621.072 1111,617.5C 1105.31,609.07 1097.48,605.737 1087.5,607.5C 1087.58,606.25 1088.24,605.417 1089.5,605C 1096.93,604.221 1104.26,604.721 1111.5,606.5C 1112.5,606.5 1113.5,606.5 1114.5,606.5C 1112.61,595.764 1106.94,587.597 1097.5,582C 1109.87,581.601 1119.7,586.435 1127,596.5C 1132.36,607.943 1132.86,619.609 1128.5,631.5 Z"/></g>
<g><path style="opacity:1" fill="#5dc873" d="M 1032.5,637.5 C 1032.61,636.883 1032.94,636.383 1033.5,636C 1027.68,635.943 1021.85,636.11 1016,636.5C 1012.5,636.333 1009,636.167 1005.5,636C 1004.94,635.617 1004.61,635.117 1004.5,634.5C 1010.83,635.833 1017.17,635.833 1023.5,634.5C 1032.14,633.701 1040.81,633.368 1049.5,633.5C 1049.5,634.5 1049.5,635.5 1049.5,636.5C 1043.79,636.313 1038.12,636.646 1032.5,637.5 Z"/></g>
<g><path style="opacity:1" fill="#60ea7e" d="M 1004.5,634.5 C 1004.61,635.117 1004.94,635.617 1005.5,636C 1009,636.167 1012.5,636.333 1016,636.5C 1021.85,636.11 1027.68,635.943 1033.5,636C 1032.94,636.383 1032.61,636.883 1032.5,637.5C 1025.25,639.62 1017.92,641.453 1010.5,643C 1005.02,643.85 999.683,643.35 994.5,641.5C 988.914,639.367 983.914,636.201 979.5,632C 982.884,630.314 986.384,628.814 990,627.5C 994.721,630.279 999.554,632.612 1004.5,634.5 Z"/></g>
<g><path style="opacity:1" fill="#63e780" d="M 1033.5,657.5 C 1023.76,657.092 1014.76,654.425 1006.5,649.5C 1015.62,647.966 1024.62,645.466 1033.5,642C 1036.5,641.333 1039.5,641.333 1042.5,642C 1043.11,643.947 1043.94,645.781 1045,647.5C 1048.27,644.117 1052.1,641.617 1056.5,640C 1064.53,640.369 1072.53,640.369 1080.5,640C 1067.34,652.582 1051.67,658.415 1033.5,657.5 Z"/></g>
<g><path style="opacity:1" fill="#61e980" d="M 1073.5,664.5 C 1068.65,667.09 1063.65,669.424 1058.5,671.5C 1056.86,671.52 1055.52,670.853 1054.5,669.5C 1053.5,670 1052.5,670.5 1051.5,671C 1051.83,671.333 1052.17,671.667 1052.5,672C 1045.17,672.667 1037.83,672.667 1030.5,672C 1035.82,671.316 1041.16,670.816 1046.5,670.5C 1046.43,669.041 1046.77,667.708 1047.5,666.5C 1050.55,665.654 1053.55,664.654 1056.5,663.5C 1067.11,657.186 1077.45,650.352 1087.5,643C 1091.19,640.545 1095.19,639.545 1099.5,640C 1090.64,648.033 1081.97,656.2 1073.5,664.5 Z"/></g>
<g><path style="opacity:1" fill="#62d07b" d="M 1047.5,666.5 C 1046.77,667.708 1046.43,669.041 1046.5,670.5C 1041.16,670.816 1035.82,671.316 1030.5,672C 1037.83,672.667 1045.17,672.667 1052.5,672C 1052.17,671.667 1051.83,671.333 1051.5,671C 1052.5,670.5 1053.5,670 1054.5,669.5C 1055.52,670.853 1056.86,671.52 1058.5,671.5C 1052.85,673.775 1046.85,674.775 1040.5,674.5C 1035.02,675.095 1030.02,673.928 1025.5,671C 1026.17,670.667 1026.83,670.333 1027.5,670C 1033.2,669.83 1038.86,669.33 1044.5,668.5C 1045,667.081 1046,666.415 1047.5,666.5 Z"/></g>
<g><path style="opacity:1" fill="#65e381" d="M 300.5,593.5 C 299.767,602.565 298.6,611.565 297,620.5C 296.333,644.167 296.333,667.833 297,691.5C 297.333,691.833 297.667,692.167 298,692.5C 298.333,684.167 298.667,675.833 299,667.5C 300.084,681.213 301.25,694.88 302.5,708.5C 301.022,708.238 299.689,708.571 298.5,709.5C 300.289,712.556 300.956,715.889 300.5,719.5C 299.379,717.046 298.546,714.379 298,711.5C 294.25,680.572 293.583,649.572 296,618.5C 296.776,609.899 298.276,601.566 300.5,593.5 Z"/></g>
<g><path style="opacity:1" fill="#040b03" d="M 796.5,696.5 C 813.323,707.842 825.156,723.175 832,742.5C 839.169,760.534 840.169,778.867 835,797.5C 833.809,768.726 825.809,742.059 811,717.5C 806.131,710.395 801.298,703.395 796.5,696.5 Z"/></g>
<g><path style="opacity:1" fill="#65e381" d="M 607.5,759.5 C 581.876,759.935 556.543,758.268 531.5,754.5C 538.516,754.681 545.349,754.014 552,752.5C 556.87,752.647 561.703,753.147 566.5,754C 561.833,754.333 557.167,754.667 552.5,755C 552.833,755.333 553.167,755.667 553.5,756C 570.352,754.888 587.352,754.555 604.5,755C 597.875,756.045 591.208,756.711 584.5,757C 592.18,758.134 599.846,758.967 607.5,759.5 Z"/></g>
<g><path style="opacity:1" fill="#68c77c" d="M 943.5,754.5 C 943.434,762.524 942.934,770.524 942,778.5C 941.502,782.491 940.335,786.158 938.5,789.5C 940.71,777.781 942.377,766.115 943.5,754.5 Z"/></g>
<g><path style="opacity:1" fill="#5ab96f" d="M 884.5,767.5 C 885.653,773.653 885.82,779.986 885,786.5C 884.267,792.826 883.601,799.16 883,805.5C 882.454,808.379 881.621,811.046 880.5,813.5C 882.889,798.273 884.222,782.94 884.5,767.5 Z"/></g>
<g><path style="opacity:1" fill="#62d57c" d="M 469.5,842.5 C 475.516,842.902 481.516,843.569 487.5,844.5C 491.351,844.353 495.184,844.02 499,843.5C 501.681,844.582 504.181,845.915 506.5,847.5C 496.804,847.08 487.137,846.247 477.5,845C 474.543,844.721 471.877,843.887 469.5,842.5 Z"/></g>
<g><path style="opacity:1" fill="#6ed383" d="M 677.5,839.5 C 684.165,851.869 687.165,865.202 686.5,879.5C 686.589,886.059 685.923,892.392 684.5,898.5C 685.764,886.83 685.764,875.163 684.5,863.5C 683.325,863.719 682.325,863.386 681.5,862.5C 682.585,859.227 682.752,855.894 682,852.5C 679.372,848.574 677.872,844.24 677.5,839.5 Z"/></g>
<g><path style="opacity:1" fill="#5ebf72" d="M 423.5,919.5 C 424.404,920.209 424.737,921.209 424.5,922.5C 416.115,922.682 407.782,923.348 399.5,924.5C 406.572,922.559 413.905,921.392 421.5,921C 422.416,920.722 423.082,920.222 423.5,919.5 Z"/></g>
<g><path style="opacity:1" fill="#67cb7c" d="M 468.5,975.5 C 475.5,975.923 482.5,976.423 489.5,977C 493.976,977.903 498.31,979.07 502.5,980.5C 491.001,979.06 479.668,977.393 468.5,975.5 Z"/></g>
</svg>
