<?xml version="1.0" encoding="UTF-8"?>
<!DOCTYPE svg PUBLIC "-//W3C//DTD SVG 1.1//EN" "http://www.w3.org/Graphics/SVG/1.1/DTD/svg11.dtd">
<svg xmlns="http://www.w3.org/2000/svg" version="1.1" width="492px" height="512px" style="shape-rendering:geometricPrecision; text-rendering:geometricPrecision; image-rendering:optimizeQuality; fill-rule:evenodd; clip-rule:evenodd" xmlns:xlink="http://www.w3.org/1999/xlink">
<g><path style="opacity:1" fill="#fefefe" d="M -0.5,-0.5 C 163.5,-0.5 327.5,-0.5 491.5,-0.5C 491.5,170.167 491.5,340.833 491.5,511.5C 327.5,511.5 163.5,511.5 -0.5,511.5C -0.5,340.833 -0.5,170.167 -0.5,-0.5 Z"/></g>
<g><path style="opacity:1" fill="#a4a2a3" d="M 276.5,35.5 C 260.5,35.5 244.5,35.5 228.5,35.5C 228.5,42.5 228.5,49.5 228.5,56.5C 227.508,49.3524 227.175,42.0191 227.5,34.5C 244.009,34.1702 260.342,34.5036 276.5,35.5 Z"/></g>
<g><path style="opacity:1" fill="#a2a0a1" d="M 345.5,35.5 C 329.5,35.5 313.5,35.5 297.5,35.5C 297.5,42.5 297.5,49.5 297.5,56.5C 296.508,49.3524 296.175,42.0191 296.5,34.5C 313.009,34.1702 329.342,34.5036 345.5,35.5 Z"/></g>
<g><path style="opacity:1" fill="#231f20" d="M 345.5,35.5 C 345.5,42.1667 345.5,48.8333 345.5,55.5C 339.463,55.1707 333.463,55.5041 327.5,56.5C 327.624,57.1067 327.957,57.44 328.5,57.5C 333.5,63.1667 338.833,68.5 344.5,73.5C 345.46,80.0779 345.793,86.7446 345.5,93.5C 329.5,93.5 313.5,93.5 297.5,93.5C 297.5,87.5 297.5,81.5 297.5,75.5C 303.868,75.8297 310.202,75.4963 316.5,74.5C 316.376,73.8933 316.043,73.56 315.5,73.5C 309.5,67.8333 303.5,62.1667 297.5,56.5C 297.5,49.5 297.5,42.5 297.5,35.5C 313.5,35.5 329.5,35.5 345.5,35.5 Z"/></g>
<g><path style="opacity:1" fill="#807f80" d="M 207.5,55.5 C 207.167,55.5 206.833,55.5 206.5,55.5C 206.5,48.8333 206.5,42.1667 206.5,35.5C 190.833,35.5 175.167,35.5 159.5,35.5C 159.5,54.8333 159.5,74.1667 159.5,93.5C 175.167,93.5 190.833,93.5 206.5,93.5C 206.833,93.5 207.167,93.5 207.5,93.5C 191.342,94.4964 175.009,94.8298 158.5,94.5C 158.5,74.5 158.5,54.5 158.5,34.5C 174.833,34.5 191.167,34.5 207.5,34.5C 207.5,41.5 207.5,48.5 207.5,55.5 Z"/></g>
<g><path style="opacity:1" fill="#221f20" d="M 206.5,55.5 C 197.5,55.5 188.5,55.5 179.5,55.5C 179.5,61.8333 179.5,68.1667 179.5,74.5C 188.318,75.4933 197.318,75.8266 206.5,75.5C 206.5,81.5 206.5,87.5 206.5,93.5C 190.833,93.5 175.167,93.5 159.5,93.5C 159.5,74.1667 159.5,54.8333 159.5,35.5C 175.167,35.5 190.833,35.5 206.5,35.5C 206.5,42.1667 206.5,48.8333 206.5,55.5 Z"/></g>
<g><path style="opacity:1" fill="#232021" d="M 276.5,35.5 C 276.5,42.1667 276.5,48.8333 276.5,55.5C 270.463,55.1707 264.463,55.5041 258.5,56.5C 258.624,57.1067 258.957,57.44 259.5,57.5C 264.5,63.1667 269.833,68.5 275.5,73.5C 276.46,80.0779 276.793,86.7446 276.5,93.5C 260.5,93.5 244.5,93.5 228.5,93.5C 228.5,87.5 228.5,81.5 228.5,75.5C 234.868,75.8297 241.202,75.4963 247.5,74.5C 247.376,73.8933 247.043,73.56 246.5,73.5C 240.5,67.8333 234.5,62.1667 228.5,56.5C 228.5,49.5 228.5,42.5 228.5,35.5C 244.5,35.5 260.5,35.5 276.5,35.5 Z"/></g>
<g><path style="opacity:1" fill="#9f9e9f" d="M 206.5,55.5 C 206.833,55.5 207.167,55.5 207.5,55.5C 198.682,56.4933 189.682,56.8266 180.5,56.5C 180.5,62.5 180.5,68.5 180.5,74.5C 180.167,74.5 179.833,74.5 179.5,74.5C 179.5,68.1667 179.5,61.8333 179.5,55.5C 188.5,55.5 197.5,55.5 206.5,55.5 Z"/></g>
<g><path style="opacity:1" fill="#979596" d="M 276.5,55.5 C 270.833,56.1667 265.167,56.8333 259.5,57.5C 258.957,57.44 258.624,57.1067 258.5,56.5C 264.463,55.5041 270.463,55.1707 276.5,55.5 Z"/></g>
<g><path style="opacity:1" fill="#979596" d="M 345.5,55.5 C 339.833,56.1667 334.167,56.8333 328.5,57.5C 327.957,57.44 327.624,57.1067 327.5,56.5C 333.463,55.5041 339.463,55.1707 345.5,55.5 Z"/></g>
<g><path style="opacity:1" fill="#656364" d="M 179.5,74.5 C 179.833,74.5 180.167,74.5 180.5,74.5C 189.5,74.5 198.5,74.5 207.5,74.5C 207.5,80.8333 207.5,87.1667 207.5,93.5C 207.167,93.5 206.833,93.5 206.5,93.5C 206.5,87.5 206.5,81.5 206.5,75.5C 197.318,75.8266 188.318,75.4933 179.5,74.5 Z"/></g>
<g><path style="opacity:1" fill="#747273" d="M 246.5,73.5 C 247.043,73.56 247.376,73.8933 247.5,74.5C 241.202,75.4963 234.868,75.8297 228.5,75.5C 228.5,81.5 228.5,87.5 228.5,93.5C 227.51,87.3554 227.177,81.0221 227.5,74.5C 234.022,74.8235 240.355,74.4902 246.5,73.5 Z"/></g>
<g><path style="opacity:1" fill="#706f6f" d="M 315.5,73.5 C 316.043,73.56 316.376,73.8933 316.5,74.5C 310.202,75.4963 303.868,75.8297 297.5,75.5C 297.5,81.5 297.5,87.5 297.5,93.5C 296.51,87.3554 296.177,81.0221 296.5,74.5C 303.022,74.8235 309.355,74.4902 315.5,73.5 Z"/></g>
<g><path style="opacity:1" fill="#acabab" d="M 275.5,73.5 C 276.82,76.428 277.486,79.7614 277.5,83.5C 277.498,87.0175 277.165,90.3509 276.5,93.5C 276.793,86.7446 276.46,80.0779 275.5,73.5 Z"/></g>
<g><path style="opacity:1" fill="#aba8a9" d="M 344.5,73.5 C 345.82,76.428 346.486,79.7614 346.5,83.5C 346.498,87.0175 346.165,90.3509 345.5,93.5C 345.793,86.7446 345.46,80.0779 344.5,73.5 Z"/></g>
<g><path style="opacity:1" fill="#eafafd" d="M 408.5,145.5 C 408.5,142.833 408.5,140.167 408.5,137.5C 408.5,134.167 408.5,130.833 408.5,127.5C 409.461,125.735 409.795,123.735 409.5,121.5C 304.665,121.167 199.999,121.501 95.5,122.5C 95.5,123.833 95.5,125.167 95.5,126.5C 95.5,126.833 95.5,127.167 95.5,127.5C 95.5,130.167 95.5,132.833 95.5,135.5C 95.5,138.167 95.5,140.833 95.5,143.5C 93.4823,138.188 91.8157,132.521 90.5,126.5C 91.0736,124.941 91.7402,123.441 92.5,122C 92.1667,121.667 91.8333,121.333 91.5,121C 92.9308,120.535 94.0975,119.701 95,118.5C 200.43,119.332 305.93,119.832 411.5,120C 412.167,120.333 412.833,120.667 413.5,121C 412.095,128.42 410.929,135.92 410,143.5C 409.722,144.416 409.222,145.082 408.5,145.5 Z"/></g>
<g><path style="opacity:1" fill="#4f769a" d="M 95.5,122.5 C 199.999,121.501 304.665,121.167 409.5,121.5C 409.795,123.735 409.461,125.735 408.5,127.5C 408.5,125.833 408.5,124.167 408.5,122.5C 304.167,122.5 199.833,122.5 95.5,122.5 Z"/></g>
<g><path style="opacity:1" fill="#2e61a0" d="M 95.5,122.5 C 199.833,122.5 304.167,122.5 408.5,122.5C 408.5,124.167 408.5,125.833 408.5,127.5C 408.5,130.833 408.5,134.167 408.5,137.5C 406.761,144.588 406.094,151.921 406.5,159.5C 405.5,164.833 404.5,170.167 403.5,175.5C 404.585,163.603 404.585,151.77 403.5,140C 405.543,134.726 406.543,129.226 406.5,123.5C 404.585,123.216 402.919,123.549 401.5,124.5C 304.872,123.172 208.205,123.172 111.5,124.5C 106.198,125.467 100.865,126.133 95.5,126.5C 95.5,125.167 95.5,123.833 95.5,122.5 Z"/></g>
<g><path style="opacity:1" fill="#2461ab" d="M 401.5,124.5 C 401.389,125.117 401.056,125.617 400.5,126C 392.119,126.534 383.785,126.034 375.5,124.5C 356.849,126.835 338.182,126.835 319.5,124.5C 311.471,124.835 303.471,125.502 295.5,126.5C 290.167,125.833 284.833,125.167 279.5,124.5C 258.167,127.167 236.833,127.167 215.5,124.5C 210.167,125.167 204.833,125.833 199.5,126.5C 194.167,125.833 188.833,125.167 183.5,124.5C 167.5,127.167 151.5,127.167 135.5,124.5C 124.544,125.903 113.544,126.736 102.5,127C 103.684,128.18 104.351,129.68 104.5,131.5C 103.665,138.633 102.331,145.466 100.5,152C 102.249,161.819 103.082,171.652 103,181.5C 103.333,181.167 103.667,180.833 104,180.5C 104.327,175.209 105.16,170.042 106.5,165C 105.594,163.301 105.261,161.467 105.5,159.5C 106.873,159.343 108.207,159.51 109.5,160C 108.862,168.856 107.695,177.689 106,186.5C 105.513,198.837 105.013,211.171 104.5,223.5C 103.752,217.634 103.086,211.634 102.5,205.5C 102.324,195.265 101.324,185.265 99.5,175.5C 99.915,160.777 99.2483,146.11 97.5,131.5C 97.4146,129.667 96.7479,128.334 95.5,127.5C 95.5,127.167 95.5,126.833 95.5,126.5C 100.865,126.133 106.198,125.467 111.5,124.5C 208.205,123.172 304.872,123.172 401.5,124.5 Z"/></g>
<g><path style="opacity:1" fill="#2061af" d="M 403.5,175.5 C 402.698,176.952 402.198,178.618 402,180.5C 400.982,194.828 400.148,209.161 399.5,223.5C 398.213,224.871 397.547,226.705 397.5,229C 393.385,269.2 390.052,309.367 387.5,349.5C 387.5,350.167 387.5,350.833 387.5,351.5C 385.539,358.087 384.872,365.087 385.5,372.5C 385.5,373.167 385.5,373.833 385.5,374.5C 384.883,374.611 384.383,374.944 384,375.5C 381.019,396.671 378.853,418.004 377.5,439.5C 374.603,439.319 371.77,439.652 369,440.5C 366.117,437.681 363.95,438.181 362.5,442C 358.396,443.385 354.729,445.218 351.5,447.5C 350.5,447.5 349.5,447.5 348.5,447.5C 333.843,449.652 319.343,452.986 305,457.5C 303.97,457.836 303.47,458.503 303.5,459.5C 298.503,461.749 293.17,463.083 287.5,463.5C 280.137,463.799 272.97,465.133 266,467.5C 257.861,466.132 249.695,464.798 241.5,463.5C 237.543,464.537 233.543,465.204 229.5,465.5C 224.889,464.515 220.222,463.848 215.5,463.5C 214.833,463.5 214.167,463.5 213.5,463.5C 212.571,462.685 211.571,461.852 210.5,461C 206.198,460.455 202.198,459.122 198.5,457C 189.059,454.197 179.392,452.364 169.5,451.5C 167.901,451.768 166.568,451.434 165.5,450.5C 162.237,448.432 158.57,447.432 154.5,447.5C 152.833,447.5 151.167,447.5 149.5,447.5C 147.786,446.262 145.786,445.595 143.5,445.5C 143.5,444.833 143.167,444.5 142.5,444.5C 140.701,443.73 139.368,442.397 138.5,440.5C 133.719,439.784 129.052,438.784 124.5,437.5C 124.666,428.161 124.5,418.827 124,409.5C 122.308,406.26 121.141,402.927 120.5,399.5C 120.5,398.167 120.5,396.833 120.5,395.5C 120.217,364.461 117.55,333.795 112.5,303.5C 112.167,303.5 111.833,303.5 111.5,303.5C 111.5,301.5 111.5,299.5 111.5,297.5C 110.724,273.079 108.891,248.745 106,224.5C 105.617,223.944 105.117,223.611 104.5,223.5C 105.013,211.171 105.513,198.837 106,186.5C 107.695,177.689 108.862,168.856 109.5,160C 108.207,159.51 106.873,159.343 105.5,159.5C 105.261,161.467 105.594,163.301 106.5,165C 105.16,170.042 104.327,175.209 104,180.5C 103.667,180.833 103.333,181.167 103,181.5C 103.082,171.652 102.249,161.819 100.5,152C 102.331,145.466 103.665,138.633 104.5,131.5C 104.351,129.68 103.684,128.18 102.5,127C 113.544,126.736 124.544,125.903 135.5,124.5C 151.5,127.167 167.5,127.167 183.5,124.5C 188.833,125.167 194.167,125.833 199.5,126.5C 204.833,125.833 210.167,125.167 215.5,124.5C 236.833,127.167 258.167,127.167 279.5,124.5C 284.833,125.167 290.167,125.833 295.5,126.5C 303.471,125.502 311.471,124.835 319.5,124.5C 338.182,126.835 356.849,126.835 375.5,124.5C 383.785,126.034 392.119,126.534 400.5,126C 401.056,125.617 401.389,125.117 401.5,124.5C 402.919,123.549 404.585,123.216 406.5,123.5C 406.543,129.226 405.543,134.726 403.5,140C 404.585,151.77 404.585,163.603 403.5,175.5 Z"/></g>
<g><path style="opacity:1" fill="#4c74a4" d="M 95.5,127.5 C 96.7479,128.334 97.4146,129.667 97.5,131.5C 99.2483,146.11 99.915,160.777 99.5,175.5C 98.4213,162.144 97.088,148.811 95.5,135.5C 95.5,132.833 95.5,130.167 95.5,127.5 Z"/></g>
<g><path style="opacity:1" fill="#2065ad" d="M 372.5,146.5 C 332.33,146.168 292.33,146.501 252.5,147.5C 252.5,159.833 252.5,172.167 252.5,184.5C 252.167,184.5 251.833,184.5 251.5,184.5C 220.662,184.831 189.995,184.498 159.5,183.5C 189.169,183.667 218.835,183.5 248.5,183C 248.541,172.337 248.541,161.67 248.5,151C 248.809,147.561 250.476,145.061 253.5,143.5C 293.245,145.144 332.911,146.144 372.5,146.5 Z"/></g>
<g><path style="opacity:1" fill="#3995d5" d="M 252.5,147.5 C 294.833,147.5 337.167,147.5 379.5,147.5C 376.526,186.833 373.359,226.166 370,265.5C 369.472,269.699 368.639,273.699 367.5,277.5C 367.942,262.302 368.942,247.135 370.5,232C 369.863,225.497 369.197,218.997 368.5,212.5C 368.598,210.381 369.431,208.714 371,207.5C 373.595,196.173 375.095,184.673 375.5,173C 375.415,171.893 375.081,170.893 374.5,170C 375.729,163.895 376.729,157.728 377.5,151.5C 374.722,149.975 371.722,148.975 368.5,148.5C 330.876,149.494 293.21,149.827 255.5,149.5C 255.98,159.428 255.313,169.261 253.5,179C 253.921,180.989 254.588,182.823 255.5,184.5C 254.5,184.5 253.5,184.5 252.5,184.5C 252.5,172.167 252.5,159.833 252.5,147.5 Z"/></g>
<g><path style="opacity:1" fill="#359bd5" d="M 367.5,277.5 C 367.5,280.833 367.5,284.167 367.5,287.5C 367.167,287.5 366.833,287.5 366.5,287.5C 364.704,292.804 363.37,298.47 362.5,304.5C 362.987,305.446 363.32,306.446 363.5,307.5C 362.876,317.354 361.542,327.02 359.5,336.5C 360.046,337.772 360.379,339.106 360.5,340.5C 359.419,360.828 357.419,380.995 354.5,401C 354.735,405.708 354.735,410.541 354.5,415.5C 353.5,415.5 352.5,415.5 351.5,415.5C 351.5,416.833 351.5,418.167 351.5,419.5C 338.217,423.49 324.884,427.49 311.5,431.5C 310.833,431.5 310.167,431.5 309.5,431.5C 290.507,436.63 271.507,441.63 252.5,446.5C 252.5,433.5 252.5,420.5 252.5,407.5C 263.679,405.963 274.679,403.463 285.5,400C 286.756,399.583 287.423,398.75 287.5,397.5C 292.781,396.444 298.114,395.777 303.5,395.5C 308.958,395.135 314.292,394.135 319.5,392.5C 319.34,394.199 319.506,395.866 320,397.5C 321.158,397.002 321.991,396.169 322.5,395C 321.453,393.422 321.453,391.922 322.5,390.5C 326.608,389.473 330.608,388.14 334.5,386.5C 335.386,385.675 335.719,384.675 335.5,383.5C 337.167,383.5 338.833,383.5 340.5,383.5C 340.768,377.618 340.434,371.785 339.5,366C 339.945,361.01 340.945,356.177 342.5,351.5C 343.495,346.208 343.828,340.875 343.5,335.5C 342.5,335.5 341.5,335.5 340.5,335.5C 341.069,322.303 342.569,322.303 345,335.5C 345.499,330.177 345.666,324.844 345.5,319.5C 344.5,319.5 343.5,319.5 342.5,319.5C 342.155,306.754 342.988,294.088 345,281.5C 345.605,279.519 346.605,279.185 348,280.5C 348.498,277.518 348.665,274.518 348.5,271.5C 347.5,271.5 346.5,271.5 345.5,271.5C 345.802,268.941 345.468,266.607 344.5,264.5C 319.52,262.674 294.186,261.84 268.5,262C 270.119,261.764 271.119,260.931 271.5,259.5C 271.369,258.624 271.702,257.957 272.5,257.5C 279.25,254.501 285.917,251.501 292.5,248.5C 293.058,247.21 294.058,246.377 295.5,246C 298.279,245.439 300.946,244.606 303.5,243.5C 309.041,242.39 314.375,240.723 319.5,238.5C 322.122,237.541 324.122,235.875 325.5,233.5C 327.153,233.34 328.486,232.674 329.5,231.5C 329.833,231.5 330.167,231.5 330.5,231.5C 330.833,231.5 331.167,231.5 331.5,231.5C 334.518,231.665 337.518,231.498 340.5,231C 343.226,229.312 346.059,227.812 349,226.5C 350.165,214.853 350.999,203.186 351.5,191.5C 351.5,189.5 351.5,187.5 351.5,185.5C 350.5,185.5 349.5,185.5 348.5,185.5C 317.671,184.502 286.671,184.169 255.5,184.5C 254.588,182.823 253.921,180.989 253.5,179C 255.313,169.261 255.98,159.428 255.5,149.5C 293.21,149.827 330.876,149.494 368.5,148.5C 371.722,148.975 374.722,149.975 377.5,151.5C 376.729,157.728 375.729,163.895 374.5,170C 375.081,170.893 375.415,171.893 375.5,173C 375.095,184.673 373.595,196.173 371,207.5C 369.431,208.714 368.598,210.381 368.5,212.5C 369.197,218.997 369.863,225.497 370.5,232C 368.942,247.135 367.942,262.302 367.5,277.5 Z"/></g>
<g><path style="opacity:1" fill="#8fb0ca" d="M 408.5,137.5 C 408.5,140.167 408.5,142.833 408.5,145.5C 407.617,150.103 407.283,154.77 407.5,159.5C 407.167,159.5 406.833,159.5 406.5,159.5C 406.094,151.921 406.761,144.588 408.5,137.5 Z"/></g>
<g><path style="opacity:1" fill="#8fafce" d="M 406.5,159.5 C 406.468,167.757 405.468,175.757 403.5,183.5C 403.5,180.833 403.5,178.167 403.5,175.5C 404.5,170.167 405.5,164.833 406.5,159.5 Z"/></g>
<g><path style="opacity:1" fill="#dbecf5" d="M 406.5,159.5 C 406.833,159.5 407.167,159.5 407.5,159.5C 406.374,180.407 404.874,201.407 403,222.5C 402.963,227.582 401.797,232.249 399.5,236.5C 399.5,232.167 399.5,227.833 399.5,223.5C 401.789,210.418 403.123,197.084 403.5,183.5C 405.468,175.757 406.468,167.757 406.5,159.5 Z"/></g>
<g><path style="opacity:1" fill="#5f8eb4" d="M 251.5,184.5 C 251.833,184.5 252.167,184.5 252.5,184.5C 253.5,184.5 254.5,184.5 255.5,184.5C 286.671,184.169 317.671,184.502 348.5,185.5C 316.329,185.168 284.329,185.502 252.5,186.5C 219.167,186.5 185.833,186.5 152.5,186.5C 185.5,185.833 218.5,185.167 251.5,184.5 Z"/></g>
<g><path style="opacity:1" fill="#80b5cc" d="M 252.5,186.5 C 284.329,185.502 316.329,185.168 348.5,185.5C 349.5,185.5 350.5,185.5 351.5,185.5C 351.5,187.5 351.5,189.5 351.5,191.5C 350.139,195.759 349.139,200.093 348.5,204.5C 348.701,198.491 349.034,192.491 349.5,186.5C 317.167,186.5 284.833,186.5 252.5,186.5 Z"/></g>
<g><path style="opacity:1" fill="#d7f8fe" d="M 252.5,187.5 C 252.5,187.167 252.5,186.833 252.5,186.5C 284.833,186.5 317.167,186.5 349.5,186.5C 349.034,192.491 348.701,198.491 348.5,204.5C 348.5,205.5 348.5,206.5 348.5,207.5C 348.167,207.5 347.833,207.5 347.5,207.5C 347.5,200.833 347.5,194.167 347.5,187.5C 315.833,187.5 284.167,187.5 252.5,187.5 Z"/></g>
<g><path style="opacity:1" fill="#c6dcf3" d="M 152.5,186.5 C 185.833,186.5 219.167,186.5 252.5,186.5C 252.5,186.833 252.5,187.167 252.5,187.5C 252.167,187.5 251.833,187.5 251.5,187.5C 219.146,187.203 186.813,187.536 154.5,188.5C 154.335,191.85 154.502,195.183 155,198.5C 155.383,199.056 155.883,199.389 156.5,199.5C 156.5,202.167 156.5,204.833 156.5,207.5C 156.5,209.5 156.5,211.5 156.5,213.5C 156.167,213.5 155.833,213.5 155.5,213.5C 154.582,204.49 153.582,195.49 152.5,186.5 Z"/></g>
<g><path style="opacity:1" fill="#dee5ec" d="M 251.5,187.5 C 251.5,187.833 251.5,188.167 251.5,188.5C 242.936,190.017 234.269,190.684 225.5,190.5C 202.173,189.731 178.839,189.398 155.5,189.5C 155.342,192.902 155.676,196.236 156.5,199.5C 155.883,199.389 155.383,199.056 155,198.5C 154.502,195.183 154.335,191.85 154.5,188.5C 186.813,187.536 219.146,187.203 251.5,187.5 Z"/></g>
<g><path style="opacity:1" fill="#fbfbfb" d="M 252.5,189.5 C 252.5,189.167 252.5,188.833 252.5,188.5C 283.502,188.333 314.502,188.5 345.5,189C 346.529,200.923 345.529,212.757 342.5,224.5C 338.541,225.342 334.874,226.675 331.5,228.5C 328.347,226.471 324.847,224.805 321,223.5C 315.215,224.434 309.382,224.768 303.5,224.5C 303.866,222.095 304.533,219.762 305.5,217.5C 305.081,216.328 304.415,215.328 303.5,214.5C 305.113,213.573 306.779,212.739 308.5,212C 304.91,208.066 303.91,203.566 305.5,198.5C 304.825,195.822 304.158,193.156 303.5,190.5C 286.605,189.972 269.605,189.638 252.5,189.5 Z"/></g>
<g><path style="opacity:1" fill="#406b9c" d="M 403.5,175.5 C 403.5,178.167 403.5,180.833 403.5,183.5C 403.123,197.084 401.789,210.418 399.5,223.5C 400.148,209.161 400.982,194.828 402,180.5C 402.198,178.618 402.698,176.952 403.5,175.5 Z"/></g>
<g><path style="opacity:1" fill="#e3e3e3" d="M 251.5,188.5 C 251.833,188.5 252.167,188.5 252.5,188.5C 252.5,188.833 252.5,189.167 252.5,189.5C 251.668,199.922 251.335,210.255 251.5,220.5C 234.732,221.695 217.899,221.695 201,220.5C 187.101,221.443 173.268,222.109 159.5,222.5C 158.73,217.352 157.73,212.352 156.5,207.5C 156.5,204.833 156.5,202.167 156.5,199.5C 155.676,196.236 155.342,192.902 155.5,189.5C 178.839,189.398 202.173,189.731 225.5,190.5C 234.269,190.684 242.936,190.017 251.5,188.5 Z"/></g>
<g><path style="opacity:1" fill="#f6f6f6" d="M 252.5,189.5 C 269.605,189.638 286.605,189.972 303.5,190.5C 304.158,193.156 304.825,195.822 305.5,198.5C 303.91,203.566 304.91,208.066 308.5,212C 306.779,212.739 305.113,213.573 303.5,214.5C 304.415,215.328 305.081,216.328 305.5,217.5C 304.533,219.762 303.866,222.095 303.5,224.5C 309.382,224.768 315.215,224.434 321,223.5C 324.847,224.805 328.347,226.471 331.5,228.5C 329.874,228.938 328.207,229.272 326.5,229.5C 324.319,228.129 321.986,227.129 319.5,226.5C 319.5,227.5 319.5,228.5 319.5,229.5C 303.654,229.708 287.821,229.375 272,228.5C 269.5,228.667 267,228.833 264.5,229C 263.579,230.756 262.412,230.923 261,229.5C 257.812,230.178 254.979,231.512 252.5,233.5C 252.5,232.167 252.5,230.833 252.5,229.5C 253.075,227.589 254.075,225.922 255.5,224.5C 255.5,223.5 255.5,222.5 255.5,221.5C 253.901,221.768 252.568,221.434 251.5,220.5C 251.335,210.255 251.668,199.922 252.5,189.5 Z"/></g>
<g><path style="opacity:1" fill="#90b0cd" d="M 99.5,175.5 C 101.324,185.265 102.324,195.265 102.5,205.5C 100.798,195.716 99.7985,185.716 99.5,175.5 Z"/></g>
<g><path style="opacity:1" fill="#4b9ac6" d="M 351.5,191.5 C 350.999,203.186 350.165,214.853 349,226.5C 346.059,227.812 343.226,229.312 340.5,231C 337.518,231.498 334.518,231.665 331.5,231.5C 335.491,228.162 340.158,226.162 345.5,225.5C 346.748,224.666 347.415,223.333 347.5,221.5C 348.231,216.859 348.564,212.193 348.5,207.5C 348.5,206.5 348.5,205.5 348.5,204.5C 349.139,200.093 350.139,195.759 351.5,191.5 Z"/></g>
<g><path style="opacity:1" fill="#eafcfe" d="M 251.5,188.5 C 251.5,188.167 251.5,187.833 251.5,187.5C 251.833,187.5 252.167,187.5 252.5,187.5C 284.167,187.5 315.833,187.5 347.5,187.5C 347.5,194.167 347.5,200.833 347.5,207.5C 347.341,213.601 346.674,219.601 345.5,225.5C 340.158,226.162 335.491,228.162 331.5,231.5C 331.167,231.5 330.833,231.5 330.5,231.5C 330.557,230.391 330.89,229.391 331.5,228.5C 334.874,226.675 338.541,225.342 342.5,224.5C 345.529,212.757 346.529,200.923 345.5,189C 314.502,188.5 283.502,188.333 252.5,188.5C 252.167,188.5 251.833,188.5 251.5,188.5 Z"/></g>
<g><path style="opacity:1" fill="#dee5ec" d="M 156.5,207.5 C 157.73,212.352 158.73,217.352 159.5,222.5C 173.268,222.109 187.101,221.443 201,220.5C 217.899,221.695 234.732,221.695 251.5,220.5C 252.568,221.434 253.901,221.768 255.5,221.5C 255.5,222.5 255.5,223.5 255.5,224.5C 254.5,224.5 253.5,224.5 252.5,224.5C 221.338,223.502 190.004,223.168 158.5,223.5C 158.741,221.102 158.074,219.102 156.5,217.5C 156.5,216.167 156.5,214.833 156.5,213.5C 156.5,211.5 156.5,209.5 156.5,207.5 Z"/></g>
<g><path style="opacity:1" fill="#7eb7d3" d="M 347.5,207.5 C 347.833,207.5 348.167,207.5 348.5,207.5C 348.564,212.193 348.231,216.859 347.5,221.5C 347.415,223.333 346.748,224.666 345.5,225.5C 346.674,219.601 347.341,213.601 347.5,207.5 Z"/></g>
<g><path style="opacity:1" fill="#c8e5fe" d="M 156.5,217.5 C 158.074,219.102 158.741,221.102 158.5,223.5C 190.004,223.168 221.338,223.502 252.5,224.5C 220.833,224.5 189.167,224.5 157.5,224.5C 157.326,222.139 156.993,219.806 156.5,217.5 Z"/></g>
<g><path style="opacity:1" fill="#5f81a9" d="M 155.5,213.5 C 155.833,213.5 156.167,213.5 156.5,213.5C 156.5,214.833 156.5,216.167 156.5,217.5C 156.993,219.806 157.326,222.139 157.5,224.5C 189.167,224.5 220.833,224.5 252.5,224.5C 252.5,226.5 251.5,227.5 249.5,227.5C 218.851,225.508 187.851,224.841 156.5,225.5C 155.838,221.534 155.505,217.534 155.5,213.5 Z"/></g>
<g><path style="opacity:1" fill="#33629b" d="M 159.5,183.5 C 189.995,184.498 220.662,184.831 251.5,184.5C 218.5,185.167 185.5,185.833 152.5,186.5C 153.582,195.49 154.582,204.49 155.5,213.5C 155.505,217.534 155.838,221.534 156.5,225.5C 187.851,224.841 218.851,225.508 249.5,227.5C 248.609,228.11 247.609,228.443 246.5,228.5C 245.088,227.467 243.422,226.801 241.5,226.5C 224.896,226.594 208.23,226.594 191.5,226.5C 179.834,227.105 168.168,227.272 156.5,227C 156,226.5 155.5,226 155,225.5C 153.5,213.168 152,200.835 150.5,188.5C 150.39,186.626 151.056,185.126 152.5,184C 154.81,183.503 157.143,183.337 159.5,183.5 Z"/></g>
<g><path style="opacity:1" fill="#3f6ca0" d="M 399.5,223.5 C 399.5,227.833 399.5,232.167 399.5,236.5C 399.5,237.5 399.5,238.5 399.5,239.5C 398.71,240.609 398.21,241.942 398,243.5C 396.492,265.229 394.659,286.895 392.5,308.5C 391.054,314.274 390.388,320.274 390.5,326.5C 389.725,331.797 389.392,337.13 389.5,342.5C 388.833,344.833 388.167,347.167 387.5,349.5C 390.052,309.367 393.385,269.2 397.5,229C 397.547,226.705 398.213,224.871 399.5,223.5 Z"/></g>
<g><path style="opacity:1" fill="#fdfdfd" d="M 331.5,228.5 C 330.89,229.391 330.557,230.391 330.5,231.5C 330.167,231.5 329.833,231.5 329.5,231.5C 321.071,232.038 313.404,234.872 306.5,240C 295.436,243.344 284.936,247.177 275,251.5C 273.251,252.41 272.084,253.743 271.5,255.5C 269.473,255.338 267.473,255.505 265.5,256C 262.113,259.521 258.113,260.687 253.5,259.5C 252.529,250.888 252.196,242.221 252.5,233.5C 254.979,231.512 257.812,230.178 261,229.5C 262.412,230.923 263.579,230.756 264.5,229C 267,228.833 269.5,228.667 272,228.5C 287.821,229.375 303.654,229.708 319.5,229.5C 319.5,228.5 319.5,227.5 319.5,226.5C 321.986,227.129 324.319,228.129 326.5,229.5C 328.207,229.272 329.874,228.938 331.5,228.5 Z"/></g>
<g><path style="opacity:1" fill="#2b60a1" d="M 191.5,226.5 C 208.23,226.594 224.896,226.594 241.5,226.5C 243.422,226.801 245.088,227.467 246.5,228.5C 239.769,231.535 233.103,234.535 226.5,237.5C 214.476,241.394 202.809,246.061 191.5,251.5C 191.5,250.5 191.5,249.5 191.5,248.5C 195.888,248.636 199.555,247.136 202.5,244C 210.89,240.997 219.223,237.997 227.5,235C 226.874,234.25 226.374,233.416 226,232.5C 225.333,233.833 224.667,233.833 224,232.5C 223.333,231.5 223.333,230.5 224,229.5C 227.744,230.626 231.577,230.793 235.5,230C 234.672,229.085 233.672,228.419 232.5,228C 218.661,227.831 204.994,227.331 191.5,226.5 Z"/></g>
<g><path style="opacity:1" fill="#bacce2" d="M 252.5,224.5 C 253.5,224.5 254.5,224.5 255.5,224.5C 254.075,225.922 253.075,227.589 252.5,229.5C 251.833,229.5 251.5,229.833 251.5,230.5C 243.262,232.978 234.928,235.311 226.5,237.5C 233.103,234.535 239.769,231.535 246.5,228.5C 247.609,228.443 248.609,228.11 249.5,227.5C 251.5,227.5 252.5,226.5 252.5,224.5 Z"/></g>
<g><path style="opacity:1" fill="#65a4c1" d="M 325.5,233.5 C 324.122,235.875 322.122,237.541 319.5,238.5C 314.375,240.723 309.041,242.39 303.5,243.5C 310.672,239.99 318.005,236.657 325.5,233.5 Z"/></g>
<g><path style="opacity:1" fill="#e2e2e4" d="M 251.5,230.5 C 251.666,237.175 251.5,243.842 251,250.5C 246.126,249.936 240.959,249.603 235.5,249.5C 230.858,249.592 226.358,250.258 222,251.5C 220.739,251.241 219.739,250.574 219,249.5C 216.868,250.78 214.702,250.78 212.5,249.5C 210.326,252.06 208.159,252.06 206,249.5C 203.838,252.124 201.005,253.124 197.5,252.5C 198.952,251.698 200.618,251.198 202.5,251C 203.337,249.989 203.67,248.822 203.5,247.5C 210.125,245.866 216.792,244.199 223.5,242.5C 223.721,240.336 224.721,238.67 226.5,237.5C 234.928,235.311 243.262,232.978 251.5,230.5 Z"/></g>
<g><path style="opacity:1" fill="#c6daf2" d="M 226.5,237.5 C 224.721,238.67 223.721,240.336 223.5,242.5C 216.792,244.199 210.125,245.866 203.5,247.5C 203.67,248.822 203.337,249.989 202.5,251C 200.618,251.198 198.952,251.698 197.5,252.5C 192.906,253.815 188.239,254.815 183.5,255.5C 186.079,253.975 188.746,252.641 191.5,251.5C 202.809,246.061 214.476,241.394 226.5,237.5 Z"/></g>
<g><path style="opacity:1" fill="#e3f4fa" d="M 95.5,135.5 C 97.088,148.811 98.4213,162.144 99.5,175.5C 99.7985,185.716 100.798,195.716 102.5,205.5C 103.086,211.634 103.752,217.634 104.5,223.5C 104.617,232.232 105.283,240.898 106.5,249.5C 106.388,255.726 107.054,261.726 108.5,267.5C 109.034,276.843 109.701,286.177 110.5,295.5C 109.849,294.909 109.182,294.243 108.5,293.5C 107.901,286.889 106.901,280.389 105.5,274C 105.957,273.586 106.291,273.086 106.5,272.5C 102.949,236.433 99.4494,200.433 96,164.5C 95.5004,157.508 95.3337,150.508 95.5,143.5C 95.5,140.833 95.5,138.167 95.5,135.5 Z"/></g>
<g><path style="opacity:1" fill="#4973a3" d="M 104.5,223.5 C 105.117,223.611 105.617,223.944 106,224.5C 108.891,248.745 110.724,273.079 111.5,297.5C 111.167,297.5 110.833,297.5 110.5,297.5C 110.5,296.833 110.5,296.167 110.5,295.5C 109.701,286.177 109.034,276.843 108.5,267.5C 108.612,261.274 107.946,255.274 106.5,249.5C 105.283,240.898 104.617,232.232 104.5,223.5 Z"/></g>
<g><path style="opacity:1" fill="#e2fafd" d="M 329.5,231.5 C 328.486,232.674 327.153,233.34 325.5,233.5C 318.005,236.657 310.672,239.99 303.5,243.5C 300.946,244.606 298.279,245.439 295.5,246C 294.058,246.377 293.058,247.21 292.5,248.5C 285.443,250.63 278.443,252.963 271.5,255.5C 272.084,253.743 273.251,252.41 275,251.5C 284.936,247.177 295.436,243.344 306.5,240C 313.404,234.872 321.071,232.038 329.5,231.5 Z"/></g>
<g><path style="opacity:1" fill="#d7eaf4" d="M 399.5,239.5 C 399.324,258.236 398.158,276.902 396,295.5C 395.667,295.167 395.333,294.833 395,294.5C 394.193,300.416 394.359,306.25 395.5,312C 392.604,325.131 390.604,338.298 389.5,351.5C 389.5,348.5 389.5,345.5 389.5,342.5C 389.392,337.13 389.725,331.797 390.5,326.5C 392.057,320.739 392.724,314.739 392.5,308.5C 394.659,286.895 396.492,265.229 398,243.5C 398.21,241.942 398.71,240.609 399.5,239.5 Z"/></g>
<g><path style="opacity:1" fill="#eff0f0" d="M 252.5,229.5 C 252.5,230.833 252.5,232.167 252.5,233.5C 252.196,242.221 252.529,250.888 253.5,259.5C 258.113,260.687 262.113,259.521 265.5,256C 267.473,255.505 269.473,255.338 271.5,255.5C 266.404,258.715 261.071,261.381 255.5,263.5C 254.833,263.5 254.167,263.5 253.5,263.5C 226.241,264.491 198.907,264.824 171.5,264.5C 174.187,262.167 177.187,260.167 180.5,258.5C 181.612,257.735 182.279,256.735 182.5,255.5C 182.833,255.5 183.167,255.5 183.5,255.5C 188.239,254.815 192.906,253.815 197.5,252.5C 201.005,253.124 203.838,252.124 206,249.5C 208.159,252.06 210.326,252.06 212.5,249.5C 214.702,250.78 216.868,250.78 219,249.5C 219.739,250.574 220.739,251.241 222,251.5C 226.358,250.258 230.858,249.592 235.5,249.5C 240.959,249.603 246.126,249.936 251,250.5C 251.5,243.842 251.666,237.175 251.5,230.5C 251.5,229.833 251.833,229.5 252.5,229.5 Z"/></g>
<g><path style="opacity:1" fill="#32629a" d="M 191.5,251.5 C 188.746,252.641 186.079,253.975 183.5,255.5C 183.167,255.5 182.833,255.5 182.5,255.5C 175.356,258.241 168.356,261.241 161.5,264.5C 160.81,274.328 160.81,284.328 161.5,294.5C 160.883,294.389 160.383,294.056 160,293.5C 159.168,283.151 159.334,272.817 160.5,262.5C 164.843,258.827 169.843,257.161 175.5,257.5C 175.281,256.325 175.614,255.325 176.5,254.5C 181.131,251.98 186.131,250.98 191.5,251.5 Z"/></g>
<g><path style="opacity:1" fill="#5e9ebb" d="M 292.5,248.5 C 285.917,251.501 279.25,254.501 272.5,257.5C 271.702,257.957 271.369,258.624 271.5,259.5C 269.345,259.372 267.345,259.872 265.5,261C 264.316,262.145 264.316,263.312 265.5,264.5C 261.958,264.813 258.625,264.479 255.5,263.5C 261.071,261.381 266.404,258.715 271.5,255.5C 278.443,252.963 285.443,250.63 292.5,248.5 Z"/></g>
<g><path style="opacity:1" fill="#4897c1" d="M 271.5,259.5 C 271.119,260.931 270.119,261.764 268.5,262C 294.186,261.84 319.52,262.674 344.5,264.5C 344.724,272.389 344.058,280.056 342.5,287.5C 342.5,281.167 342.5,274.833 342.5,268.5C 342.5,267.5 342.5,266.5 342.5,265.5C 317.005,264.502 291.339,264.169 265.5,264.5C 264.316,263.312 264.316,262.145 265.5,261C 267.345,259.872 269.345,259.372 271.5,259.5 Z"/></g>
<g><path style="opacity:1" fill="#b0e0f6" d="M 253.5,263.5 C 254.167,263.5 254.833,263.5 255.5,263.5C 258.625,264.479 261.958,264.813 265.5,264.5C 291.339,264.169 317.005,264.502 342.5,265.5C 313.5,265.5 284.5,265.5 255.5,265.5C 254.167,265.5 253.5,264.833 253.5,263.5 Z"/></g>
<g><path style="opacity:1" fill="#e3e3e3" d="M 253.5,263.5 C 253.5,264.833 254.167,265.5 255.5,265.5C 255.5,265.833 255.5,266.167 255.5,266.5C 253.41,266.45 252.077,267.45 251.5,269.5C 252.387,279.877 252.72,290.211 252.5,300.5C 223.5,300.5 194.5,300.5 165.5,300.5C 164.56,288.824 164.56,277.157 165.5,265.5C 167.409,264.652 169.409,264.318 171.5,264.5C 198.907,264.824 226.241,264.491 253.5,263.5 Z"/></g>
<g><path style="opacity:1" fill="#82a3c4" d="M 106.5,249.5 C 107.946,255.274 108.612,261.274 108.5,267.5C 107.054,261.726 106.388,255.726 106.5,249.5 Z"/></g>
<g><path style="opacity:1" fill="#fbfbfb" d="M 271.5,266.5 C 293.503,266.333 315.503,266.5 337.5,267C 339.99,268.128 340.99,270.128 340.5,273C 339.689,279.81 339.356,286.644 339.5,293.5C 338.778,293.918 338.278,294.584 338,295.5C 337.536,307.193 336.702,318.86 335.5,330.5C 333.368,336.114 332.034,341.948 331.5,348C 333.251,360.536 332.251,372.702 328.5,384.5C 324.154,384.334 319.821,384.501 315.5,385C 311.369,386.336 307.369,387.836 303.5,389.5C 302.951,385.183 301.951,380.683 300.5,376C 301.977,370.908 301.644,365.908 299.5,361C 299.95,359.715 300.617,358.548 301.5,357.5C 300.978,356.393 300.645,355.226 300.5,354C 301.123,350.519 301.623,347.019 302,343.5C 302.333,344.833 302.667,346.167 303,347.5C 303.582,340.273 303.082,333.106 301.5,326C 303.011,317.898 303.678,309.732 303.5,301.5C 300.491,301.577 298.324,300.244 297,297.5C 295.989,298.337 294.822,298.67 293.5,298.5C 293.5,297.5 293.5,296.5 293.5,295.5C 296.181,295.462 298.681,296.129 301,297.5C 302.28,297.387 303.113,296.72 303.5,295.5C 301.994,294.253 300.494,294.253 299,295.5C 298.5,295 298,294.5 297.5,294C 299.473,293.505 301.473,293.338 303.5,293.5C 303.5,292.167 303.5,290.833 303.5,289.5C 300.724,288.886 298.057,288.719 295.5,289C 295.167,288.667 294.833,288.333 294.5,288C 296.473,287.505 298.473,287.338 300.5,287.5C 301.146,282.25 301.146,277.083 300.5,272C 294.804,271.83 289.138,271.33 283.5,270.5C 279.678,268.351 275.678,267.017 271.5,266.5 Z"/></g>
<g><path style="opacity:1" fill="#e1fbfe" d="M 255.5,266.5 C 255.5,266.167 255.5,265.833 255.5,265.5C 284.5,265.5 313.5,265.5 342.5,265.5C 342.5,266.5 342.5,267.5 342.5,268.5C 341.358,276.819 340.358,285.152 339.5,293.5C 339.356,286.644 339.689,279.81 340.5,273C 340.99,270.128 339.99,268.128 337.5,267C 315.503,266.5 293.503,266.333 271.5,266.5C 266.167,266.5 260.833,266.5 255.5,266.5 Z"/></g>
<g><path style="opacity:1" fill="#7fa1cb" d="M 161.5,264.5 C 161.636,274.354 162.302,284.021 163.5,293.5C 163.5,295.833 163.5,298.167 163.5,300.5C 162.833,298.5 162.167,296.5 161.5,294.5C 160.81,284.328 160.81,274.328 161.5,264.5 Z"/></g>
<g><path style="opacity:1" fill="#1e67b0" d="M 252.5,147.5 C 292.33,146.501 332.33,146.168 372.5,146.5C 376.257,146.071 379.757,146.737 383,148.5C 376.967,200.031 373.467,251.697 372.5,303.5C 370.833,303.5 369.167,303.5 367.5,303.5C 367.5,298.167 367.5,292.833 367.5,287.5C 367.5,284.167 367.5,280.833 367.5,277.5C 368.639,273.699 369.472,269.699 370,265.5C 373.359,226.166 376.526,186.833 379.5,147.5C 337.167,147.5 294.833,147.5 252.5,147.5 Z"/></g>
<g><path style="opacity:1" fill="#8dc2d7" d="M 342.5,268.5 C 342.5,274.833 342.5,281.167 342.5,287.5C 341.5,292.833 340.5,298.167 339.5,303.5C 339.5,300.167 339.5,296.833 339.5,293.5C 340.358,285.152 341.358,276.819 342.5,268.5 Z"/></g>
<g><path style="opacity:1" fill="#d4e4f7" d="M 182.5,255.5 C 182.279,256.735 181.612,257.735 180.5,258.5C 177.187,260.167 174.187,262.167 171.5,264.5C 169.409,264.318 167.409,264.652 165.5,265.5C 164.56,277.157 164.56,288.824 165.5,300.5C 194.5,300.5 223.5,300.5 252.5,300.5C 252.5,301.167 252.5,301.833 252.5,302.5C 242.167,302.5 231.833,302.5 221.5,302.5C 202.674,301.503 183.674,301.17 164.5,301.5C 164.806,298.615 164.473,295.948 163.5,293.5C 162.302,284.021 161.636,274.354 161.5,264.5C 168.356,261.241 175.356,258.241 182.5,255.5 Z"/></g>
<g><path style="opacity:1" fill="#c0d9f8" d="M 163.5,293.5 C 164.473,295.948 164.806,298.615 164.5,301.5C 183.674,301.17 202.674,301.503 221.5,302.5C 201.804,303.154 182.471,302.488 163.5,300.5C 163.5,298.167 163.5,295.833 163.5,293.5 Z"/></g>
<g><path style="opacity:1" fill="#dcfcff" d="M 252.5,300.5 C 267.17,300.333 281.837,300.5 296.5,301C 297.056,301.383 297.389,301.883 297.5,302.5C 282.5,302.5 267.5,302.5 252.5,302.5C 252.5,301.833 252.5,301.167 252.5,300.5 Z"/></g>
<g><path style="opacity:1" fill="#53739b" d="M 161.5,294.5 C 162.167,296.5 162.833,298.5 163.5,300.5C 182.471,302.488 201.804,303.154 221.5,302.5C 231.833,302.5 242.167,302.5 252.5,302.5C 252.5,302.833 252.5,303.167 252.5,303.5C 223.5,303.5 194.5,303.5 165.5,303.5C 163.876,303.64 162.71,302.973 162,301.5C 161.503,299.19 161.337,296.857 161.5,294.5 Z"/></g>
<g><path style="opacity:1" fill="#88bac7" d="M 252.5,303.5 C 252.5,303.167 252.5,302.833 252.5,302.5C 267.5,302.5 282.5,302.5 297.5,302.5C 298.814,304.915 299.481,307.748 299.5,311C 299.179,319.348 298.512,327.515 297.5,335.5C 297.5,332.833 297.5,330.167 297.5,327.5C 297.935,319.505 298.269,311.505 298.5,303.5C 283.5,303.5 268.5,303.5 253.5,303.5C 253.167,303.5 252.833,303.5 252.5,303.5 Z"/></g>
<g><path style="opacity:1" fill="#2865a9" d="M 165.5,303.5 C 194.5,303.5 223.5,303.5 252.5,303.5C 252.5,323.167 252.5,342.833 252.5,362.5C 251.833,362.5 251.5,362.167 251.5,361.5C 251.5,343.167 251.5,324.833 251.5,306.5C 225.699,306.03 199.866,306.03 174,306.5C 171.536,305.839 169.036,305.339 166.5,305C 165.944,304.617 165.611,304.117 165.5,303.5 Z"/></g>
<g><path style="opacity:1" fill="#359bd5" d="M 252.5,303.5 C 252.833,303.5 253.167,303.5 253.5,303.5C 253.5,304.833 253.5,306.167 253.5,307.5C 266.326,307.021 278.993,307.521 291.5,309C 291.75,313.325 291.417,317.825 290.5,322.5C 291.887,326.265 293.054,325.931 294,321.5C 294.757,328.198 294.591,334.864 293.5,341.5C 292.301,342.575 291.134,343.575 290,344.5C 289.297,346.929 289.463,349.262 290.5,351.5C 281.969,353.547 273.302,356.047 264.5,359C 262.382,360.082 260.382,361.249 258.5,362.5C 257.329,363.345 255.995,364.011 254.5,364.5C 253.833,364.5 253.167,364.5 252.5,364.5C 252.5,363.833 252.5,363.167 252.5,362.5C 252.5,342.833 252.5,323.167 252.5,303.5 Z"/></g>
<g><path style="opacity:1" fill="#2577bc" d="M 366.5,287.5 C 366.833,287.5 367.167,287.5 367.5,287.5C 367.5,292.833 367.5,298.167 367.5,303.5C 365.904,315.397 364.904,327.397 364.5,339.5C 363.833,341.5 363.167,343.5 362.5,345.5C 363.999,326.176 365.332,306.843 366.5,287.5 Z"/></g>
<g><path style="opacity:1" fill="#3c9acd" d="M 253.5,303.5 C 268.5,303.5 283.5,303.5 298.5,303.5C 298.269,311.505 297.935,319.505 297.5,327.5C 295.533,335.097 294.866,343.097 295.5,351.5C 293.833,351.5 292.167,351.5 290.5,351.5C 289.463,349.262 289.297,346.929 290,344.5C 291.134,343.575 292.301,342.575 293.5,341.5C 294.591,334.864 294.757,328.198 294,321.5C 293.054,325.931 291.887,326.265 290.5,322.5C 291.417,317.825 291.75,313.325 291.5,309C 278.993,307.521 266.326,307.021 253.5,307.5C 253.5,306.167 253.5,304.833 253.5,303.5 Z"/></g>
<g><path style="opacity:1" fill="#90c3d8" d="M 339.5,303.5 C 339.906,311.079 339.239,318.412 337.5,325.5C 337.796,317.986 338.462,310.653 339.5,303.5 Z"/></g>
<g><path style="opacity:1" fill="#7b9ec1" d="M 111.5,303.5 C 111.833,303.5 112.167,303.5 112.5,303.5C 112.833,308.833 113.167,314.167 113.5,319.5C 111.922,314.417 111.255,309.084 111.5,303.5 Z"/></g>
<g><path style="opacity:1" fill="#2960a2" d="M 223.5,355.5 C 219.253,355.116 215.086,354.449 211,353.5C 210.5,349 210,344.5 209.5,340C 209.431,338.014 208.765,336.514 207.5,335.5C 207.5,334.833 207.5,334.167 207.5,333.5C 207.5,330.167 207.5,326.833 207.5,323.5C 193.833,323.5 180.167,323.5 166.5,323.5C 165.844,324.622 165.511,325.955 165.5,327.5C 165.912,332.349 166.579,337.015 167.5,341.5C 167.5,342.5 167.5,343.5 167.5,344.5C 167.365,358.612 168.365,372.612 170.5,386.5C 169.113,384.123 168.279,381.457 168,378.5C 167.643,365.679 166.143,353.013 163.5,340.5C 164.928,334.401 164.595,328.401 162.5,322.5C 164.103,322.688 165.437,322.188 166.5,321C 179.92,320.029 193.253,320.529 206.5,322.5C 207.386,321.675 207.719,320.675 207.5,319.5C 209.124,319.36 210.29,320.027 211,321.5C 211.261,325.706 211.761,329.873 212.5,334C 211.395,340.128 211.228,346.294 212,352.5C 216.08,352.957 219.914,353.957 223.5,355.5 Z"/></g>
<g><path style="opacity:1" fill="#b4ceed" d="M 166.5,323.5 C 180.167,323.5 193.833,323.5 207.5,323.5C 207.5,326.833 207.5,330.167 207.5,333.5C 205.735,330.877 205.068,327.877 205.5,324.5C 193.495,324.333 181.495,324.5 169.5,325C 168.522,331.41 168.189,337.91 168.5,344.5C 168.167,344.5 167.833,344.5 167.5,344.5C 167.5,343.5 167.5,342.5 167.5,341.5C 167.498,335.477 167.165,329.477 166.5,323.5 Z"/></g>
<g><path style="opacity:1" fill="#d9e2ec" d="M 207.5,333.5 C 207.5,334.167 207.5,334.833 207.5,335.5C 207.5,339.5 207.5,343.5 207.5,347.5C 207.5,348.833 207.5,350.167 207.5,351.5C 206.127,351.657 204.793,351.49 203.5,351C 203.957,350.586 204.291,350.086 204.5,349.5C 203.771,347.024 203.104,344.524 202.5,342C 203.319,336.867 203.319,331.7 202.5,326.5C 193.5,326.5 184.5,326.5 175.5,326.5C 175.257,333.569 174.423,333.903 173,327.5C 171.989,326.663 170.822,326.33 169.5,326.5C 170.226,336.817 170.56,347.15 170.5,357.5C 169.833,354.833 169.167,352.167 168.5,349.5C 168.5,347.833 168.5,346.167 168.5,344.5C 168.189,337.91 168.522,331.41 169.5,325C 181.495,324.5 193.495,324.333 205.5,324.5C 205.068,327.877 205.735,330.877 207.5,333.5 Z"/></g>
<g><path style="opacity:1" fill="#8babc8" d="M 392.5,308.5 C 392.724,314.739 392.057,320.739 390.5,326.5C 390.388,320.274 391.054,314.274 392.5,308.5 Z"/></g>
<g><path style="opacity:1" fill="#e3e3e3" d="M 207.5,351.5 C 206.969,354.888 208.303,356.888 211.5,357.5C 215.368,359.136 219.368,360.469 223.5,361.5C 223.238,362.978 223.571,364.311 224.5,365.5C 228.087,363.732 231.753,363.399 235.5,364.5C 234.5,365.333 233.5,366.167 232.5,367C 236.186,367.807 239.686,367.307 243,365.5C 246.105,366.367 249.272,366.701 252.5,366.5C 252.5,366.833 252.5,367.167 252.5,367.5C 251.562,373.915 251.562,380.582 252.5,387.5C 252.01,392.907 251.344,398.241 250.5,403.5C 241.245,402.296 232.245,400.296 223.5,397.5C 223.5,396.5 223.5,395.5 223.5,394.5C 218.178,393.971 212.844,393.471 207.5,393C 196.717,389.837 186.05,386.67 175.5,383.5C 174.203,378.263 173.536,372.93 173.5,367.5C 172.5,367.5 171.5,367.5 170.5,367.5C 170.5,364.167 170.5,360.833 170.5,357.5C 170.56,347.15 170.226,336.817 169.5,326.5C 170.822,326.33 171.989,326.663 173,327.5C 174.423,333.903 175.257,333.569 175.5,326.5C 184.5,326.5 193.5,326.5 202.5,326.5C 203.319,331.7 203.319,336.867 202.5,342C 203.104,344.524 203.771,347.024 204.5,349.5C 204.291,350.086 203.957,350.586 203.5,351C 204.793,351.49 206.127,351.657 207.5,351.5 Z"/></g>
<g><path style="opacity:1" fill="#e4f4fa" d="M 110.5,297.5 C 110.833,297.5 111.167,297.5 111.5,297.5C 111.5,299.5 111.5,301.5 111.5,303.5C 111.255,309.084 111.922,314.417 113.5,319.5C 113.398,326.951 114.065,334.285 115.5,341.5C 115.201,349.396 115.868,357.063 117.5,364.5C 117.945,375.03 118.945,385.363 120.5,395.5C 120.5,396.833 120.5,398.167 120.5,399.5C 121.233,412.867 122.4,426.2 124,439.5C 130.011,441.711 136.178,443.378 142.5,444.5C 143.167,444.5 143.5,444.833 143.5,445.5C 138.232,445.113 133.066,445.113 128,445.5C 127.667,444.833 127.333,444.167 127,443.5C 126.282,444.451 125.449,444.617 124.5,444C 123.789,442.745 122.956,441.579 122,440.5C 120.853,418.034 118.52,395.701 115,373.5C 113.998,353.801 112.665,334.134 111,314.5C 110.5,313 110,311.5 109.5,310C 110.404,305.889 110.737,301.722 110.5,297.5 Z"/></g>
<g><path style="opacity:1" fill="#e8fbfd" d="M 339.5,293.5 C 339.5,296.833 339.5,300.167 339.5,303.5C 338.462,310.653 337.796,317.986 337.5,325.5C 337.5,326.833 337.5,328.167 337.5,329.5C 335.895,336.603 335.228,343.937 335.5,351.5C 334.334,358.977 333.667,366.643 333.5,374.5C 333.5,374.833 333.5,375.167 333.5,375.5C 332.683,377.969 332.183,380.635 332,383.5C 330.989,384.337 329.822,384.67 328.5,384.5C 332.251,372.702 333.251,360.536 331.5,348C 332.034,341.948 333.368,336.114 335.5,330.5C 336.702,318.86 337.536,307.193 338,295.5C 338.278,294.584 338.778,293.918 339.5,293.5 Z"/></g>
<g><path style="opacity:1" fill="#5d84b1" d="M 166.5,323.5 C 167.165,329.477 167.498,335.477 167.5,341.5C 166.579,337.015 165.912,332.349 165.5,327.5C 165.511,325.955 165.844,324.622 166.5,323.5 Z"/></g>
<g><path style="opacity:1" fill="#3e6a9e" d="M 207.5,335.5 C 208.765,336.514 209.431,338.014 209.5,340C 210,344.5 210.5,349 211,353.5C 215.086,354.449 219.253,355.116 223.5,355.5C 232.482,358.411 241.816,360.411 251.5,361.5C 251.5,362.167 251.833,362.5 252.5,362.5C 252.5,363.167 252.5,363.833 252.5,364.5C 247.477,363.994 242.477,363.327 237.5,362.5C 228.705,359.699 219.705,357.199 210.5,355C 208.98,352.666 207.98,350.166 207.5,347.5C 207.5,343.5 207.5,339.5 207.5,335.5 Z"/></g>
<g><path style="opacity:1" fill="#81b8d1" d="M 337.5,329.5 C 337.666,335.176 337.499,340.843 337,346.5C 336.802,348.382 336.302,350.048 335.5,351.5C 335.228,343.937 335.895,336.603 337.5,329.5 Z"/></g>
<g><path style="opacity:1" fill="#406ca0" d="M 112.5,303.5 C 117.55,333.795 120.217,364.461 120.5,395.5C 118.945,385.363 117.945,375.03 117.5,364.5C 117.429,356.635 116.762,348.969 115.5,341.5C 114.065,334.285 113.398,326.951 113.5,319.5C 113.167,314.167 112.833,308.833 112.5,303.5 Z"/></g>
<g><path style="opacity:1" fill="#6f92b5" d="M 115.5,341.5 C 116.762,348.969 117.429,356.635 117.5,364.5C 115.868,357.063 115.201,349.396 115.5,341.5 Z"/></g>
<g><path style="opacity:1" fill="#4f98c2" d="M 297.5,327.5 C 297.5,330.167 297.5,332.833 297.5,335.5C 296.758,341.118 296.258,346.785 296,352.5C 293.328,353.282 290.828,354.282 288.5,355.5C 278.483,357.847 268.483,360.181 258.5,362.5C 260.382,361.249 262.382,360.082 264.5,359C 273.302,356.047 281.969,353.547 290.5,351.5C 292.167,351.5 293.833,351.5 295.5,351.5C 294.866,343.097 295.533,335.097 297.5,327.5 Z"/></g>
<g><path style="opacity:1" fill="#9ab7d5" d="M 389.5,342.5 C 389.5,345.5 389.5,348.5 389.5,351.5C 386.914,376.313 384.247,400.98 381.5,425.5C 382.54,408.475 383.873,391.475 385.5,374.5C 385.5,373.833 385.5,373.167 385.5,372.5C 386.565,365.683 387.232,358.683 387.5,351.5C 387.5,350.833 387.5,350.167 387.5,349.5C 388.167,347.167 388.833,344.833 389.5,342.5 Z"/></g>
<g><path style="opacity:1" fill="#c7ddf3" d="M 207.5,347.5 C 207.98,350.166 208.98,352.666 210.5,355C 219.705,357.199 228.705,359.699 237.5,362.5C 228.634,361.74 220.134,359.74 212,356.5C 211.601,356.728 211.435,357.062 211.5,357.5C 208.303,356.888 206.969,354.888 207.5,351.5C 207.5,350.167 207.5,348.833 207.5,347.5 Z"/></g>
<g><path style="opacity:1" fill="#f5f6f7" d="M 255.5,266.5 C 260.833,266.5 266.167,266.5 271.5,266.5C 275.678,267.017 279.678,268.351 283.5,270.5C 289.138,271.33 294.804,271.83 300.5,272C 301.146,277.083 301.146,282.25 300.5,287.5C 298.473,287.338 296.473,287.505 294.5,288C 294.833,288.333 295.167,288.667 295.5,289C 298.057,288.719 300.724,288.886 303.5,289.5C 303.5,290.833 303.5,292.167 303.5,293.5C 301.473,293.338 299.473,293.505 297.5,294C 298,294.5 298.5,295 299,295.5C 300.494,294.253 301.994,294.253 303.5,295.5C 303.113,296.72 302.28,297.387 301,297.5C 298.681,296.129 296.181,295.462 293.5,295.5C 293.5,296.5 293.5,297.5 293.5,298.5C 294.822,298.67 295.989,298.337 297,297.5C 298.324,300.244 300.491,301.577 303.5,301.5C 303.678,309.732 303.011,317.898 301.5,326C 303.082,333.106 303.582,340.273 303,347.5C 302.667,346.167 302.333,344.833 302,343.5C 301.623,347.019 301.123,350.519 300.5,354C 300.645,355.226 300.978,356.393 301.5,357.5C 300.617,358.548 299.95,359.715 299.5,361C 301.644,365.908 301.977,370.908 300.5,376C 301.951,380.683 302.951,385.183 303.5,389.5C 307.369,387.836 311.369,386.336 315.5,385C 319.821,384.501 324.154,384.334 328.5,384.5C 321.735,386.525 315.068,388.859 308.5,391.5C 308.167,391.5 307.833,391.5 307.5,391.5C 306.167,391.5 304.833,391.5 303.5,391.5C 294.167,393.392 285.167,396.059 276.5,399.5C 268.441,402.453 260.107,404.786 251.5,406.5C 251.737,405.209 251.404,404.209 250.5,403.5C 251.344,398.241 252.01,392.907 252.5,387.5C 251.562,380.582 251.562,373.915 252.5,367.5C 263.54,364.775 274.54,361.775 285.5,358.5C 287.175,358.132 288.175,357.132 288.5,355.5C 290.828,354.282 293.328,353.282 296,352.5C 296.258,346.785 296.758,341.118 297.5,335.5C 298.512,327.515 299.179,319.348 299.5,311C 299.481,307.748 298.814,304.915 297.5,302.5C 297.389,301.883 297.056,301.383 296.5,301C 281.837,300.5 267.17,300.333 252.5,300.5C 252.72,290.211 252.387,279.877 251.5,269.5C 252.077,267.45 253.41,266.45 255.5,266.5 Z"/></g>
<g><path style="opacity:1" fill="#3994d4" d="M 366.5,287.5 C 365.332,306.843 363.999,326.176 362.5,345.5C 360.776,369.854 358.776,394.187 356.5,418.5C 356.5,418.833 356.5,419.167 356.5,419.5C 354.833,419.5 353.167,419.5 351.5,419.5C 351.5,418.167 351.5,416.833 351.5,415.5C 352.5,415.5 353.5,415.5 354.5,415.5C 354.735,410.541 354.735,405.708 354.5,401C 357.419,380.995 359.419,360.828 360.5,340.5C 360.379,339.106 360.046,337.772 359.5,336.5C 361.542,327.02 362.876,317.354 363.5,307.5C 363.32,306.446 362.987,305.446 362.5,304.5C 363.37,298.47 364.704,292.804 366.5,287.5 Z"/></g>
<g><path style="opacity:1" fill="#1e67b0" d="M 364.5,339.5 C 363.654,349.809 363.654,359.976 364.5,370C 362.949,385.19 361.116,400.357 359,415.5C 358.623,416.942 357.79,417.942 356.5,418.5C 358.776,394.187 360.776,369.854 362.5,345.5C 363.167,343.5 363.833,341.5 364.5,339.5 Z"/></g>
<g><path style="opacity:1" fill="#346298" d="M 387.5,351.5 C 387.232,358.683 386.565,365.683 385.5,372.5C 384.872,365.087 385.539,358.087 387.5,351.5 Z"/></g>
<g><path style="opacity:1" fill="#dee4ee" d="M 237.5,362.5 C 242.477,363.327 247.477,363.994 252.5,364.5C 253.167,364.5 253.833,364.5 254.5,364.5C 253.833,365.167 253.167,365.833 252.5,366.5C 249.272,366.701 246.105,366.367 243,365.5C 239.686,367.307 236.186,367.807 232.5,367C 233.5,366.167 234.5,365.333 235.5,364.5C 231.753,363.399 228.087,363.732 224.5,365.5C 223.571,364.311 223.238,362.978 223.5,361.5C 219.368,360.469 215.368,359.136 211.5,357.5C 211.435,357.062 211.601,356.728 212,356.5C 220.134,359.74 228.634,361.74 237.5,362.5 Z"/></g>
<g><path style="opacity:1" fill="#83b9cc" d="M 335.5,351.5 C 335.864,359.403 335.197,367.07 333.5,374.5C 333.667,366.643 334.334,358.977 335.5,351.5 Z"/></g>
<g><path style="opacity:1" fill="#d9f4fb" d="M 288.5,355.5 C 288.175,357.132 287.175,358.132 285.5,358.5C 274.54,361.775 263.54,364.775 252.5,367.5C 252.5,367.167 252.5,366.833 252.5,366.5C 253.167,365.833 253.833,365.167 254.5,364.5C 255.995,364.011 257.329,363.345 258.5,362.5C 268.483,360.181 278.483,357.847 288.5,355.5 Z"/></g>
<g><path style="opacity:1" fill="#96b0d2" d="M 168.5,349.5 C 169.167,352.167 169.833,354.833 170.5,357.5C 170.5,360.833 170.5,364.167 170.5,367.5C 169.054,361.726 168.388,355.726 168.5,349.5 Z"/></g>
<g><path style="opacity:1" fill="#3d9acd" d="M 344.5,264.5 C 345.468,266.607 345.802,268.941 345.5,271.5C 346.5,271.5 347.5,271.5 348.5,271.5C 348.665,274.518 348.498,277.518 348,280.5C 346.605,279.185 345.605,279.519 345,281.5C 342.988,294.088 342.155,306.754 342.5,319.5C 343.5,319.5 344.5,319.5 345.5,319.5C 345.666,324.844 345.499,330.177 345,335.5C 342.569,322.303 341.069,322.303 340.5,335.5C 341.5,335.5 342.5,335.5 343.5,335.5C 343.828,340.875 343.495,346.208 342.5,351.5C 340.945,356.177 339.945,361.01 339.5,366C 340.434,371.785 340.768,377.618 340.5,383.5C 338.833,383.5 337.167,383.5 335.5,383.5C 335.719,384.675 335.386,385.675 334.5,386.5C 330.608,388.14 326.608,389.473 322.5,390.5C 321.453,391.922 321.453,393.422 322.5,395C 321.991,396.169 321.158,397.002 320,397.5C 319.506,395.866 319.34,394.199 319.5,392.5C 314.292,394.135 308.958,395.135 303.5,395.5C 303.369,394.761 303.536,394.094 304,393.5C 305.302,392.915 306.469,392.249 307.5,391.5C 307.833,391.5 308.167,391.5 308.5,391.5C 315.882,390.325 323.216,388.825 330.5,387C 331.333,386.167 332.167,385.333 333,384.5C 333.498,381.518 333.665,378.518 333.5,375.5C 333.5,375.167 333.5,374.833 333.5,374.5C 335.197,367.07 335.864,359.403 335.5,351.5C 336.302,350.048 336.802,348.382 337,346.5C 337.499,340.843 337.666,335.176 337.5,329.5C 337.5,328.167 337.5,326.833 337.5,325.5C 339.239,318.412 339.906,311.079 339.5,303.5C 340.5,298.167 341.5,292.833 342.5,287.5C 344.058,280.056 344.724,272.389 344.5,264.5 Z"/></g>
<g><path style="opacity:1" fill="#d3dfeb" d="M 170.5,367.5 C 171.5,367.5 172.5,367.5 173.5,367.5C 173.536,372.93 174.203,378.263 175.5,383.5C 174.833,383.5 174.167,383.5 173.5,383.5C 172.252,382.666 171.585,381.333 171.5,379.5C 170.836,375.524 170.503,371.524 170.5,367.5 Z"/></g>
<g><path style="opacity:1" fill="#3d689d" d="M 167.5,344.5 C 167.833,344.5 168.167,344.5 168.5,344.5C 168.5,346.167 168.5,347.833 168.5,349.5C 168.388,355.726 169.054,361.726 170.5,367.5C 170.503,371.524 170.836,375.524 171.5,379.5C 171.585,381.333 172.252,382.666 173.5,383.5C 186.518,387.707 199.518,392.04 212.5,396.5C 200.539,394.539 188.872,391.372 177.5,387C 175.19,386.503 172.857,386.337 170.5,386.5C 168.365,372.612 167.365,358.612 167.5,344.5 Z"/></g>
<g><path style="opacity:1" fill="#61a3c1" d="M 333.5,375.5 C 333.665,378.518 333.498,381.518 333,384.5C 332.167,385.333 331.333,386.167 330.5,387C 323.216,388.825 315.882,390.325 308.5,391.5C 315.068,388.859 321.735,386.525 328.5,384.5C 329.822,384.67 330.989,384.337 332,383.5C 332.183,380.635 332.683,377.969 333.5,375.5 Z"/></g>
<g><path style="opacity:1" fill="#5fa3c3" d="M 303.5,391.5 C 304.833,391.5 306.167,391.5 307.5,391.5C 306.469,392.249 305.302,392.915 304,393.5C 303.536,394.094 303.369,394.761 303.5,395.5C 298.114,395.777 292.781,396.444 287.5,397.5C 293.028,396.071 298.362,394.071 303.5,391.5 Z"/></g>
<g><path style="opacity:1" fill="#caddf3" d="M 173.5,383.5 C 174.167,383.5 174.833,383.5 175.5,383.5C 186.05,386.67 196.717,389.837 207.5,393C 212.844,393.471 218.178,393.971 223.5,394.5C 223.5,395.5 223.5,396.5 223.5,397.5C 232.245,400.296 241.245,402.296 250.5,403.5C 251.404,404.209 251.737,405.209 251.5,406.5C 250.833,406.5 250.167,406.5 249.5,406.5C 240.833,404.166 232.166,401.833 223.5,399.5C 220.112,397.882 216.446,396.882 212.5,396.5C 199.518,392.04 186.518,387.707 173.5,383.5 Z"/></g>
<g><path style="opacity:1" fill="#d4f4f9" d="M 303.5,391.5 C 298.362,394.071 293.028,396.071 287.5,397.5C 283.915,398.583 280.249,399.249 276.5,399.5C 285.167,396.059 294.167,393.392 303.5,391.5 Z"/></g>
<g><path style="opacity:1" fill="#3f689c" d="M 223.5,399.5 C 232.166,401.833 240.833,404.166 249.5,406.5C 249.842,407.338 250.508,407.672 251.5,407.5C 251.53,408.497 251.03,409.164 250,409.5C 248.433,408.144 246.6,407.477 244.5,407.5C 238.371,405.003 232.037,403.003 225.5,401.5C 224.287,401.253 223.62,400.586 223.5,399.5 Z"/></g>
<g><path style="opacity:1" fill="#599fc2" d="M 287.5,397.5 C 287.423,398.75 286.756,399.583 285.5,400C 274.679,403.463 263.679,405.963 252.5,407.5C 252.167,407.5 251.833,407.5 251.5,407.5C 250.508,407.672 249.842,407.338 249.5,406.5C 250.167,406.5 250.833,406.5 251.5,406.5C 260.107,404.786 268.441,402.453 276.5,399.5C 280.249,399.249 283.915,398.583 287.5,397.5 Z"/></g>
<g><path style="opacity:1" fill="#1f65ae" d="M 244.5,407.5 C 246.6,407.477 248.433,408.144 250,409.5C 251.03,409.164 251.53,408.497 251.5,407.5C 251.833,407.5 252.167,407.5 252.5,407.5C 252.5,420.5 252.5,433.5 252.5,446.5C 271.507,441.63 290.507,436.63 309.5,431.5C 308.158,432.793 306.491,433.626 304.5,434C 303.167,434.667 303.167,435.333 304.5,436C 298.445,436.773 292.779,438.606 287.5,441.5C 290.087,442.889 292.421,444.722 294.5,447C 296.167,447.333 297.833,447.667 299.5,448C 295.637,449.354 291.637,449.854 287.5,449.5C 287.5,447.5 287.5,445.5 287.5,443.5C 285.599,443.567 283.766,443.233 282,442.5C 276.022,444.474 269.856,445.974 263.5,447C 258.798,447.828 254.131,447.662 249.5,446.5C 250.46,445.188 250.294,443.854 249,442.5C 248.5,433.506 248.334,424.506 248.5,415.5C 240.14,415.831 231.807,415.498 223.5,414.5C 232.141,413.502 240.808,413.169 249.5,413.5C 249.5,412.5 249.5,411.5 249.5,410.5C 246.966,410.741 245.3,409.741 244.5,407.5 Z"/></g>
<g><path style="opacity:1" fill="#4b73a4" d="M 120.5,399.5 C 121.141,402.927 122.308,406.26 124,409.5C 124.5,418.827 124.666,428.161 124.5,437.5C 129.052,438.784 133.719,439.784 138.5,440.5C 139.368,442.397 140.701,443.73 142.5,444.5C 136.178,443.378 130.011,441.711 124,439.5C 122.4,426.2 121.233,412.867 120.5,399.5 Z"/></g>
<g><path style="opacity:1" fill="#1c68b0" d="M 351.5,419.5 C 353.167,419.5 354.833,419.5 356.5,419.5C 355.402,420.397 355.402,421.23 356.5,422C 353.289,423.153 349.956,423.82 346.5,424C 345.328,424.419 344.328,425.085 343.5,426C 336.707,426.155 330.373,427.822 324.5,431C 320.179,431.499 315.846,431.666 311.5,431.5C 324.884,427.49 338.217,423.49 351.5,419.5 Z"/></g>
<g><path style="opacity:1" fill="#37659d" d="M 385.5,374.5 C 383.873,391.475 382.54,408.475 381.5,425.5C 381.5,428.5 381.5,431.5 381.5,434.5C 380.539,436.265 380.205,438.265 380.5,440.5C 371.11,441.763 362.11,444.096 353.5,447.5C 352.833,447.5 352.167,447.5 351.5,447.5C 354.729,445.218 358.396,443.385 362.5,442C 363.95,438.181 366.117,437.681 369,440.5C 371.77,439.652 374.603,439.319 377.5,439.5C 378.853,418.004 381.019,396.671 384,375.5C 384.383,374.944 384.883,374.611 385.5,374.5 Z"/></g>
<g><path style="opacity:1" fill="#dff2f9" d="M 381.5,434.5 C 381.98,437.685 381.314,440.519 379.5,443C 370.817,444.622 362.151,446.122 353.5,447.5C 362.11,444.096 371.11,441.763 380.5,440.5C 380.205,438.265 380.539,436.265 381.5,434.5 Z"/></g>
<g><path style="opacity:1" fill="#497095" d="M 154.5,447.5 C 158.57,447.432 162.237,448.432 165.5,450.5C 161.521,450.258 157.854,449.258 154.5,447.5 Z"/></g>
<g><path style="opacity:1" fill="#376397" d="M 348.5,447.5 C 337.783,450.628 327.117,453.961 316.5,457.5C 312.14,458.007 307.807,458.673 303.5,459.5C 303.47,458.503 303.97,457.836 305,457.5C 319.343,452.986 333.843,449.652 348.5,447.5 Z"/></g>
<g><path style="opacity:1" fill="#e5f6fc" d="M 149.5,447.5 C 151.167,447.5 152.833,447.5 154.5,447.5C 157.854,449.258 161.521,450.258 165.5,450.5C 166.568,451.434 167.901,451.768 169.5,451.5C 173.217,452.68 176.884,454.013 180.5,455.5C 177.15,455.665 173.817,455.498 170.5,455C 165.955,452.151 161.122,451.318 156,452.5C 154.676,451.12 153.343,450.786 152,451.5C 150.915,450.264 150.082,448.931 149.5,447.5 Z"/></g>
<g><path style="opacity:1" fill="#3d669b" d="M 169.5,451.5 C 179.392,452.364 189.059,454.197 198.5,457C 202.198,459.122 206.198,460.455 210.5,461C 211.571,461.852 212.571,462.685 213.5,463.5C 202.621,460.431 191.621,457.764 180.5,455.5C 176.884,454.013 173.217,452.68 169.5,451.5 Z"/></g>
<g><path style="opacity:1" fill="#e0f2f9" d="M 348.5,447.5 C 349.5,447.5 350.5,447.5 351.5,447.5C 343.801,450.907 335.801,454.073 327.5,457C 323.848,457.499 320.182,457.665 316.5,457.5C 327.117,453.961 337.783,450.628 348.5,447.5 Z"/></g>
<g><path style="opacity:1" fill="#e6f5fa" d="M 180.5,455.5 C 191.621,457.764 202.621,460.431 213.5,463.5C 214.167,463.5 214.833,463.5 215.5,463.5C 219.77,465.318 224.103,466.985 228.5,468.5C 225.482,468.665 222.482,468.498 219.5,468C 207.46,465.012 195.127,461.679 182.5,458C 181.619,457.292 180.953,456.458 180.5,455.5 Z"/></g>
<g><path style="opacity:1" fill="#2961a5" d="M 287.5,463.5 C 277.105,467.102 266.438,470.102 255.5,472.5C 253.143,472.663 250.81,472.497 248.5,472C 242.213,469.412 235.879,467.245 229.5,465.5C 233.543,465.204 237.543,464.537 241.5,463.5C 249.695,464.798 257.861,466.132 266,467.5C 272.97,465.133 280.137,463.799 287.5,463.5 Z"/></g>
<g><path style="opacity:1" fill="#3f689a" d="M 215.5,463.5 C 220.222,463.848 224.889,464.515 229.5,465.5C 235.879,467.245 242.213,469.412 248.5,472C 250.81,472.497 253.143,472.663 255.5,472.5C 253.034,473.634 250.367,473.801 247.5,473C 241.562,471.194 235.562,469.694 229.5,468.5C 229.167,468.5 228.833,468.5 228.5,468.5C 224.103,466.985 219.77,465.318 215.5,463.5 Z"/></g>
<g><path style="opacity:1" fill="#e3f4fa" d="M 316.5,457.5 C 314.487,460.002 311.821,461.502 308.5,462C 293.263,465.258 278.263,469.258 263.5,474C 257.199,475.179 250.865,475.513 244.5,475C 241.34,473.756 238.007,472.922 234.5,472.5C 232.501,471.492 230.834,470.159 229.5,468.5C 235.562,469.694 241.562,471.194 247.5,473C 250.367,473.801 253.034,473.634 255.5,472.5C 266.438,470.102 277.105,467.102 287.5,463.5C 293.17,463.083 298.503,461.749 303.5,459.5C 307.807,458.673 312.14,458.007 316.5,457.5 Z"/></g>
</svg>
