<?xml version="1.0" encoding="UTF-8"?>
<!DOCTYPE svg PUBLIC "-//W3C//DTD SVG 1.1//EN" "http://www.w3.org/Graphics/SVG/1.1/DTD/svg11.dtd">
<svg xmlns="http://www.w3.org/2000/svg" version="1.1" width="866px" height="650px" style="shape-rendering:geometricPrecision; text-rendering:geometricPrecision; image-rendering:optimizeQuality; fill-rule:evenodd; clip-rule:evenodd" xmlns:xlink="http://www.w3.org/1999/xlink">
<g><path style="opacity:1" fill="#fefefe" d="M -0.5,-0.5 C 288.167,-0.5 576.833,-0.5 865.5,-0.5C 865.5,216.167 865.5,432.833 865.5,649.5C 576.833,649.5 288.167,649.5 -0.5,649.5C -0.5,432.833 -0.5,216.167 -0.5,-0.5 Z"/></g>
<g><path style="opacity:1" fill="#30270b" d="M 583.5,206.5 C 608.218,205.279 616.384,216.279 608,239.5C 606.127,241.709 603.96,243.542 601.5,245C 577.039,250.558 567.205,241.058 572,216.5C 574.818,211.839 578.651,208.505 583.5,206.5 Z"/></g>
<g><path style="opacity:1" fill="#d7716d" d="M 277.5,214.5 C 279.5,215.833 281.167,217.5 282.5,219.5C 279.833,218.833 278.167,217.167 277.5,214.5 Z"/></g>
<g><path style="opacity:1" fill="#30270a" d="M 680.5,355.5 C 683.853,357.973 687.686,358.973 692,358.5C 698.285,358.046 704.452,357.213 710.5,356C 712.499,361.982 714.499,367.982 716.5,374C 714.874,375.819 712.874,377.152 710.5,378C 696.938,383.226 682.938,385.226 668.5,384C 651.209,381.282 642.375,371.115 642,353.5C 641.5,330.836 641.333,308.169 641.5,285.5C 635.833,285.5 630.167,285.5 624.5,285.5C 624.5,278.5 624.5,271.5 624.5,264.5C 641.503,263.5 651.17,254.5 653.5,237.5C 655.163,235.562 655.829,233.228 655.5,230.5C 661.893,230.207 668.227,230.54 674.5,231.5C 675.561,234.116 675.228,236.616 673.5,239C 674.167,244.667 674.833,250.333 675.5,256C 674.773,257.399 674.273,258.899 674,260.5C 673.086,259.346 672.253,259.513 671.5,261C 673.772,261.941 675.772,263.274 677.5,265C 686.689,264.952 696.022,265.285 705.5,266C 707.155,267.444 707.822,269.278 707.5,271.5C 706.167,271.5 704.833,271.5 703.5,271.5C 703.5,273.167 703.5,274.833 703.5,276.5C 698.156,276.334 692.823,276.501 687.5,277C 693.157,277.499 698.824,277.666 704.5,277.5C 704.351,276.448 704.517,275.448 705,274.5C 705.71,275.973 706.876,276.64 708.5,276.5C 708.286,278.144 708.62,279.644 709.5,281C 708.333,281.5 707.5,282.333 707,283.5C 705.796,282.529 705.296,281.529 705.5,280.5C 704.692,280.808 704.025,281.308 703.5,282C 695.643,282.247 687.81,282.747 680,283.5C 678.893,283.415 677.893,283.081 677,282.5C 675.638,284.436 673.805,285.769 671.5,286.5C 672.325,287.386 673.325,287.719 674.5,287.5C 674.827,308.742 674.494,329.909 673.5,351C 674.448,351.483 675.448,351.649 676.5,351.5C 676.488,354.142 677.821,355.475 680.5,355.5 Z"/></g>
<g><path style="opacity:1" fill="#cf604d" d="M 239.5,241.5 C 240.978,241.238 242.311,241.571 243.5,242.5C 246.456,245.958 249.623,249.292 253,252.5C 253.483,253.448 253.649,254.448 253.5,255.5C 249.221,250.554 244.554,245.887 239.5,241.5 Z"/></g>
<g><path style="opacity:1" fill="#fcfaf9" d="M 232.5,234.5 C 234.582,237.249 236.916,239.583 239.5,241.5C 244.554,245.887 249.221,250.554 253.5,255.5C 255.026,256.105 256.026,257.271 256.5,259C 275.282,257.782 284.115,266.615 283,285.5C 288.86,291.36 294.694,297.194 300.5,303C 301.448,303.483 302.448,303.649 303.5,303.5C 303.393,305.903 304.393,307.736 306.5,309C 309.826,309.172 313.159,309.005 316.5,308.5C 331.318,313.997 335.318,323.997 328.5,338.5C 321.387,346.02 313.053,347.52 303.5,343C 296.781,336.51 294.281,328.676 296,319.5C 293.297,316.629 290.464,313.962 287.5,311.5C 282.833,306.5 278.167,301.5 273.5,296.5C 273.44,295.957 273.107,295.624 272.5,295.5C 271.172,317.33 271.172,338.996 272.5,360.5C 275.141,362.804 277.808,365.138 280.5,367.5C 283.017,374.251 282.683,380.918 279.5,387.5C 273.75,393.639 266.75,395.972 258.5,394.5C 246.642,388.76 243.142,379.76 248,367.5C 250.396,364.933 252.896,362.6 255.5,360.5C 256.832,349.854 257.499,338.854 257.5,327.5C 257.5,316.328 257.167,305.328 256.5,294.5C 247.421,288.864 244.421,281.03 247.5,271C 246.956,270.283 246.289,269.783 245.5,269.5C 237.202,260.702 228.702,252.035 220,243.5C 219.617,244.056 219.117,244.389 218.5,244.5C 219.967,242.637 221.967,241.304 224.5,240.5C 225.386,239.675 225.719,238.675 225.5,237.5C 227.821,236.523 230.154,235.523 232.5,234.5 Z"/></g>
<g><path style="opacity:1" fill="#e2ddd2" d="M 550.5,267.5 C 526.122,267.797 501.789,267.13 477.5,265.5C 484.234,264.817 491.068,264.15 498,263.5C 500.28,264.086 502.447,264.92 504.5,266C 520.005,266.169 535.339,266.669 550.5,267.5 Z"/></g>
<g><path style="opacity:1" fill="#31290d" d="M 563.5,265.5 C 579.5,265.5 595.5,265.5 611.5,265.5C 611.333,298.168 611.5,330.835 612,363.5C 616.671,365.075 621.504,365.742 626.5,365.5C 626.5,371.833 626.5,378.167 626.5,384.5C 604.833,384.5 583.167,384.5 561.5,384.5C 561.5,378.167 561.5,371.833 561.5,365.5C 566.434,365.28 571.267,364.613 576,363.5C 576.667,338.833 576.667,314.167 576,289.5C 571.41,287.137 566.577,285.47 561.5,284.5C 562.249,278.176 562.915,271.843 563.5,265.5 Z"/></g>
<g><path style="opacity:1" fill="#2f2913" d="M 680.5,355.5 C 677.821,355.475 676.488,354.142 676.5,351.5C 675.448,351.649 674.448,351.483 673.5,351C 674.494,329.909 674.827,308.742 674.5,287.5C 673.325,287.719 672.325,287.386 671.5,286.5C 673.805,285.769 675.638,284.436 677,282.5C 677.893,283.081 678.893,283.415 680,283.5C 687.81,282.747 695.643,282.247 703.5,282C 704.025,281.308 704.692,280.808 705.5,280.5C 705.296,281.529 705.796,282.529 707,283.5C 707.5,282.333 708.333,281.5 709.5,281C 708.62,279.644 708.286,278.144 708.5,276.5C 706.876,276.64 705.71,275.973 705,274.5C 704.517,275.448 704.351,276.448 704.5,277.5C 698.824,277.666 693.157,277.499 687.5,277C 692.823,276.501 698.156,276.334 703.5,276.5C 703.5,274.833 703.5,273.167 703.5,271.5C 704.833,271.5 706.167,271.5 707.5,271.5C 707.822,269.278 707.155,267.444 705.5,266C 696.022,265.285 686.689,264.952 677.5,265C 675.772,263.274 673.772,261.941 671.5,261C 672.253,259.513 673.086,259.346 674,260.5C 674.273,258.899 674.773,257.399 675.5,256C 674.833,250.333 674.167,244.667 673.5,239C 675.228,236.616 675.561,234.116 674.5,231.5C 668.227,230.54 661.893,230.207 655.5,230.5C 655.829,233.228 655.163,235.562 653.5,237.5C 653.963,234.518 654.296,231.518 654.5,228.5C 661.833,228.5 669.167,228.5 676.5,228.5C 676.5,239.833 676.5,251.167 676.5,262.5C 687.833,262.5 699.167,262.5 710.5,262.5C 710.5,270.167 710.5,277.833 710.5,285.5C 699.167,285.5 687.833,285.5 676.5,285.5C 676.333,305.836 676.5,326.169 677,346.5C 677.117,349.963 678.284,352.963 680.5,355.5 Z"/></g>
<g><path style="opacity:1" fill="#dd4b37" d="M 277.5,214.5 C 278.167,217.167 279.833,218.833 282.5,219.5C 315.167,251.5 347.5,283.833 379.5,316.5C 379.833,317.167 380.167,317.833 380.5,318.5C 380.749,321.002 381.083,323.502 381.5,326C 380.678,329.141 380.011,332.307 379.5,335.5C 376.5,339.167 373.167,342.5 369.5,345.5C 367.821,345.892 366.154,346.392 364.5,347C 362.973,350.037 360.807,352.537 358,354.5C 357.517,355.448 357.351,356.448 357.5,357.5C 347.167,368.5 336.5,379.167 325.5,389.5C 322.513,389.998 319.513,390.498 316.5,391C 317.956,391.423 318.456,392.256 318,393.5C 314.79,396.363 311.29,398.863 307.5,401C 308.747,402.494 308.747,403.994 307.5,405.5C 301.7,409.959 297.033,415.292 293.5,421.5C 286.703,428.798 279.703,435.965 272.5,443C 262.547,447.622 254.547,445.455 248.5,436.5C 246.548,433.756 245.048,430.756 244,427.5C 242.211,425.771 240.044,425.104 237.5,425.5C 235.5,424.167 233.833,422.5 232.5,420.5C 232.325,418.156 231.158,416.489 229,415.5C 228.51,414.207 228.343,412.873 228.5,411.5C 225.292,410.623 222.292,409.289 219.5,407.5C 202.167,390.833 185.167,373.833 168.5,356.5C 168.325,354.156 167.158,352.489 165,351.5C 164.51,350.207 164.343,348.873 164.5,347.5C 161.292,346.623 158.292,345.289 155.5,343.5C 145.497,337.324 142.33,328.657 146,317.5C 170.368,293.299 194.535,268.965 218.5,244.5C 219.117,244.389 219.617,244.056 220,243.5C 228.702,252.035 237.202,260.702 245.5,269.5C 243.841,277.412 244.674,285.079 248,292.5C 250.126,294.377 252.626,295.377 255.5,295.5C 255.263,296.791 255.596,297.791 256.5,298.5C 256.787,319.193 256.454,339.86 255.5,360.5C 252.896,362.6 250.396,364.933 248,367.5C 243.142,379.76 246.642,388.76 258.5,394.5C 258.611,395.117 258.944,395.617 259.5,396C 263.5,396.667 267.5,396.667 271.5,396C 271.167,395.667 270.833,395.333 270.5,395C 274.995,393.984 277.995,391.484 279.5,387.5C 282.683,380.918 283.017,374.251 280.5,367.5C 280.649,366.448 280.483,365.448 280,364.5C 275.277,362.164 274.111,358.83 276.5,354.5C 276.081,353.328 275.415,352.328 274.5,351.5C 273.747,335.984 273.414,320.484 273.5,305C 273.833,303.5 274.167,302 274.5,300.5C 277.122,301.952 278.788,304.119 279.5,307C 282.329,308.356 284.996,309.856 287.5,311.5C 290.464,313.962 293.297,316.629 296,319.5C 294.281,328.676 296.781,336.51 303.5,343C 313.053,347.52 321.387,346.02 328.5,338.5C 329.708,337.766 331.041,337.433 332.5,337.5C 332.83,330.8 332.497,324.134 331.5,317.5C 329.211,314.556 327.211,311.556 325.5,308.5C 322.5,308.5 319.5,308.5 316.5,308.5C 313.159,309.005 309.826,309.172 306.5,309C 304.393,307.736 303.393,305.903 303.5,303.5C 302.448,303.649 301.448,303.483 300.5,303C 294.694,297.194 288.86,291.36 283,285.5C 284.115,266.615 275.282,257.782 256.5,259C 256.026,257.271 255.026,256.105 253.5,255.5C 253.649,254.448 253.483,253.448 253,252.5C 249.623,249.292 246.456,245.958 243.5,242.5C 242.311,241.571 240.978,241.238 239.5,241.5C 236.916,239.583 234.582,237.249 232.5,234.5C 231.697,233.577 231.53,232.577 232,231.5C 239.833,223.667 247.667,215.833 255.5,208C 260.167,207.333 264.833,207.333 269.5,208C 272.331,210.001 274.997,212.167 277.5,214.5 Z"/></g>
<g><path style="opacity:1" fill="#e78c7c" d="M 256.5,294.5 C 257.167,305.328 257.5,316.328 257.5,327.5C 257.499,338.854 256.832,349.854 255.5,360.5C 256.454,339.86 256.787,319.193 256.5,298.5C 256.5,297.167 256.5,295.833 256.5,294.5 Z"/></g>
<g><path style="opacity:1" fill="#cd5447" d="M 245.5,269.5 C 246.289,269.783 246.956,270.283 247.5,271C 244.421,281.03 247.421,288.864 256.5,294.5C 256.5,295.833 256.5,297.167 256.5,298.5C 255.596,297.791 255.263,296.791 255.5,295.5C 252.626,295.377 250.126,294.377 248,292.5C 244.674,285.079 243.841,277.412 245.5,269.5 Z"/></g>
<g><path style="opacity:1" fill="#d45e51" d="M 316.5,308.5 C 319.5,308.5 322.5,308.5 325.5,308.5C 327.211,311.556 329.211,314.556 331.5,317.5C 332.497,324.134 332.83,330.8 332.5,337.5C 331.041,337.433 329.708,337.766 328.5,338.5C 335.318,323.997 331.318,313.997 316.5,308.5 Z"/></g>
<g><path style="opacity:1" fill="#fee6df" d="M 367.5,348.5 C 368.167,347.5 368.833,346.5 369.5,345.5C 373.167,342.5 376.5,339.167 379.5,335.5C 381.677,332.627 382.677,329.294 382.5,325.5C 382.684,322.795 382.017,320.462 380.5,318.5C 380.167,317.833 379.833,317.167 379.5,316.5C 381.017,316.489 382.184,315.823 383,314.5C 383.167,315.167 383.333,315.833 383.5,316.5C 383.956,323.083 383.456,329.75 382,336.5C 378.744,338.087 376.577,340.587 375.5,344C 373.211,346.111 370.545,347.611 367.5,348.5 Z"/></g>
<g><path style="opacity:1" fill="#fea792" d="M 273.5,296.5 C 272.503,317.66 272.169,338.993 272.5,360.5C 271.172,338.996 271.172,317.33 272.5,295.5C 273.107,295.624 273.44,295.957 273.5,296.5 Z"/></g>
<g><path style="opacity:1" fill="#c45b4d" d="M 380.5,318.5 C 382.017,320.462 382.684,322.795 382.5,325.5C 382.677,329.294 381.677,332.627 379.5,335.5C 380.011,332.307 380.678,329.141 381.5,326C 381.083,323.502 380.749,321.002 380.5,318.5 Z"/></g>
<g><path style="opacity:1" fill="#ca5544" d="M 273.5,296.5 C 278.167,301.5 282.833,306.5 287.5,311.5C 284.996,309.856 282.329,308.356 279.5,307C 278.788,304.119 277.122,301.952 274.5,300.5C 274.167,302 273.833,303.5 273.5,305C 273.414,320.484 273.747,335.984 274.5,351.5C 275.415,352.328 276.081,353.328 276.5,354.5C 274.111,358.83 275.277,362.164 280,364.5C 280.483,365.448 280.649,366.448 280.5,367.5C 277.808,365.138 275.141,362.804 272.5,360.5C 272.169,338.993 272.503,317.66 273.5,296.5 Z"/></g>
<g><path style="opacity:1" fill="#2f270a" d="M 477.5,265.5 C 501.789,267.13 526.122,267.797 550.5,267.5C 550.5,274.167 550.5,280.833 550.5,287.5C 543.833,287.5 537.167,287.5 530.5,287.5C 532.376,292.254 534.542,296.921 537,301.5C 541.14,325.663 531.64,341.496 508.5,349C 496.483,351.947 484.483,352.114 472.5,349.5C 469.112,352.597 466.445,356.264 464.5,360.5C 480.723,362.884 497.056,364.384 513.5,365C 524.567,365.907 534.4,369.74 543,376.5C 546.23,380.625 548.063,385.292 548.5,390.5C 548.687,396.212 548.354,401.879 547.5,407.5C 543.773,419.729 535.773,427.895 523.5,432C 516.992,434.294 510.326,435.96 503.5,437C 490.167,437.667 476.833,437.667 463.5,437C 453.641,435.827 444.641,432.493 436.5,427C 429.955,419.688 427.788,411.188 430,401.5C 432.916,396.085 436.416,391.085 440.5,386.5C 430.435,378.999 428.935,369.999 436,359.5C 441.348,354.319 446.515,348.985 451.5,343.5C 435.385,332.242 429.551,316.908 434,297.5C 441.115,277.006 455.615,266.34 477.5,265.5 Z"/></g>
<g><path style="opacity:1" fill="#fbfbf9" d="M 481.5,287.5 C 504.903,287.636 512.403,298.636 504,320.5C 495.58,327.526 486.08,329.359 475.5,326C 466.488,320.325 463.322,312.158 466,301.5C 468.852,294.142 474.019,289.475 481.5,287.5 Z"/></g>
<g><path style="opacity:1" fill="#c95a4a" d="M 369.5,345.5 C 368.833,346.5 368.167,347.5 367.5,348.5C 364.167,351.5 360.833,354.5 357.5,357.5C 357.351,356.448 357.517,355.448 358,354.5C 360.807,352.537 362.973,350.037 364.5,347C 366.154,346.392 367.821,345.892 369.5,345.5 Z"/></g>
<g><path style="opacity:1" fill="#cf6152" d="M 155.5,343.5 C 158.292,345.289 161.292,346.623 164.5,347.5C 164.343,348.873 164.51,350.207 165,351.5C 167.158,352.489 168.325,354.156 168.5,356.5C 163.833,352.5 159.5,348.167 155.5,343.5 Z"/></g>
<g><path style="opacity:1" fill="#fbfaf8" d="M 461.5,392.5 C 477.916,393.189 494.25,394.689 510.5,397C 511.931,397.465 513.097,398.299 514,399.5C 515.962,406.075 513.795,410.575 507.5,413C 492.922,417.218 478.256,417.552 463.5,414C 459.13,411.982 456.797,408.649 456.5,404C 457.191,399.781 458.857,395.948 461.5,392.5 Z"/></g>
<g><path style="opacity:1" fill="#d45650" d="M 279.5,387.5 C 277.995,391.484 274.995,393.984 270.5,395C 270.833,395.333 271.167,395.667 271.5,396C 267.5,396.667 263.5,396.667 259.5,396C 258.944,395.617 258.611,395.117 258.5,394.5C 266.75,395.972 273.75,393.639 279.5,387.5 Z"/></g>
<g><path style="opacity:1" fill="#d25444" d="M 325.5,389.5 C 315.167,400.5 304.5,411.167 293.5,421.5C 297.033,415.292 301.7,409.959 307.5,405.5C 308.747,403.994 308.747,402.494 307.5,401C 311.29,398.863 314.79,396.363 318,393.5C 318.456,392.256 317.956,391.423 316.5,391C 319.513,390.498 322.513,389.998 325.5,389.5 Z"/></g>
<g><path style="opacity:1" fill="#c5c0b8" d="M 548.5,390.5 C 549.216,395.034 549.883,399.701 550.5,404.5C 549.452,405.548 548.452,406.548 547.5,407.5C 548.354,401.879 548.687,396.212 548.5,390.5 Z"/></g>
<g><path style="opacity:1" fill="#cf6254" d="M 219.5,407.5 C 222.292,409.289 225.292,410.623 228.5,411.5C 228.343,412.873 228.51,414.207 229,415.5C 231.158,416.489 232.325,418.156 232.5,420.5C 227.833,416.5 223.5,412.167 219.5,407.5 Z"/></g>
<g><path style="opacity:1" fill="#d05f51" d="M 237.5,425.5 C 240.044,425.104 242.211,425.771 244,427.5C 245.048,430.756 246.548,433.756 248.5,436.5C 244.5,433.167 240.833,429.5 237.5,425.5 Z"/></g>
</svg>
