<?xml version="1.0" encoding="UTF-8"?>
<!DOCTYPE svg PUBLIC "-//W3C//DTD SVG 1.1//EN" "http://www.w3.org/Graphics/SVG/1.1/DTD/svg11.dtd">
<svg xmlns="http://www.w3.org/2000/svg" version="1.1" width="814px" height="710px" style="shape-rendering:geometricPrecision; text-rendering:geometricPrecision; image-rendering:optimizeQuality; fill-rule:evenodd; clip-rule:evenodd" xmlns:xlink="http://www.w3.org/1999/xlink">
<g><path style="opacity:1" fill="#f7f7f7" d="M -0.5,-0.5 C 270.833,-0.5 542.167,-0.5 813.5,-0.5C 813.5,236.167 813.5,472.833 813.5,709.5C 542.167,709.5 270.833,709.5 -0.5,709.5C -0.5,472.833 -0.5,236.167 -0.5,-0.5 Z"/></g>
<g><path style="opacity:1" fill="#343434" d="M 498.5,248.5 C 500.492,218.185 501.159,187.518 500.5,156.5C 502.139,154.058 504.139,153.891 506.5,156C 517.833,162.333 529.167,168.667 540.5,175C 541.126,175.75 541.626,176.584 542,177.5C 542.992,234.916 542.658,292.249 541,349.5C 521.167,361.333 501.333,373.167 481.5,385C 479.167,385.667 476.833,385.667 474.5,385C 455.664,373.747 436.664,362.747 417.5,352C 415.951,350.786 414.785,349.286 414,347.5C 413.333,323.833 413.333,300.167 414,276.5C 415.167,275.333 416.333,274.167 417.5,273C 436.5,262 455.5,251 474.5,240C 476.5,239.333 478.5,239.333 480.5,240C 486.2,243.55 492.2,246.384 498.5,248.5 Z"/></g>
<g><path style="opacity:1" fill="#656565" d="M 500.5,156.5 C 501.159,187.518 500.492,218.185 498.5,248.5C 499.159,217.736 499.826,187.069 500.5,156.5 Z"/></g>
<g><path style="opacity:1" fill="#343434" d="M 144.5,297.5 C 143.778,297.918 143.278,298.584 143,299.5C 142.804,315.544 142.304,331.544 141.5,347.5C 129.23,354.974 116.897,362.474 104.5,370C 103.216,370.684 102.049,370.517 101,369.5C 99.3486,337.919 99.0153,306.252 100,274.5C 101.167,273.333 102.333,272.167 103.5,271C 122.664,260.253 141.664,249.253 160.5,238C 162.5,237.333 164.5,237.333 166.5,238C 187.248,249.789 207.748,261.956 228,274.5C 228.667,305.833 228.667,337.167 228,368.5C 226.867,370.211 225.367,370.711 223.5,370C 211.251,362.959 199.084,355.793 187,348.5C 185.876,331.889 185.043,315.223 184.5,298.5C 178.153,293.494 171.153,289.828 163.5,287.5C 156.45,289.524 150.117,292.858 144.5,297.5 Z"/></g>
<g><path style="opacity:1" fill="#5cab46" d="M 318.5,239.5 C 319.167,261.998 319.5,284.664 319.5,307.5C 319.5,330.51 318.833,353.177 317.5,375.5C 313.341,369.189 309.675,362.523 306.5,355.5C 307.756,355.539 308.756,355.039 309.5,354C 309.5,318 309.5,282 309.5,246C 308.906,245.536 308.239,245.369 307.5,245.5C 310.678,242.742 314.345,240.742 318.5,239.5 Z"/></g>
<g><path style="opacity:1" fill="#58a545" d="M 318.5,239.5 C 320.167,238.167 321.833,238.167 323.5,239.5C 325.5,243.5 327.5,247.5 329.5,251.5C 329.801,294.156 329.801,336.823 329.5,379.5C 331.167,379.5 332.833,379.5 334.5,379.5C 331.067,382.059 327.401,384.392 323.5,386.5C 322.702,386.043 322.369,385.376 322.5,384.5C 320.58,381.661 318.913,378.661 317.5,375.5C 318.833,353.177 319.5,330.51 319.5,307.5C 319.5,284.664 319.167,261.998 318.5,239.5 Z"/></g>
<g><path style="opacity:1" fill="#343434" d="M 632.5,238.5 C 637.192,238.841 641.526,240.341 645.5,243C 662.167,252.667 678.833,262.333 695.5,272C 696.667,273.167 697.833,274.333 699,275.5C 699.667,282.5 699.667,289.5 699,296.5C 698.535,297.931 697.701,299.097 696.5,300C 684.515,307.24 672.349,314.074 660,320.5C 658.674,320.245 657.674,319.578 657,318.5C 656.667,312.167 656.333,305.833 656,299.5C 649.747,295.289 643.247,291.455 636.5,288C 634.365,287.365 632.365,287.699 630.5,289C 624.915,292.375 619.415,295.875 614,299.5C 613.333,307.5 613.333,315.5 614,323.5C 632.254,334.712 650.754,345.545 669.5,356C 676.033,359.431 676.033,362.764 669.5,366C 660.339,370.746 651.339,375.746 642.5,381C 638.782,383.298 634.782,383.965 630.5,383C 611.333,371.833 592.167,360.667 573,349.5C 571.851,336.925 571.351,324.258 571.5,311.5C 571.351,298.742 571.851,286.075 573,273.5C 593.143,262.185 612.977,250.518 632.5,238.5 Z"/></g>
<g><path style="opacity:1" fill="#4f9a43" d="M 323.5,239.5 C 343.665,250.079 363.331,261.412 382.5,273.5C 377.688,283.791 372.355,293.791 366.5,303.5C 363.762,299.902 360.762,296.402 357.5,293C 357.833,292.667 358.167,292.333 358.5,292C 356.167,289.667 353.833,287.333 351.5,285C 351.019,282.653 349.519,280.487 347,278.5C 347.349,281.062 348.183,283.562 349.5,286C 349.167,313 348.833,340 348.5,367C 351.84,366.845 355.174,366.345 358.5,365.5C 354.836,368.335 350.836,370.668 346.5,372.5C 344.064,372.317 341.897,372.984 340,374.5C 339.5,374 339,373.5 338.5,373C 338.833,338.667 339.167,304.333 339.5,270C 336.788,263.404 333.455,257.237 329.5,251.5C 327.5,247.5 325.5,243.5 323.5,239.5 Z"/></g>
<g><path style="opacity:1" fill="#61b147" d="M 307.5,245.5 C 308.239,245.369 308.906,245.536 309.5,246C 309.5,282 309.5,318 309.5,354C 308.756,355.039 307.756,355.539 306.5,355.5C 303.182,349.535 299.849,343.535 296.5,337.5C 297.756,337.539 298.756,337.039 299.5,336C 298.167,308.667 298.167,281.333 299.5,254C 298.099,253.59 296.766,253.09 295.5,252.5C 299.136,249.677 303.136,247.344 307.5,245.5 Z"/></g>
<g><path style="opacity:1" fill="#67b948" d="M 295.5,252.5 C 296.766,253.09 298.099,253.59 299.5,254C 298.167,281.333 298.167,308.667 299.5,336C 298.756,337.039 297.756,337.539 296.5,337.5C 291.754,328.339 286.754,319.339 281.5,310.5C 274.484,297.798 267.484,285.132 260.5,272.5C 271.996,265.584 283.663,258.917 295.5,252.5 Z"/></g>
<g><path style="opacity:1" fill="#539f44" d="M 329.5,251.5 C 333.455,257.237 336.788,263.404 339.5,270C 339.167,304.333 338.833,338.667 338.5,373C 339,373.5 339.5,374 340,374.5C 341.897,372.984 344.064,372.317 346.5,372.5C 342.836,375.335 338.836,377.668 334.5,379.5C 332.833,379.5 331.167,379.5 329.5,379.5C 329.801,336.823 329.801,294.156 329.5,251.5 Z"/></g>
<g><path style="opacity:1" fill="#43933b" d="M 260.5,272.5 C 267.484,285.132 274.484,297.798 281.5,310.5C 280.272,311.306 279.272,312.306 278.5,313.5C 278.217,312.711 277.717,312.044 277,311.5C 276,311.833 275,312.167 274,312.5C 272.333,310.833 270.667,309.167 269,307.5C 268,307.833 267,308.167 266,308.5C 263.974,305.713 261.64,304.047 259,303.5C 258.506,305.134 258.34,306.801 258.5,308.5C 258.167,308.5 257.833,308.5 257.5,308.5C 257.333,297.162 257.5,285.828 258,274.5C 258.708,273.619 259.542,272.953 260.5,272.5 Z"/></g>
<g><path style="opacity:1" fill="#f3f3f3" d="M 476.5,287.5 C 484.056,290.948 491.39,294.948 498.5,299.5C 499.833,308.167 499.833,316.833 498.5,325.5C 491.686,329.322 484.853,332.988 478,336.5C 470.735,333.032 463.735,329.032 457,324.5C 456.168,316.147 456.335,307.813 457.5,299.5C 464.067,295.725 470.4,291.725 476.5,287.5 Z"/></g>
<g><path style="opacity:1" fill="#4a9241" d="M 366.5,303.5 C 366.205,305.423 365.372,307.09 364,308.5C 362.171,306.844 360.837,304.844 360,302.5C 359.163,300.993 357.996,300.493 356.5,301C 356.5,321 356.5,341 356.5,361C 357.263,361.944 358.263,362.444 359.5,362.5C 361.453,361.844 363.453,361.511 365.5,361.5C 363.664,363.588 361.331,364.921 358.5,365.5C 355.174,366.345 351.84,366.845 348.5,367C 348.833,340 349.167,313 349.5,286C 348.183,283.562 347.349,281.062 347,278.5C 349.519,280.487 351.019,282.653 351.5,285C 353.833,287.333 356.167,289.667 358.5,292C 358.167,292.333 357.833,292.667 357.5,293C 360.762,296.402 363.762,299.902 366.5,303.5 Z"/></g>
<g><path style="opacity:1" fill="#57a047" d="M 647.5,303.5 C 647.782,308.927 647.449,314.26 646.5,319.5C 643.222,320.809 640.222,322.642 637.5,325C 636.167,325.667 634.833,325.667 633.5,325C 630.5,323.167 627.5,321.333 624.5,319.5C 623.337,314.198 623.171,308.864 624,303.5C 627.953,300.1 632.453,298.267 637.5,298C 640.727,300.112 644.06,301.945 647.5,303.5 Z"/></g>
<g><path style="opacity:1" fill="#d1d1d1" d="M 144.5,297.5 C 144.229,314.508 143.229,331.174 141.5,347.5C 142.304,331.544 142.804,315.544 143,299.5C 143.278,298.584 143.778,297.918 144.5,297.5 Z"/></g>
<g><path style="opacity:1" fill="#458c41" d="M 382.5,273.5 C 383.458,273.953 384.292,274.619 385,275.5C 385.181,300.03 385.681,324.53 386.5,349C 379.804,353.681 372.804,357.848 365.5,361.5C 363.453,361.511 361.453,361.844 359.5,362.5C 358.263,362.444 357.263,361.944 356.5,361C 356.5,341 356.5,321 356.5,301C 357.996,300.493 359.163,300.993 360,302.5C 360.837,304.844 362.171,306.844 364,308.5C 365.372,307.09 366.205,305.423 366.5,303.5C 372.355,293.791 377.688,283.791 382.5,273.5 Z"/></g>
<g><path style="opacity:1" fill="#409835" d="M 278.5,313.5 C 276.656,317.864 274.323,321.864 271.5,325.5C 271.607,323.621 271.107,323.288 270,324.5C 268.667,323.833 267.667,322.833 267,321.5C 266.667,321.833 266.333,322.167 266,322.5C 264.169,320.145 262.003,318.812 259.5,318.5C 258.583,315.242 258.249,311.909 258.5,308.5C 258.34,306.801 258.506,305.134 259,303.5C 261.64,304.047 263.974,305.713 266,308.5C 267,308.167 268,307.833 269,307.5C 270.667,309.167 272.333,310.833 274,312.5C 275,312.167 276,311.833 277,311.5C 277.717,312.044 278.217,312.711 278.5,313.5 Z"/></g>
<g><path style="opacity:1" fill="#c4dbbe" d="M 647.5,303.5 C 648.164,305.978 648.497,308.645 648.5,311.5C 648.478,314.59 647.812,317.257 646.5,319.5C 647.449,314.26 647.782,308.927 647.5,303.5 Z"/></g>
<g><path style="opacity:1" fill="#448941" d="M 281.5,310.5 C 286.754,319.339 291.754,328.339 296.5,337.5C 299.849,343.535 303.182,349.535 306.5,355.5C 309.675,362.523 313.341,369.189 317.5,375.5C 318.913,378.661 320.58,381.661 322.5,384.5C 320.801,384.66 319.134,384.494 317.5,384C 299.758,373.267 281.758,362.934 263.5,353C 260.921,351.924 259.254,350.091 258.5,347.5C 263.334,340.504 267.667,333.171 271.5,325.5C 274.323,321.864 276.656,317.864 278.5,313.5C 279.272,312.306 280.272,311.306 281.5,310.5 Z"/></g>
<g><path style="opacity:1" fill="#43a235" d="M 257.5,308.5 C 257.833,308.5 258.167,308.5 258.5,308.5C 258.249,311.909 258.583,315.242 259.5,318.5C 262.003,318.812 264.169,320.145 266,322.5C 266.333,322.167 266.667,321.833 267,321.5C 267.667,322.833 268.667,323.833 270,324.5C 271.107,323.288 271.607,323.621 271.5,325.5C 267.667,333.171 263.334,340.504 258.5,347.5C 257.505,334.677 257.171,321.677 257.5,308.5 Z"/></g>
<g><path style="opacity:1" fill="#5aa14a" d="M 401.5,520.5 C 398.167,520.5 394.833,520.5 391.5,520.5C 385.074,517.257 378.74,513.757 372.5,510C 371.663,508.989 371.33,507.822 371.5,506.5C 375.155,505.648 378.821,505.148 382.5,505C 386.935,507.634 391.435,510.134 396,512.5C 414.582,502.249 432.916,491.582 451,480.5C 451.667,458.833 451.667,437.167 451,415.5C 432.866,404.516 414.366,394.183 395.5,384.5C 377.375,394.397 359.375,404.564 341.5,415C 340.34,436.76 340.173,458.594 341,480.5C 347.246,484.956 353.912,488.622 361,491.5C 364.804,491.031 367.471,489.031 369,485.5C 369.5,463.836 369.667,442.169 369.5,420.5C 372.939,420.253 376.272,420.586 379.5,421.5C 379.667,443.503 379.5,465.503 379,487.5C 378.392,489.154 377.892,490.821 377.5,492.5C 376.05,495.785 373.717,498.285 370.5,500C 365.5,500.667 360.5,500.667 355.5,500C 347.586,496.129 340.086,491.629 333,486.5C 332.138,484.913 331.471,483.246 331,481.5C 330.333,458.833 330.333,436.167 331,413.5C 332.167,411.667 333.333,409.833 334.5,408C 353.664,397.253 372.664,386.253 391.5,375C 395.261,374.262 398.928,374.595 402.5,376C 421.915,387.123 441.082,398.623 460,410.5C 461.148,422.908 461.648,435.408 461.5,448C 461.648,460.592 461.148,473.092 460,485.5C 458.5,487 457,488.5 455.5,490C 437.608,500.444 419.608,510.61 401.5,520.5 Z"/></g>
<g><path style="opacity:1" fill="#59a149" d="M 405.5,441.5 C 409.567,443.054 413.9,443.72 418.5,443.5C 425.041,444.238 431.041,446.405 436.5,450C 443.279,464.978 438.612,474.312 422.5,478C 413.756,478.91 405.089,478.576 396.5,477C 388.306,473.118 384.306,466.618 384.5,457.5C 387.833,457.5 391.167,457.5 394.5,457.5C 394.468,462.089 396.468,465.423 400.5,467.5C 404.574,468.954 408.907,469.621 413.5,469.5C 416.355,469.497 419.022,469.164 421.5,468.5C 427.618,467.882 430.118,464.548 429,458.5C 427.855,457.364 426.688,456.364 425.5,455.5C 423.485,454.076 421.152,453.41 418.5,453.5C 411.451,453.052 404.451,452.218 397.5,451C 388.141,447.296 384.641,440.463 387,430.5C 392.378,421.651 400.378,417.651 411,418.5C 418.281,418.695 425.115,420.529 431.5,424C 436.147,428.102 438.147,433.269 437.5,439.5C 434.482,439.665 431.482,439.498 428.5,439C 425.492,430.654 419.492,427.154 410.5,428.5C 401.287,426.892 397.121,430.559 398,439.5C 400.228,441.113 402.728,441.78 405.5,441.5 Z"/></g>
<g><path style="opacity:1" fill="#e1ecdf" d="M 379.5,421.5 C 380.663,443.663 380.83,465.996 380,488.5C 379.8,490.32 378.966,491.653 377.5,492.5C 377.892,490.821 378.392,489.154 379,487.5C 379.5,465.503 379.667,443.503 379.5,421.5 Z"/></g>
<g><path style="opacity:1" fill="#cde0c9" d="M 405.5,441.5 C 410.122,441.156 414.455,441.823 418.5,443.5C 413.9,443.72 409.567,443.054 405.5,441.5 Z"/></g>
<g><path style="opacity:1" fill="#97c28d" d="M 418.5,453.5 C 421.152,453.41 423.485,454.076 425.5,455.5C 422.848,455.59 420.515,454.924 418.5,453.5 Z"/></g>
<g><path style="opacity:1" fill="#c3dbbe" d="M 400.5,467.5 C 407.49,467.999 414.49,468.332 421.5,468.5C 419.022,469.164 416.355,469.497 413.5,469.5C 408.907,469.621 404.574,468.954 400.5,467.5 Z"/></g>
<g><path style="opacity:1" fill="#7fb572" d="M 391.5,520.5 C 394.833,520.5 398.167,520.5 401.5,520.5C 398.167,523.167 394.833,523.167 391.5,520.5 Z"/></g>
</svg>
